<?xml version="1.0" standalone="no"?>
<!DOCTYPE svg PUBLIC "-//W3C//DTD SVG 1.1//EN" "http://www.w3.org/Graphics/SVG/1.1/DTD/svg11.dtd" >
<svg xmlns="http://www.w3.org/2000/svg" xmlns:xlink="http://www.w3.org/1999/xlink" version="1.1">
<metadata>
Created by FontForge 20200427 at Mon Aug  3 21:55:42 2015
 By www
Copyright 2015 Dalton Maag Ltd. Modification of this file requires prior written permission from Dalton Maag Ltd.
</metadata>
<defs>
<font id="AktivGroteskEx-Regular" horiz-adv-x="492" >
  <font-face 
    font-family="Aktiv Grotesk Ex"
    font-weight="400"
    font-stretch="expanded"
    units-per-em="1000"
    panose-1="2 11 6 4 2 2 3 2 2 4"
    ascent="714"
    descent="-286"
    x-height="517"
    cap-height="714"
    bbox="-214 -220 1513 946"
    underline-thickness="68"
    underline-position="-201"
    unicode-range="U+0008-FEFF"
  />
<missing-glyph horiz-adv-x="610" 
d="M65 0v750h480v-750h-480zM495 700h-380v-650h380v650z" />
    <glyph glyph-name="f_i" unicode="fi" horiz-adv-x="670" 
d="M124 0v443h-101v74h101v44q0 76 50.5 118.5t140.5 42.5q56 0 102 -13l-16 -72q-31 8 -70 8q-113 0 -113 -84v-44h176v-74h-176v-443h-94zM494 0v517h94v-517h-94zM491 612v102h100v-102h-100z" />
    <glyph glyph-name="f_l" unicode="fl" horiz-adv-x="670" 
d="M124 0v443h-101v74h101v44q0 76 50.5 118.5t140.5 42.5q56 0 102 -13l-16 -72q-31 8 -70 8q-113 0 -113 -84v-44h176v-74h-176v-443h-94zM494 0v714h94v-714h-94z" />
    <glyph glyph-name="f_f" unicode="ff" horiz-adv-x="824" 
d="M124 0v443h-101v74h101v44q0 76 50.5 118.5t140.5 42.5q56 0 102 -13l-16 -72q-31 8 -70 8q-113 0 -113 -84v-44h176v-74h-176v-443h-94zM536 0v443h-101v74h101v44q0 76 50.5 118.5t140.5 42.5q56 0 102 -13l-16 -72q-31 8 -70 8q-113 0 -113 -84v-44h176v-74h-176v-443
h-94z" />
    <glyph glyph-name="f_f_i" unicode="ffi" horiz-adv-x="1082" 
d="M124 0v443h-101v74h101v44q0 76 50.5 118.5t140.5 42.5q56 0 102 -13l-16 -72q-31 8 -70 8q-113 0 -113 -84v-44h176v-74h-176v-443h-94zM536 0v443h-101v74h101v44q0 76 50.5 118.5t140.5 42.5q56 0 102 -13l-16 -72q-31 8 -70 8q-113 0 -113 -84v-44h176v-74h-176v-443
h-94zM906 0v517h94v-517h-94zM903 612v102h100v-102h-100z" />
    <glyph glyph-name="f_f_l" unicode="ffl" horiz-adv-x="1082" 
d="M124 0v443h-101v74h101v44q0 76 50.5 118.5t140.5 42.5q56 0 102 -13l-16 -72q-31 8 -70 8q-113 0 -113 -84v-44h176v-74h-176v-443h-94zM536 0v443h-101v74h101v44q0 76 50.5 118.5t140.5 42.5q56 0 102 -13l-16 -72q-31 8 -70 8q-113 0 -113 -84v-44h176v-74h-176v-443
h-94zM906 0v714h94v-714h-94z" />
    <glyph glyph-name=".notdef" horiz-adv-x="610" 
d="M65 0v750h480v-750h-480zM495 700h-380v-650h380v650z" />
    <glyph glyph-name=".null" horiz-adv-x="0" 
 />
    <glyph glyph-name=".null" horiz-adv-x="0" 
 />
    <glyph glyph-name=".null" horiz-adv-x="0" 
 />
    <glyph glyph-name="nonmarkingreturn" unicode="&#x9;" horiz-adv-x="280" 
 />
    <glyph glyph-name="nonmarkingreturn" unicode="&#xd;" horiz-adv-x="280" 
 />
    <glyph glyph-name="space" unicode=" " horiz-adv-x="280" 
 />
    <glyph glyph-name="exclam" unicode="!" horiz-adv-x="266" 
d="M87 205l-3 509h98l-3 -509h-92zM80 0v119h106v-119h-106z" />
    <glyph glyph-name="quotedbl" unicode="&#x22;" horiz-adv-x="371" 
d="M55 462l-6 252h94l-6 -252h-82zM234 462l-6 252h94l-6 -252h-82z" />
    <glyph glyph-name="numbersign" unicode="#" horiz-adv-x="700" 
d="M397 0l29 172h-210l-29 -172h-86l29 172h-112v73h124l34 201h-114v73h126l29 172h86l-29 -172h210l29 172h86l-29 -172h112v-73h-124l-34 -201h114v-73h-126l-29 -172h-86zM472 446h-210l-34 -201h210z" />
    <glyph glyph-name="dollar" unicode="$" horiz-adv-x="700" 
d="M325 -110v94q-255 17 -278 206h93q21 -116 185 -130v255l-23 3q-117 15 -174 64t-57 134q0 84 67.5 135.5t186.5 58.5v85h73v-85q217 -14 252 -182l-85 -15q-20 58 -59.5 87t-107.5 34v-240l24 -3q121 -15 179 -66.5t58 -142.5q0 -86 -69.5 -139t-191.5 -60v-93h-73z
M398 309v-250q165 13 165 122q0 110 -147 126zM325 634q-162 -8 -162 -113q0 -51 34 -79.5t107 -38.5l21 -3v234z" />
    <glyph glyph-name="percent" unicode="%" horiz-adv-x="1091" 
d="M286 0l427 691h92l-427 -691h-92zM845 -13q-92 0 -145.5 58t-53.5 157q0 98 54 156.5t145 58.5q92 0 145.5 -58t53.5 -157q0 -98 -54 -156.5t-145 -58.5zM845 52q58 0 87.5 38t29.5 112q0 150 -117 150q-58 0 -87.5 -38t-29.5 -112q0 -150 117 -150zM246 274
q-92 0 -145.5 58t-53.5 157q0 98 54 156.5t145 58.5q92 0 145.5 -58t53.5 -157q0 -98 -54 -156.5t-145 -58.5zM246 339q58 0 87.5 38t29.5 112q0 150 -117 150q-58 0 -87.5 -38t-29.5 -112q0 -150 117 -150z" />
    <glyph glyph-name="ampersand" unicode="&#x26;" horiz-adv-x="764" 
d="M647 0l-68 64q-45 -38 -109.5 -59t-137.5 -21q-143 0 -219 52.5t-76 150.5q0 128 188 212q-48 50 -68 87.5t-20 76.5q0 43 25 77.5t70.5 55t105.5 20.5q86 0 138.5 -40t52.5 -105q0 -59 -37.5 -101t-131.5 -90l214 -201q24 34 35.5 70.5t13.5 86.5h86q-5 -129 -75 -212
l133 -124h-120zM277 346q-76 -37 -109.5 -72.5t-33.5 -76.5q0 -68 52 -102.5t153 -34.5q112 0 181 58zM309 430q76 38 105.5 66.5t29.5 65.5q0 39 -28 61.5t-76 22.5q-54 0 -84 -22t-30 -62q0 -30 18 -59t65 -73z" />
    <glyph glyph-name="quotesingle" unicode="'" horiz-adv-x="192" 
d="M55 462l-6 252h94l-6 -252h-82z" />
    <glyph glyph-name="parenleft" unicode="(" horiz-adv-x="311" 
d="M200 -124q-142 178 -142 429t142 429h89q-70 -102 -101 -202.5t-31 -226.5q0 -125 31 -226t101 -203h-89z" />
    <glyph glyph-name="parenright" unicode=")" horiz-adv-x="311" 
d="M22 -124q70 102 101 202.5t31 226.5t-31 226.5t-101 202.5h89q142 -178 142 -429t-142 -429h-89z" />
    <glyph glyph-name="asterisk" unicode="*" horiz-adv-x="450" 
d="M309 337l-84 126l-84 -126l-74 54l108 116l-139 41l36 83l120 -63l-15 146h96l-15 -146l120 63l36 -83l-139 -41l108 -116z" />
    <glyph glyph-name="plus" unicode="+" horiz-adv-x="700" 
d="M307 68v232h-230v80h230v232h86v-232h230v-80h-230v-232h-86z" />
    <glyph glyph-name="comma" unicode="," horiz-adv-x="266" 
d="M49 -97l37 216h106l-62 -216h-81z" />
    <glyph glyph-name="hyphen" unicode="-" horiz-adv-x="468" 
d="M52 248v90h364v-90h-364z" />
    <glyph glyph-name="period" unicode="." horiz-adv-x="266" 
d="M80 0v119h106v-119h-106z" />
    <glyph glyph-name="slash" unicode="/" horiz-adv-x="393" 
d="M8 0l281 734h96l-281 -734h-96z" />
    <glyph glyph-name="zero" unicode="0" horiz-adv-x="700" 
d="M350 -18q-149 0 -225 91.5t-76 271.5q0 178 77 271.5t224 93.5q149 0 225 -91.5t76 -271.5q0 -178 -77 -271.5t-224 -93.5zM350 67q102 0 152 69.5t50 210.5q0 278 -202 278q-102 0 -152 -69.5t-50 -210.5q0 -278 202 -278z" />
    <glyph glyph-name="one" unicode="1" horiz-adv-x="700" 
d="M355 0v584l-187 -112l-42 72l239 147h87v-691h-97z" />
    <glyph glyph-name="two" unicode="2" horiz-adv-x="700" 
d="M72 0v77q132 96 256 190q86 65 123 100.5t50 63.5t13 64q0 63 -43 96.5t-124 33.5q-75 0 -117.5 -28t-63.5 -92l-90 14q23 95 92.5 143t182.5 48q125 0 193.5 -54t68.5 -151q0 -57 -20 -99.5t-65.5 -86.5t-129.5 -105q-67 -49 -183 -129h411l-16 -85h-538z" />
    <glyph glyph-name="three" unicode="3" horiz-adv-x="700" 
d="M260 317v85h103q73 0 114.5 31t41.5 87q0 53 -43.5 80t-127.5 27q-52 0 -87.5 -11.5t-58.5 -36.5t-38 -65l-91 14q20 90 90.5 136t188.5 46q120 0 190.5 -48.5t70.5 -130.5q0 -58 -30.5 -97t-95.5 -66q145 -48 145 -170q0 -102 -73.5 -159t-205.5 -57q-133 0 -208 54.5
t-80 154.5h95q11 -67 55.5 -96.5t135.5 -29.5t138.5 33t47.5 97q0 122 -176 122h-101z" />
    <glyph glyph-name="four" unicode="4" horiz-adv-x="700" 
d="M457 0v169h-423v70l420 452h91v-445h120l-14 -77h-106v-169h-88zM457 583l-313 -337h313v337z" />
    <glyph glyph-name="five" unicode="5" horiz-adv-x="700" 
d="M217 606l-19 -205q44 25 82.5 34t101.5 9q119 0 186 -59t67 -163q0 -114 -71 -177t-199 -63q-252 0 -279 195h95q16 -61 57 -86.5t125 -25.5q88 0 132.5 39.5t44.5 116.5q0 147 -178 147q-59 0 -99.5 -13t-75.5 -44h-82l32 380h448v-85h-368z" />
    <glyph glyph-name="six" unicode="6" horiz-adv-x="700" 
d="M528 538q-21 46 -58.5 68t-95.5 22q-98 0 -150 -65.5t-59 -196.5l-1 -11q69 90 212 90q125 0 193 -59t68 -167q0 -69 -34 -122.5t-97.5 -84t-148.5 -30.5q-138 0 -212.5 82.5t-74.5 236.5q0 199 78.5 304t226.5 105q97 0 158 -39.5t81 -116.5zM542 217q0 75 -46 113.5
t-136 38.5q-83 0 -133.5 -39.5t-50.5 -103.5q0 -72 50.5 -117t130.5 -45q84 0 134.5 41.5t50.5 111.5z" />
    <glyph glyph-name="seven" unicode="7" horiz-adv-x="700" 
d="M205 0q58 169 131.5 316t170.5 290h-456v85h563v-76q-197 -285 -308 -615h-101z" />
    <glyph glyph-name="eight" unicode="8" horiz-adv-x="700" 
d="M503 356q70 -18 110 -63t40 -106q0 -99 -78 -152t-225 -53q-148 0 -225.5 51t-77.5 149q0 63 40 109t111 65q-59 20 -91.5 62t-32.5 99q0 89 74.5 141t202.5 52q130 0 202.5 -51t72.5 -142q0 -57 -32.5 -99.5t-90.5 -61.5zM558 188q0 124 -207 124q-106 0 -157.5 -31
t-51.5 -94q0 -61 54 -93t155 -32q100 0 153.5 32.5t53.5 93.5zM534 513q0 54 -49.5 85.5t-134.5 31.5t-134.5 -31.5t-49.5 -86.5q0 -120 184 -120t184 121z" />
    <glyph glyph-name="nine" unicode="9" horiz-adv-x="700" 
d="M534 336q-66 -90 -210 -90q-125 0 -193 58.5t-68 167.5q0 69 34 123t97.5 84.5t148.5 30.5q141 0 214 -86.5t73 -253.5q0 -190 -73.5 -289t-214.5 -99q-239 0 -262 170h94q14 -46 54 -67t114 -21q91 0 137.5 63t54.5 199v10zM523 466q0 72 -50 117t-130 45
q-84 0 -134.5 -42t-50.5 -112q0 -75 46 -113.5t136 -38.5q82 0 132.5 39.5t50.5 104.5z" />
    <glyph glyph-name="colon" unicode=":" horiz-adv-x="266" 
d="M80 0v119h106v-119h-106zM80 398v119h106v-119h-106z" />
    <glyph glyph-name="semicolon" unicode=";" horiz-adv-x="266" 
d="M49 -97l37 216h106l-62 -216h-81zM83 398v119h106v-119h-106z" />
    <glyph glyph-name="less" unicode="&#x3c;" horiz-adv-x="700" 
d="M84 304v72l516 227v-88l-408 -174l408 -174v-90z" />
    <glyph glyph-name="equal" unicode="=" horiz-adv-x="700" 
d="M92 187v82h516v-82h-516zM92 412v82h516v-82h-516z" />
    <glyph glyph-name="greater" unicode="&#x3e;" horiz-adv-x="700" 
d="M100 77v88l408 174l-408 174v90l516 -227v-72z" />
    <glyph glyph-name="question" unicode="?" horiz-adv-x="630" 
d="M257 205v13q0 50 25 87t94 89q57 43 76 70t19 65q0 56 -40.5 86.5t-114.5 30.5q-82 0 -127 -28t-65 -92l-88 13q22 92 93 139.5t188 47.5q119 0 186 -48.5t67 -134.5q0 -57 -25.5 -98t-92.5 -92q-64 -49 -83 -74t-19 -60v-14h-93zM250 0v119h106v-119h-106z" />
    <glyph glyph-name="at" unicode="@" horiz-adv-x="1119" 
d="M932 -55q-60 -79 -164 -119t-247 -40q-144 0 -249 46.5t-161.5 136t-56.5 214.5q0 136 67.5 247t192.5 177t284 66q139 0 244.5 -45t164 -130.5t58.5 -202.5q0 -87 -30 -156t-86 -109t-128 -40q-62 0 -95.5 22t-41.5 69q-31 -44 -80 -67.5t-108 -23.5q-91 0 -143.5 52.5
t-52.5 141.5q0 76 32.5 138t92 99t135.5 37q60 0 101.5 -21.5t60.5 -61.5l13 72h85l-56 -309q-4 -23 -4 -33q0 -26 16 -38t51 -12q45 0 80.5 28.5t56.5 82t21 122.5q0 95 -46.5 165.5t-134.5 109.5t-210 39q-127 0 -230 -50.5t-163.5 -144.5t-60.5 -216q0 -161 102.5 -247.5
t292.5 -86.5q98 0 164.5 20.5t122.5 67.5h110zM693 240q4 25 4 46q0 44 -36 71.5t-92 27.5q-79 0 -128.5 -54t-49.5 -141q0 -62 31 -94.5t90 -32.5q69 0 115.5 36t57.5 97z" />
    <glyph glyph-name="A" unicode="A" horiz-adv-x="826" 
d="M700 0l-94 197h-391l-93 -197h-106l346 714h102l346 -714h-110zM411 608l-158 -329h316z" />
    <glyph glyph-name="B" unicode="B" horiz-adv-x="777" 
d="M96 0v714h318q281 0 281 -183q0 -58 -29.5 -96.5t-87.5 -56.5q145 -48 145 -171q0 -101 -75 -154t-220 -53h-332zM421 415q89 0 131 27t42 85q0 54 -44 78.5t-141 24.5h-216v-215h228zM423 84q104 0 150.5 28.5t46.5 92.5t-48 95t-146 31h-233v-247h230z" />
    <glyph glyph-name="C" unicode="C" horiz-adv-x="852" 
d="M798 235q-21 -123 -112 -188t-243 -65q-115 0 -201.5 44.5t-135 129.5t-48.5 201q0 109 46 194t133 133t203 48q142 0 228 -58.5t119 -176.5l-97 -15q-31 86 -89.5 124t-160.5 38q-83 0 -146 -34t-98 -99t-35 -154q0 -87 33 -151.5t97 -100t152 -35.5q110 0 171.5 40
t81.5 125h102z" />
    <glyph glyph-name="D" unicode="D" horiz-adv-x="857" 
d="M96 0v714h302q194 0 297.5 -92.5t103.5 -264.5t-111 -264.5t-316 -92.5h-276zM376 87q158 0 239 68.5t81 201.5q0 270 -298 270h-203v-540h181z" />
    <glyph glyph-name="E" unicode="E" horiz-adv-x="733" 
d="M96 0v714h568v-87h-469v-215h446v-87h-446v-238h490l-17 -87h-572z" />
    <glyph glyph-name="F" unicode="F" horiz-adv-x="671" 
d="M195 314v-314h-99v714h541v-87h-442v-226h419v-87h-419z" />
    <glyph glyph-name="G" unicode="G" horiz-adv-x="858" 
d="M701 284h-235v85h328v-288q-60 -46 -149.5 -72.5t-185.5 -26.5q-121 0 -211.5 44t-140 128t-49.5 200q0 112 47 197.5t135.5 133t209.5 47.5q125 0 209 -52.5t118 -152.5l-98 -17q-27 68 -84.5 101t-147.5 33q-134 0 -210 -76.5t-76 -212.5q0 -135 79 -210t221 -75
q144 0 240 52v162z" />
    <glyph glyph-name="H" unicode="H" horiz-adv-x="858" 
d="M663 0v323h-468v-323h-99v714h99v-298h468v298h99v-714h-99z" />
    <glyph glyph-name="I" unicode="I" horiz-adv-x="291" 
d="M96 0v714h99v-714h-99z" />
    <glyph glyph-name="J" unicode="J" horiz-adv-x="711" 
d="M524 714h99v-459q0 -135 -74 -204t-219 -69q-275 0 -304 233h101q14 -75 62.5 -110t138.5 -35q101 0 148.5 47t47.5 146v451z" />
    <glyph glyph-name="K" unicode="K" horiz-adv-x="797" 
d="M658 0l-309 386l-154 -124v-262h-99v714h99v-352l426 352h126l-324 -271l356 -443h-121z" />
    <glyph glyph-name="L" unicode="L" horiz-adv-x="689" 
d="M96 0v714h99v-627h468l-17 -87h-550z" />
    <glyph glyph-name="M" unicode="M" horiz-adv-x="1027" 
d="M835 0v573l-280 -573h-84l-280 567v-567h-95v714h123l297 -609l296 609h119v-714h-96z" />
    <glyph glyph-name="N" unicode="N" horiz-adv-x="860" 
d="M668 0l-475 574v-574h-97v714h96l475 -574v574h97v-714h-96z" />
    <glyph glyph-name="O" unicode="O" horiz-adv-x="914" 
d="M856 357q0 -111 -48 -195.5t-138.5 -132t-212.5 -47.5q-118 0 -208 44.5t-140.5 129.5t-50.5 201q0 111 48 195.5t138.5 132t212.5 47.5q118 0 208 -44.5t140.5 -129.5t50.5 -201zM753 357q0 136 -78 211.5t-218 75.5q-139 0 -217.5 -76t-78.5 -211q0 -136 78 -211.5
t218 -75.5q139 0 217.5 76t78.5 211z" />
    <glyph glyph-name="P" unicode="P" horiz-adv-x="762" 
d="M96 0v714h338q138 0 208 -56t70 -166q0 -114 -72 -169.5t-218 -55.5h-227v-267h-99zM425 354q94 0 139 34.5t45 105.5q0 69 -44 101t-138 32h-232v-273h230z" />
    <glyph glyph-name="Q" unicode="Q" horiz-adv-x="914" 
d="M787 -86l-117 116q-93 -48 -213 -48q-118 0 -208 44.5t-140.5 129.5t-50.5 201q0 111 48 195.5t138.5 132t212.5 47.5q118 0 208 -44.5t140.5 -129.5t50.5 -201q0 -87 -30 -158.5t-87 -121.5l106 -105zM507 194l58 58l108 -107q80 77 80 212q0 136 -78 211.5t-218 75.5
q-139 0 -217.5 -76t-78.5 -211q0 -136 78 -211.5t218 -75.5q85 0 147 28z" />
    <glyph glyph-name="R" unicode="R" horiz-adv-x="762" 
d="M629 0l-165 289q-11 -1 -47 -1h-224v-288h-97v714h333q276 0 276 -214q0 -146 -141 -191l179 -309h-114zM420 375q182 0 182 127q0 67 -43 96t-137 29h-229v-252h227z" />
    <glyph glyph-name="S" unicode="S" horiz-adv-x="781" 
d="M611 529q-25 62 -76.5 89t-144.5 27q-106 0 -163.5 -28t-57.5 -80q0 -35 17.5 -57.5t55 -36.5t100.5 -23l138 -20q124 -19 183.5 -70.5t59.5 -140.5q0 -98 -84 -152.5t-234 -54.5q-166 0 -254 56t-101 170h102q14 -71 76 -105t177 -34q104 0 160 31.5t56 89.5
q0 49 -38 77t-124 41l-124 18q-100 15 -157.5 41t-83 66.5t-25.5 100.5q0 93 85 145.5t236 52.5q93 0 155.5 -19.5t101.5 -60.5t59 -106z" />
    <glyph glyph-name="T" unicode="T" horiz-adv-x="719" 
d="M310 0v627h-296v87h691v-87h-296v-627h-99z" />
    <glyph glyph-name="U" unicode="U" horiz-adv-x="836" 
d="M649 714h99v-427q0 -305 -330 -305t-330 305v427h99v-430q0 -109 56.5 -161.5t174.5 -52.5t174.5 52.5t56.5 161.5v430z" />
    <glyph glyph-name="V" unicode="V" horiz-adv-x="792" 
d="M343 0l-327 714h115l267 -608l267 608h111l-327 -714h-106z" />
    <glyph glyph-name="W" unicode="W" horiz-adv-x="1141" 
d="M766 0l-197 588l-198 -588h-106l-245 714h113l188 -590l198 586h106l199 -588l188 592h109l-245 -714h-110z" />
    <glyph glyph-name="X" unicode="X" horiz-adv-x="788" 
d="M648 0l-260 311l-257 -311h-115l309 371l-286 343h124l227 -278l234 278h115l-285 -337l318 -377h-124z" />
    <glyph glyph-name="Y" unicode="Y" horiz-adv-x="745" 
d="M323 0v300l-307 414h119l240 -329l240 329h114l-307 -414v-300h-99z" />
    <glyph glyph-name="Z" unicode="Z" horiz-adv-x="699" 
d="M28 0v78l509 549h-500v87h627v-78l-509 -549h523l-17 -87h-633z" />
    <glyph glyph-name="bracketleft" unicode="[" horiz-adv-x="355" 
d="M96 -124v858h237v-80h-141v-698h141v-80h-237z" />
    <glyph glyph-name="backslash" unicode="\" horiz-adv-x="393" 
d="M385 0h-96l-281 734h96z" />
    <glyph glyph-name="bracketright" unicode="]" horiz-adv-x="355" 
d="M259 -124h-237v80h141v698h-141v80h237v-858z" />
    <glyph glyph-name="asciicircum" unicode="^" horiz-adv-x="700" 
d="M539 307l-191 319l-191 -319h-98l249 407h83l249 -407h-101z" />
    <glyph glyph-name="underscore" unicode="_" horiz-adv-x="610" 
d="M0 -175v52h610v-52h-610z" />
    <glyph glyph-name="grave" unicode="`" horiz-adv-x="696" 
d="M382 591l-163 143h117l141 -143h-95z" />
    <glyph glyph-name="a" unicode="a" horiz-adv-x="657" 
d="M490 0v81q-47 -49 -103.5 -71.5t-130.5 -22.5q-101 0 -155 41t-54 117q0 83 71.5 123.5t224.5 44.5l145 4v18q0 64 -37.5 94.5t-116.5 30.5q-74 0 -115.5 -18t-55.5 -57l-86 11q31 137 261 137q122 0 181.5 -49t59.5 -150v-334h-89zM488 250l-144 -4q-104 -3 -152 -25
t-48 -68q0 -44 35 -67t101 -23q47 0 89.5 14.5t73.5 40.5q45 37 45 91v41z" />
    <glyph glyph-name="b" unicode="b" horiz-adv-x="721" 
d="M82 0v714h94v-290q34 51 95 80t133 29q77 0 136.5 -32.5t93 -94t33.5 -144.5q0 -80 -33 -143t-95 -99t-145 -36q-145 0 -219 101v-85h-93zM175 244q0 -76 52 -130q25 -26 61.5 -39.5t79.5 -13.5q98 0 149 51t51 149q0 92 -51 143.5t-142 51.5q-43 0 -82 -15.5t-67 -43.5
q-24 -24 -37.5 -56t-13.5 -65v-32z" />
    <glyph glyph-name="c" unicode="c" horiz-adv-x="658" 
d="M611 176q-16 -93 -84 -142.5t-181 -49.5q-137 0 -214.5 72.5t-77.5 200.5q0 82 35.5 144t102 97t157.5 35q103 0 167.5 -44t84.5 -128l-93 -15q-31 110 -162 110q-91 0 -142 -52t-51 -145q0 -96 50 -147t145 -51q145 0 170 115h93z" />
    <glyph glyph-name="d" unicode="d" horiz-adv-x="721" 
d="M546 0v94q-34 -51 -95 -80.5t-134 -29.5q-77 0 -136.5 32.5t-93 94t-33.5 144.5q0 80 33 143t95 99t145 36q143 0 218 -100v281h94v-714h-93zM546 273q0 76 -52 130q-25 26 -61.5 39.5t-79.5 13.5q-97 0 -148.5 -51t-51.5 -149q0 -92 50.5 -143.5t142.5 -51.5
q43 0 82 15.5t67 43.5q24 24 37.5 56t13.5 65v32z" />
    <glyph glyph-name="e" unicode="e" horiz-adv-x="670" 
d="M148 232q2 -80 53.5 -127t138.5 -47q145 0 178 87h90q-42 -161 -272 -161q-132 0 -207 72t-75 198q0 81 34.5 144t99.5 99t151 36q131 0 204 -68.5t73 -191.5v-41h-468zM524 303q-1 75 -49 116t-137 41q-77 0 -128 -42t-60 -115h374z" />
    <glyph glyph-name="f" unicode="f" horiz-adv-x="412" 
d="M124 0v443h-101v74h101v44q0 76 50.5 118.5t140.5 42.5q56 0 102 -13l-16 -72q-31 8 -70 8q-113 0 -113 -84v-44h176v-74h-176v-443h-94z" />
    <glyph glyph-name="g" unicode="g" horiz-adv-x="703" 
d="M545 113q-37 -50 -95 -76.5t-133 -26.5q-76 0 -135.5 31.5t-93.5 91.5t-34 139q0 73 33.5 132t96 94t143.5 35q75 0 128 -24t93 -76v84h91v-426q0 -155 -66.5 -225.5t-214.5 -70.5q-130 0 -198 38.5t-81 118.5h93q15 -44 58 -63.5t127 -19.5q97 0 142.5 44t45.5 138v62z
M546 283q0 71 -53 124q-49 49 -140 49q-95 0 -147.5 -48t-52.5 -135q0 -86 52 -136t141 -50q46 0 85 14t64 40q51 51 51 120v22z" />
    <glyph glyph-name="h" unicode="h" horiz-adv-x="696" 
d="M524 0v316q0 72 -34.5 104.5t-111.5 32.5q-41 0 -81.5 -15.5t-69.5 -43.5q-25 -23 -38 -51.5t-13 -59.5v-283h-94v714h94v-292q86 111 226 111q107 0 161.5 -50.5t54.5 -149.5v-333h-94z" />
    <glyph glyph-name="i" unicode="i" horiz-adv-x="258" 
d="M82 0v517h94v-517h-94zM79 612v102h100v-102h-100z" />
    <glyph glyph-name="j" unicode="j" horiz-adv-x="258" 
d="M82 517h94v-542q0 -92 -39 -136t-120 -44q-56 0 -108 18l17 71q42 -12 80 -12q40 0 58 19t18 62v564zM79 612v102h100v-102h-100z" />
    <glyph glyph-name="k" unicode="k" horiz-adv-x="634" 
d="M519 0l-216 299l-127 -93v-206h-94v714h94v-414l297 217h130l-230 -168l257 -349h-111z" />
    <glyph glyph-name="l" unicode="l" horiz-adv-x="258" 
d="M82 0v714h94v-714h-94z" />
    <glyph glyph-name="m" unicode="m" horiz-adv-x="1050" 
d="M878 0v316q0 71 -30 104t-96 33q-73 0 -131 -53q-23 -20 -35 -45.5t-12 -53.5v-301h-94v316q0 71 -30 104t-96 33q-36 0 -69.5 -15t-61.5 -44q-47 -47 -47 -111v-283h-94v517h93v-96q41 57 91 84.5t112 27.5q71 0 117 -28t65 -83q44 57 96 84t120 27q97 0 146.5 -50.5
t49.5 -149.5v-333h-94z" />
    <glyph glyph-name="n" unicode="n" horiz-adv-x="696" 
d="M524 0v316q0 72 -34.5 104.5t-111.5 32.5q-41 0 -81.5 -15.5t-69.5 -43.5q-25 -23 -38 -51.5t-13 -59.5v-283h-94v517h93v-96q85 112 227 112q107 0 161.5 -50.5t54.5 -149.5v-333h-94z" />
    <glyph glyph-name="o" unicode="o" horiz-adv-x="708" 
d="M654 260q0 -81 -36.5 -143.5t-105.5 -97.5t-161 -35q-89 0 -156 32t-104 94t-37 147q0 81 36.5 143.5t105.5 97.5t161 35q89 0 156 -32t104 -94t37 -147zM555 258q0 94 -52.5 146t-147.5 52q-96 0 -149 -51.5t-53 -145.5t52.5 -146t147.5 -52q96 0 149 51.5t53 145.5z
" />
    <glyph glyph-name="p" unicode="p" horiz-adv-x="721" 
d="M82 -194v711h93v-94q34 51 95 80.5t134 29.5q77 0 136.5 -32.5t93 -94t33.5 -144.5q0 -80 -33 -143t-95 -99t-145 -36q-143 0 -218 100v-278h-94zM175 244q0 -76 52 -130q25 -26 61.5 -39.5t79.5 -13.5q98 0 149 51t51 149q0 92 -51 143.5t-142 51.5q-43 0 -82 -15.5
t-67 -43.5q-24 -24 -37.5 -56t-13.5 -65v-32z" />
    <glyph glyph-name="q" unicode="q" horiz-adv-x="721" 
d="M545 -194v287q-35 -51 -95.5 -80t-132.5 -29q-77 0 -136.5 32.5t-93 94t-33.5 144.5q0 80 33 143t95 99t145 36q145 0 221 -104v88h91v-711h-94zM546 273q0 76 -52 130q-25 26 -61.5 39.5t-79.5 13.5q-97 0 -148.5 -51t-51.5 -149q0 -92 50.5 -143.5t142.5 -51.5
q44 0 83 15t66 42q24 24 37.5 56.5t13.5 66.5v32z" />
    <glyph glyph-name="r" unicode="r" horiz-adv-x="448" 
d="M82 0v517h93v-97q38 52 87.5 79t106.5 27q22 0 54 -5l-11 -82q-28 5 -51 5q-42 0 -74 -12t-59 -37q-52 -48 -52 -112v-283h-94z" />
    <glyph glyph-name="s" unicode="s" horiz-adv-x="629" 
d="M477 381q-15 40 -56.5 59.5t-113.5 19.5t-114 -20t-42 -54t29.5 -51t110.5 -29l66 -10q88 -13 134.5 -31.5t66 -47.5t19.5 -75q0 -158 -256 -158q-123 0 -191 41.5t-83 125.5h89q29 -93 183 -93q81 0 125.5 21t44.5 60q0 34 -32 51t-119 30l-61 9q-84 13 -129.5 32
t-64.5 48.5t-19 74.5q0 70 64.5 109.5t178.5 39.5q112 0 172.5 -33t83.5 -108z" />
    <glyph glyph-name="t" unicode="t" horiz-adv-x="438" 
d="M417 9q-60 -20 -128 -20q-85 0 -125 41t-40 130v283h-101v74h101v141h94v-141h184v-74h-184v-291q0 -86 87 -86q48 0 97 16z" />
    <glyph glyph-name="u" unicode="u" horiz-adv-x="685" 
d="M510 0v96q-44 -57 -99.5 -84.5t-125.5 -27.5q-100 0 -153.5 50.5t-53.5 145.5v337h94v-320q0 -68 33.5 -100.5t103.5 -32.5q83 0 149 58q25 23 38 51.5t13 59.5v284h94v-517h-93z" />
    <glyph glyph-name="v" unicode="v" horiz-adv-x="618" 
d="M259 0l-249 517h110l191 -420l192 420h105l-249 -517h-100z" />
    <glyph glyph-name="w" unicode="w" horiz-adv-x="901" 
d="M603 0l-154 409l-152 -409h-98l-187 517h102l138 -411l154 408h94l154 -407l138 410h97l-187 -517h-99z" />
    <glyph glyph-name="x" unicode="x" horiz-adv-x="615" 
d="M491 0l-186 210l-186 -210h-109l240 270l-222 247h114l164 -184l164 184h109l-219 -242l245 -275h-114z" />
    <glyph glyph-name="y" unicode="y" horiz-adv-x="619" 
d="M270 13l-260 504h110l201 -406l183 406h105l-274 -575q-39 -82 -81.5 -114.5t-109.5 -32.5q-27 0 -48 4.5t-46 14.5l17 72q33 -12 66 -12q39 0 65.5 19.5t45.5 61.5z" />
    <glyph glyph-name="z" unicode="z" horiz-adv-x="584" 
d="M34 0v70l370 371h-362v76h487v-70l-370 -371h392l-13 -76h-504z" />
    <glyph glyph-name="braceleft" unicode="{" horiz-adv-x="357" 
d="M259 -124q-73 0 -109 31t-36 94v192q0 73 -82 73h-8v78h8q82 0 82 73v192q0 63 36 94t109 31h82v-80h-66q-65 0 -65 -51v-201q0 -42 -19.5 -65.5t-60.5 -31.5q41 -8 60.5 -31.5t19.5 -65.5v-201q0 -51 65 -51h66v-80h-82z" />
    <glyph glyph-name="bar" unicode="|" horiz-adv-x="281" 
d="M96 -124v858h89v-858h-89z" />
    <glyph glyph-name="braceright" unicode="}" horiz-adv-x="357" 
d="M243 1q0 -63 -36 -94t-109 -31h-82v80h66q65 0 65 51v201q0 42 19.5 65.5t60.5 31.5q-41 8 -60.5 31.5t-19.5 65.5v201q0 51 -65 51h-66v80h82q73 0 109 -31t36 -94v-192q0 -73 82 -73h8v-78h-8q-82 0 -82 -73v-192z" />
    <glyph glyph-name="asciitilde" unicode="~" horiz-adv-x="700" 
d="M658 423q0 -89 -43 -135t-125 -46q-38 0 -75 14t-83 46q-43 30 -69.5 41t-54.5 11q-40 0 -61 -25t-21 -73h-84q0 89 42.5 135t125.5 46q38 0 75 -14t83 -46q43 -30 69.5 -41t54.5 -11q40 0 61 25t21 73h84z" />
    <glyph glyph-name="uni00A0" unicode="&#xa0;" horiz-adv-x="280" 
 />
    <glyph glyph-name="exclamdown" unicode="&#xa1;" horiz-adv-x="266" 
d="M84 -197l3 509h92l3 -509h-98zM80 398v119h106v-119h-106z" />
    <glyph glyph-name="cent" unicode="&#xa2;" horiz-adv-x="700" 
d="M328 -16v90q-81 5 -140 38.5t-90.5 93t-31.5 140.5q0 117 70 190.5t192 84.5v87h73v-87q191 -14 227 -171l-93 -15q-13 51 -46 78.5t-88 33.5v-399q122 10 144 117h93q-14 -86 -74.5 -134.5t-162.5 -56.5v-90h-73zM328 545q-79 -8 -122 -59t-43 -138q0 -89 42 -139.5
t123 -58.5v395z" />
    <glyph glyph-name="sterling" unicode="&#xa3;" horiz-adv-x="700" 
d="M90 0v77q40 31 57 70.5t17 100.5q0 27 -5 58h-95v80h81q-13 68 -13 109q0 99 70.5 157t191.5 58q106 0 166.5 -39.5t81.5 -122.5l-85 -16q-20 53 -55.5 74t-104.5 21q-80 0 -125.5 -35.5t-45.5 -96.5q0 -47 13 -109h282v-80h-268q5 -25 5 -53q0 -54 -15 -94t-49 -74h463
l-16 -85h-551z" />
    <glyph glyph-name="currency" unicode="&#xa4;" horiz-adv-x="700" 
d="M546 66l-64 67q-57 -36 -132 -36t-132 36l-64 -67l-60 57l63 66q-47 68 -47 158t47 158l-63 66l60 57l64 -67q57 36 132 36t132 -36l64 67l60 -57l-63 -66q47 -68 47 -158t-47 -158l63 -66zM350 172q73 0 113 45.5t40 129.5t-40 129.5t-113 45.5t-113 -45.5t-40 -129.5
t40 -129.5t113 -45.5z" />
    <glyph glyph-name="yen" unicode="&#xa5;" horiz-adv-x="700" 
d="M396 155v-155h-92v155h-230v71h230v73l-13 18h-217v71h164l-221 303h105l229 -320l231 320h101l-221 -303h164v-71h-217l-13 -18v-73h230v-71h-230z" />
    <glyph glyph-name="brokenbar" unicode="&#xa6;" horiz-adv-x="281" 
d="M96 -124v353h89v-353h-89zM96 398v336h89v-336h-89z" />
    <glyph glyph-name="section" unicode="&#xa7;" horiz-adv-x="617" 
d="M246 149q-110 22 -156.5 60t-46.5 105q0 51 32.5 85.5t94.5 48.5q-66 20 -94.5 50.5t-28.5 80.5q0 72 69 112.5t191 40.5q110 0 175.5 -35.5t87.5 -108.5l-85 -14q-20 47 -61 66.5t-118 19.5q-172 0 -172 -81q0 -34 30 -55t98 -34l115 -23q106 -21 153 -58.5t47 -100.5
q0 -54 -32 -89t-94 -50q121 -34 121 -132q0 -77 -64.5 -117.5t-188.5 -40.5q-128 0 -197.5 43.5t-85.5 133.5h91q12 -55 57.5 -80t132.5 -25q85 0 126 20.5t41 63.5q0 36 -28.5 56.5t-97.5 34.5zM317 209q30 -6 53 -6q56 0 88 25.5t32 70.5q0 37 -30.5 59.5t-101.5 37.5
l-56 12q-30 6 -53 6q-56 0 -88 -25.5t-32 -70.5q0 -37 30.5 -59.5t101.5 -37.5z" />
    <glyph glyph-name="dieresis" unicode="&#xa8;" horiz-adv-x="696" 
d="M192 612v102h93v-102h-93zM411 612v102h93v-102h-93z" />
    <glyph glyph-name="copyright" unicode="&#xa9;" horiz-adv-x="928" 
d="M870 357q0 -105 -49 -185.5t-141 -126t-216 -45.5q-120 0 -211.5 43t-143 124t-51.5 190q0 105 49 185.5t141 126t216 45.5q120 0 211.5 -43t143 -124t51.5 -190zM790 357q0 86 -38.5 150.5t-112 100t-175.5 35.5q-98 0 -171.5 -33.5t-114 -98t-40.5 -154.5
q0 -86 38.5 -150.5t112 -100t175.5 -35.5q98 0 171.5 33.5t114 98t40.5 154.5zM668 298q-13 -68 -63.5 -104t-133.5 -36q-98 0 -155.5 53t-57.5 145q0 58 26 103.5t75 71.5t114 26q153 0 189 -125l-82 -13q-13 38 -38 54t-72 16q-60 0 -93.5 -35t-33.5 -96q0 -64 33 -98
t96 -34q50 0 77 17.5t37 54.5h82z" />
    <glyph glyph-name="ordfeminine" unicode="&#xaa;" horiz-adv-x="512" 
d="M369 342v59q-24 -32 -67 -50t-96 -18q-79 0 -121.5 29.5t-42.5 84.5q0 61 49.5 91t153.5 33l121 3v16q-1 43 -27.5 62t-84.5 19q-56 0 -81.5 -11t-38.5 -41l-69 8q14 56 59.5 80.5t133.5 24.5q94 0 139 -35.5t45 -109.5v-245h-73zM366 521l-122 -3q-65 -2 -93.5 -17
t-28.5 -46q0 -61 97 -61q71 0 103 23q24 16 34 33t10 41v30z" />
    <glyph glyph-name="guillemotleft" unicode="&#xab;" horiz-adv-x="584" 
d="M208 33l-170 223l170 223h99l-161 -222l163 -224h-101zM441 33l-170 223l170 223h99l-161 -222l163 -224h-101z" />
    <glyph glyph-name="logicalnot" unicode="&#xac;" horiz-adv-x="700" 
d="M525 165v188h-465v80h551v-268h-86z" />
    <glyph glyph-name="uni00AD" unicode="&#xad;" horiz-adv-x="468" 
d="M52 248v90h364v-90h-364z" />
    <glyph glyph-name="registered" unicode="&#xae;" horiz-adv-x="586" 
d="M543 516q0 -98 -68.5 -157t-181.5 -59t-181.5 59t-68.5 157t68.5 157t181.5 59t181.5 -59t68.5 -157zM488 516q0 78 -52 122.5t-143 44.5t-143 -44.5t-52 -122.5t52 -122.5t143 -44.5t143 44.5t52 122.5zM357 415l-47 75h-60v-75h-51v206h107q47 0 70 -15.5t23 -47.5
q0 -22 -10 -35.5t-32 -21.5l55 -86h-55zM302 530q25 0 35.5 6t10.5 20t-11.5 19.5t-38.5 5.5h-48v-51h52z" />
    <glyph glyph-name="macron" unicode="&#xaf;" horiz-adv-x="696" 
d="M189 623v73h318v-73h-318z" />
    <glyph glyph-name="degree" unicode="&#xb0;" horiz-adv-x="390" 
d="M358 554q0 -71 -45.5 -115.5t-117.5 -44.5t-117.5 44.5t-45.5 115.5t45.5 115.5t117.5 44.5t117.5 -44.5t45.5 -115.5zM195 463q39 0 63 25.5t24 65.5t-24 65.5t-63 25.5t-63 -25.5t-24 -65.5t24 -65.5t63 -25.5z" />
    <glyph glyph-name="plusminus" unicode="&#xb1;" horiz-adv-x="700" 
d="M92 0v80h215v220h-230v80h230v232h86v-232h230v-80h-230v-220h215v-80h-516z" />
    <glyph glyph-name="uni00B2" unicode="&#xb2;" 
d="M69 406v58q48 31 140 97q66 48 89.5 68t31 33.5t7.5 31.5q0 32 -22.5 49t-64.5 17q-48 0 -74.5 -17.5t-37.5 -57.5l-71 11q16 62 64 94.5t123 32.5q74 0 119 -33t45 -87q0 -32 -13.5 -54.5t-46 -50t-100.5 -75.5q-47 -33 -82 -54h251l-12 -63h-346z" />
    <glyph glyph-name="uni00B3" unicode="&#xb3;" 
d="M197 583v63h61q40 0 61.5 15.5t21.5 44.5q0 55 -92 55q-45 0 -69.5 -15t-36.5 -49l-70 11q12 53 59.5 84t116.5 31q79 0 123.5 -29t44.5 -81q0 -32 -18.5 -54t-57.5 -38q87 -25 87 -98q0 -62 -46 -96t-131 -34q-80 0 -129.5 37t-52.5 99h70q9 -40 34.5 -57t75.5 -17
t76.5 17t26.5 50q0 32 -22.5 46.5t-71.5 14.5h-61z" />
    <glyph glyph-name="acute" unicode="&#xb4;" horiz-adv-x="696" 
d="M314 591h-95l141 143h117z" />
    <glyph glyph-name="mu" unicode="&#xb5;" horiz-adv-x="689" 
d="M514 0v96q-45 -58 -97.5 -84.5t-121.5 -26.5q-84 0 -119 38v-217h-94v711h94v-320q0 -68 33.5 -100t103.5 -32q84 0 149 57q25 23 38 51.5t13 59.5v284h94v-517h-93z" />
    <glyph glyph-name="paragraph" unicode="&#xb6;" horiz-adv-x="734" 
d="M544 -139v772h-148v-772h-94v428q-140 5 -208.5 57.5t-68.5 154.5q0 111 80 162t254 51h279v-853h-94z" />
    <glyph glyph-name="periodcentered" unicode="&#xb7;" horiz-adv-x="266" 
d="M80 314v119h106v-119h-106z" />
    <glyph glyph-name="cedilla" unicode="&#xb8;" horiz-adv-x="696" 
d="M235 -140q49 -10 83 -10q31 0 48 7.5t17 21.5q0 16 -19 23t-66 7h-25l41 103l58 -12l-18 -47q107 -11 107 -80q0 -39 -34.5 -60t-98.5 -21q-65 0 -93 11v57z" />
    <glyph glyph-name="uni00B9" unicode="&#xb9;" 
d="M256 406v320l-126 -72l-31 56l168 100h69v-404h-80z" />
    <glyph glyph-name="ordmasculine" unicode="&#xba;" horiz-adv-x="542" 
d="M493 532q0 -92 -61 -147.5t-163 -55.5q-103 0 -161.5 53.5t-58.5 146.5q0 92 61 147.5t163 55.5q103 0 161.5 -53.5t58.5 -146.5zM410 531q0 62 -36.5 97t-101.5 35q-67 0 -103.5 -35t-36.5 -98q0 -62 36.5 -97t101.5 -35q67 0 103.5 35t36.5 98z" />
    <glyph glyph-name="guillemotright" unicode="&#xbb;" horiz-adv-x="584" 
d="M44 33l161 222l-163 224h101l170 -223l-170 -223h-99zM277 33l161 222l-163 224h101l170 -223l-170 -223h-99z" />
    <glyph glyph-name="onequarter" unicode="&#xbc;" horiz-adv-x="1091" 
d="M302 0l427 691h92l-427 -691h-92zM909 0v93h-256v51l254 260h72v-251h77l-11 -60h-66v-93h-70zM909 326l-173 -173h173v173zM256 287v320l-126 -72l-31 56l168 100h69v-404h-80z" />
    <glyph glyph-name="onehalf" unicode="&#xbd;" horiz-adv-x="1091" 
d="M276 0l427 691h92l-427 -691h-92zM668 0v58q48 31 140 97q66 48 89.5 68t31 33.5t7.5 31.5q0 32 -22.5 49t-64.5 17q-48 0 -74.5 -17.5t-37.5 -57.5l-71 11q16 62 64 94.5t123 32.5q74 0 119 -33t45 -87q0 -32 -13.5 -54.5t-46 -50t-100.5 -75.5q-47 -33 -82 -54h251
l-12 -63h-346zM256 287v320l-126 -72l-31 56l168 100h69v-404h-80z" />
    <glyph glyph-name="threequarters" unicode="&#xbe;" horiz-adv-x="1091" 
d="M323 0l427 691h92l-427 -691h-92zM909 0v93h-256v51l254 260h72v-251h77l-11 -60h-66v-93h-70zM909 326l-173 -173h173v173zM197 464v63h61q40 0 61.5 15.5t21.5 44.5q0 55 -92 55q-45 0 -69.5 -15t-36.5 -49l-70 11q12 53 59.5 84t116.5 31q79 0 123.5 -29t44.5 -81
q0 -32 -18.5 -54t-57.5 -38q87 -25 87 -98q0 -62 -46 -96t-131 -34q-80 0 -129.5 37t-52.5 99h70q9 -40 34.5 -57t75.5 -17t76.5 17t26.5 50q0 32 -22.5 46.5t-71.5 14.5h-61z" />
    <glyph glyph-name="questiondown" unicode="&#xbf;" horiz-adv-x="630" 
d="M594 -22q-22 -92 -93 -139.5t-188 -47.5q-119 0 -186 48.5t-67 134.5q0 57 25.5 98t92.5 92q64 49 83 74t19 60v14h93v-13q0 -50 -25 -87t-94 -89q-57 -43 -76 -70t-19 -65q0 -56 40.5 -86.5t114.5 -30.5q82 0 127 28t65 92zM274 398v119h106v-119h-106z" />
    <glyph glyph-name="Agrave" unicode="&#xc0;" horiz-adv-x="826" 
d="M700 0l-94 197h-391l-93 -197h-106l346 714h102l346 -714h-110zM411 608l-158 -329h316zM388 773l-167 135h121l144 -135h-98z" />
    <glyph glyph-name="Aacute" unicode="&#xc1;" horiz-adv-x="826" 
d="M700 0l-94 197h-391l-93 -197h-106l346 714h102l346 -714h-110zM411 608l-158 -329h316zM432 773h-98l144 135h121z" />
    <glyph glyph-name="Acircumflex" unicode="&#xc2;" horiz-adv-x="826" 
d="M700 0l-94 197h-391l-93 -197h-106l346 714h102l346 -714h-110zM411 608l-158 -329h316zM506 773l-96 77l-96 -77h-91l141 135h92l141 -135h-91z" />
    <glyph glyph-name="Atilde" unicode="&#xc3;" horiz-adv-x="826" 
d="M700 0l-94 197h-391l-93 -197h-106l346 714h102l346 -714h-110zM411 608l-158 -329h316zM625 895q0 -60 -31.5 -91t-91.5 -31q-45 0 -94 29q-30 18 -47.5 24.5t-34.5 6.5q-31 0 -44 -13t-13 -42h-73q0 60 31.5 91t91.5 31q45 0 94 -29q30 -18 47.5 -24.5t34.5 -6.5
q31 0 44 13t13 42h73z" />
    <glyph glyph-name="Adieresis" unicode="&#xc4;" horiz-adv-x="826" 
d="M700 0l-94 197h-391l-93 -197h-106l346 714h102l346 -714h-110zM411 608l-158 -329h316zM248 784v105h98v-105h-98zM474 784v105h98v-105h-98z" />
    <glyph glyph-name="Aring" unicode="&#xc5;" horiz-adv-x="826" 
d="M700 0l-94 197h-391l-93 -197h-106l334 688q-29 12 -45 35.5t-16 54.5q0 47 34.5 75.5t89.5 28.5t89.5 -28.5t34.5 -75.5q0 -31 -16 -54.5t-45 -35.5l334 -688h-110zM411 608l-158 -329h316zM475 778q0 54 -62 54t-62 -54q0 -53 62 -53t62 53z" />
    <glyph glyph-name="AE" unicode="&#xc6;" horiz-adv-x="1269" 
d="M661 0v234h-361l-170 -234h-114l526 714h658v-87h-443v-215h420v-87h-420v-238h464l-17 -87h-543zM661 627h-75l-227 -311h302v311z" />
    <glyph glyph-name="Ccedilla" unicode="&#xc7;" horiz-adv-x="852" 
d="M798 235q-21 -123 -112 -188t-243 -65q-115 0 -201.5 44.5t-135 129.5t-48.5 201q0 109 46 194t133 133t203 48q142 0 228 -58.5t119 -176.5l-97 -15q-31 86 -89.5 124t-160.5 38q-83 0 -146 -34t-98 -99t-35 -154q0 -87 33 -151.5t97 -100t152 -35.5q110 0 171.5 40
t81.5 125h102zM326 -152q50 -10 86 -10q32 0 49.5 8.5t17.5 24.5q0 18 -20 25t-70 7h-24l44 110l60 -13l-19 -51q110 -11 110 -85q0 -41 -35.5 -62.5t-102.5 -21.5q-63 0 -96 11v57z" />
    <glyph glyph-name="Egrave" unicode="&#xc8;" horiz-adv-x="733" 
d="M96 0v714h568v-87h-469v-215h446v-87h-446v-238h490l-17 -87h-572zM358 773l-167 135h121l144 -135h-98z" />
    <glyph glyph-name="Eacute" unicode="&#xc9;" horiz-adv-x="733" 
d="M96 0v714h568v-87h-469v-215h446v-87h-446v-238h490l-17 -87h-572zM402 773h-98l144 135h121z" />
    <glyph glyph-name="Ecircumflex" unicode="&#xca;" horiz-adv-x="733" 
d="M96 0v714h568v-87h-469v-215h446v-87h-446v-238h490l-17 -87h-572zM476 773l-96 77l-96 -77h-91l141 135h92l141 -135h-91z" />
    <glyph glyph-name="Edieresis" unicode="&#xcb;" horiz-adv-x="733" 
d="M96 0v714h568v-87h-469v-215h446v-87h-446v-238h490l-17 -87h-572zM218 784v105h98v-105h-98zM444 784v105h98v-105h-98z" />
    <glyph glyph-name="Igrave" unicode="&#xcc;" horiz-adv-x="291" 
d="M96 0v714h99v-714h-99zM124 773l-167 135h121l144 -135h-98z" />
    <glyph glyph-name="Iacute" unicode="&#xcd;" horiz-adv-x="291" 
d="M96 0v714h99v-714h-99zM168 773h-98l144 135h121z" />
    <glyph glyph-name="Icircumflex" unicode="&#xce;" horiz-adv-x="291" 
d="M96 0v714h99v-714h-99zM242 773l-96 77l-96 -77h-91l141 135h92l141 -135h-91z" />
    <glyph glyph-name="Idieresis" unicode="&#xcf;" horiz-adv-x="291" 
d="M96 0v714h99v-714h-99zM-16 784v105h98v-105h-98zM210 784v105h98v-105h-98z" />
    <glyph glyph-name="Eth" unicode="&#xd0;" horiz-adv-x="885" 
d="M124 0v328h-102v82h102v304h302q194 0 297.5 -92.5t103.5 -264.5t-111 -264.5t-316 -92.5h-276zM223 328v-241h181q158 0 239 68.5t81 201.5q0 270 -298 270h-203v-217h234v-82h-234z" />
    <glyph glyph-name="Ntilde" unicode="&#xd1;" horiz-adv-x="860" 
d="M668 0l-475 574v-574h-97v714h96l475 -574v574h97v-714h-96zM645 895q0 -60 -31.5 -91t-91.5 -31q-45 0 -94 29q-30 18 -47.5 24.5t-34.5 6.5q-31 0 -44 -13t-13 -42h-73q0 60 31.5 91t91.5 31q45 0 94 -29q30 -18 47.5 -24.5t34.5 -6.5q31 0 44 13t13 42h73z" />
    <glyph glyph-name="Ograve" unicode="&#xd2;" horiz-adv-x="914" 
d="M856 357q0 -111 -48 -195.5t-138.5 -132t-212.5 -47.5q-118 0 -208 44.5t-140.5 129.5t-50.5 201q0 111 48 195.5t138.5 132t212.5 47.5q118 0 208 -44.5t140.5 -129.5t50.5 -201zM753 357q0 136 -78 211.5t-218 75.5q-139 0 -217.5 -76t-78.5 -211q0 -136 78 -211.5
t218 -75.5q139 0 217.5 76t78.5 211zM435 773l-167 135h121l144 -135h-98z" />
    <glyph glyph-name="Oacute" unicode="&#xd3;" horiz-adv-x="914" 
d="M856 357q0 -111 -48 -195.5t-138.5 -132t-212.5 -47.5q-118 0 -208 44.5t-140.5 129.5t-50.5 201q0 111 48 195.5t138.5 132t212.5 47.5q118 0 208 -44.5t140.5 -129.5t50.5 -201zM753 357q0 136 -78 211.5t-218 75.5q-139 0 -217.5 -76t-78.5 -211q0 -136 78 -211.5
t218 -75.5q139 0 217.5 76t78.5 211zM479 773h-98l144 135h121z" />
    <glyph glyph-name="Ocircumflex" unicode="&#xd4;" horiz-adv-x="914" 
d="M856 357q0 -111 -48 -195.5t-138.5 -132t-212.5 -47.5q-118 0 -208 44.5t-140.5 129.5t-50.5 201q0 111 48 195.5t138.5 132t212.5 47.5q118 0 208 -44.5t140.5 -129.5t50.5 -201zM753 357q0 136 -78 211.5t-218 75.5q-139 0 -217.5 -76t-78.5 -211q0 -136 78 -211.5
t218 -75.5q139 0 217.5 76t78.5 211zM553 773l-96 77l-96 -77h-91l141 135h92l141 -135h-91z" />
    <glyph glyph-name="Otilde" unicode="&#xd5;" horiz-adv-x="914" 
d="M856 357q0 -111 -48 -195.5t-138.5 -132t-212.5 -47.5q-118 0 -208 44.5t-140.5 129.5t-50.5 201q0 111 48 195.5t138.5 132t212.5 47.5q118 0 208 -44.5t140.5 -129.5t50.5 -201zM753 357q0 136 -78 211.5t-218 75.5q-139 0 -217.5 -76t-78.5 -211q0 -136 78 -211.5
t218 -75.5q139 0 217.5 76t78.5 211zM672 895q0 -60 -31.5 -91t-91.5 -31q-45 0 -94 29q-30 18 -47.5 24.5t-34.5 6.5q-31 0 -44 -13t-13 -42h-73q0 60 31.5 91t91.5 31q45 0 94 -29q30 -18 47.5 -24.5t34.5 -6.5q31 0 44 13t13 42h73z" />
    <glyph glyph-name="Odieresis" unicode="&#xd6;" horiz-adv-x="914" 
d="M856 357q0 -111 -48 -195.5t-138.5 -132t-212.5 -47.5q-118 0 -208 44.5t-140.5 129.5t-50.5 201q0 111 48 195.5t138.5 132t212.5 47.5q118 0 208 -44.5t140.5 -129.5t50.5 -201zM753 357q0 136 -78 211.5t-218 75.5q-139 0 -217.5 -76t-78.5 -211q0 -136 78 -211.5
t218 -75.5q139 0 217.5 76t78.5 211zM295 784v105h98v-105h-98zM521 784v105h98v-105h-98z" />
    <glyph glyph-name="multiply" unicode="&#xd7;" horiz-adv-x="700" 
d="M350 285l-181 -177l-58 57l181 177l-181 177l58 57l181 -177l181 177l58 -57l-181 -177l181 -177l-58 -57z" />
    <glyph glyph-name="Oslash" unicode="&#xd8;" horiz-adv-x="914" 
d="M116 -7l63 79q-59 50 -90 123t-31 162q0 111 48 195.5t138.5 132t212.5 47.5q121 0 213 -47l67 83l61 -47l-63 -79q59 -50 90 -123t31 -162q0 -111 -48 -195.5t-138.5 -132t-212.5 -47.5q-121 0 -213 47l-67 -83zM612 612q-64 32 -155 32q-139 0 -217.5 -76t-78.5 -211
q0 -136 77 -211zM302 102q64 -32 155 -32q139 0 217.5 76t78.5 211q0 136 -77 211z" />
    <glyph glyph-name="Ugrave" unicode="&#xd9;" horiz-adv-x="836" 
d="M649 714h99v-427q0 -305 -330 -305t-330 305v427h99v-430q0 -109 56.5 -161.5t174.5 -52.5t174.5 52.5t56.5 161.5v430zM396 773l-167 135h121l144 -135h-98z" />
    <glyph glyph-name="Uacute" unicode="&#xda;" horiz-adv-x="836" 
d="M649 714h99v-427q0 -305 -330 -305t-330 305v427h99v-430q0 -109 56.5 -161.5t174.5 -52.5t174.5 52.5t56.5 161.5v430zM440 773h-98l144 135h121z" />
    <glyph glyph-name="Ucircumflex" unicode="&#xdb;" horiz-adv-x="836" 
d="M649 714h99v-427q0 -305 -330 -305t-330 305v427h99v-430q0 -109 56.5 -161.5t174.5 -52.5t174.5 52.5t56.5 161.5v430zM514 773l-96 77l-96 -77h-91l141 135h92l141 -135h-91z" />
    <glyph glyph-name="Udieresis" unicode="&#xdc;" horiz-adv-x="836" 
d="M649 714h99v-427q0 -305 -330 -305t-330 305v427h99v-430q0 -109 56.5 -161.5t174.5 -52.5t174.5 52.5t56.5 161.5v430zM256 784v105h98v-105h-98zM482 784v105h98v-105h-98z" />
    <glyph glyph-name="Yacute" unicode="&#xdd;" horiz-adv-x="745" 
d="M323 0v300l-307 414h119l240 -329l240 329h114l-307 -414v-300h-99zM397 773h-98l144 135h121z" />
    <glyph glyph-name="Thorn" unicode="&#xde;" horiz-adv-x="762" 
d="M195 139v-139h-99v714h99v-128h239q138 0 208 -56t70 -166q0 -114 -72 -169.5t-218 -55.5h-227zM425 226q94 0 139 34.5t45 105.5q0 69 -44 101t-138 32h-232v-273h230z" />
    <glyph glyph-name="germandbls" unicode="&#xdf;" horiz-adv-x="708" 
d="M267 76q21 -7 53 -11t61 -4q93 0 135.5 33.5t42.5 106.5q0 69 -54.5 105t-160.5 36h-69v76h57q163 0 163 124q0 49 -42 76t-116 27q-80 0 -121.5 -32.5t-41.5 -95.5v-517h-94v514q0 97 68 152.5t187 55.5t186.5 -45.5t67.5 -126.5q0 -60 -30 -97.5t-94 -58.5
q88 -15 138.5 -67.5t50.5 -128.5q0 -100 -70.5 -157t-194.5 -57q-77 0 -139 18z" />
    <glyph glyph-name="agrave" unicode="&#xe0;" horiz-adv-x="657" 
d="M490 0v81q-47 -49 -103.5 -71.5t-130.5 -22.5q-101 0 -155 41t-54 117q0 83 71.5 123.5t224.5 44.5l145 4v18q0 64 -37.5 94.5t-116.5 30.5q-74 0 -115.5 -18t-55.5 -57l-86 11q31 137 261 137q122 0 181.5 -49t59.5 -150v-334h-89zM488 250l-144 -4q-104 -3 -152 -25
t-48 -68q0 -44 35 -67t101 -23q47 0 89.5 14.5t73.5 40.5q45 37 45 91v41zM314 591l-163 143h117l141 -143h-95z" />
    <glyph glyph-name="aacute" unicode="&#xe1;" horiz-adv-x="657" 
d="M490 0v81q-47 -49 -103.5 -71.5t-130.5 -22.5q-101 0 -155 41t-54 117q0 83 71.5 123.5t224.5 44.5l145 4v18q0 64 -37.5 94.5t-116.5 30.5q-74 0 -115.5 -18t-55.5 -57l-86 11q31 137 261 137q122 0 181.5 -49t59.5 -150v-334h-89zM488 250l-144 -4q-104 -3 -152 -25
t-48 -68q0 -44 35 -67t101 -23q47 0 89.5 14.5t73.5 40.5q45 37 45 91v41zM354 591h-95l141 143h117z" />
    <glyph glyph-name="acircumflex" unicode="&#xe2;" horiz-adv-x="657" 
d="M490 0v81q-47 -49 -103.5 -71.5t-130.5 -22.5q-101 0 -155 41t-54 117q0 83 71.5 123.5t224.5 44.5l145 4v18q0 64 -37.5 94.5t-116.5 30.5q-74 0 -115.5 -18t-55.5 -57l-86 11q31 137 261 137q122 0 181.5 -49t59.5 -150v-334h-89zM488 250l-144 -4q-104 -3 -152 -25
t-48 -68q0 -44 35 -67t101 -23q47 0 89.5 14.5t73.5 40.5q45 37 45 91v41zM435 591l-101 88l-101 -88h-87l142 143h92l142 -143h-87z" />
    <glyph glyph-name="atilde" unicode="&#xe3;" horiz-adv-x="657" 
d="M490 0v81q-47 -49 -103.5 -71.5t-130.5 -22.5q-101 0 -155 41t-54 117q0 83 71.5 123.5t224.5 44.5l145 4v18q0 64 -37.5 94.5t-116.5 30.5q-74 0 -115.5 -18t-55.5 -57l-86 11q31 137 261 137q122 0 181.5 -49t59.5 -150v-334h-89zM488 250l-144 -4q-104 -3 -152 -25
t-48 -68q0 -44 35 -67t101 -23q47 0 89.5 14.5t73.5 40.5q45 37 45 91v41zM547 721q0 -60 -31 -91.5t-90 -31.5q-25 0 -47.5 7.5t-55.5 26.5q-25 14 -41 20t-32 6q-31 0 -45 -13t-14 -41h-69q0 60 31 91.5t90 31.5q25 0 47.5 -7.5t55.5 -26.5q25 -14 41 -20t32 -6
q31 0 45 13t14 41h69z" />
    <glyph glyph-name="adieresis" unicode="&#xe4;" horiz-adv-x="657" 
d="M490 0v81q-47 -49 -103.5 -71.5t-130.5 -22.5q-101 0 -155 41t-54 117q0 83 71.5 123.5t224.5 44.5l145 4v18q0 64 -37.5 94.5t-116.5 30.5q-74 0 -115.5 -18t-55.5 -57l-86 11q31 137 261 137q122 0 181.5 -49t59.5 -150v-334h-89zM488 250l-144 -4q-104 -3 -152 -25
t-48 -68q0 -44 35 -67t101 -23q47 0 89.5 14.5t73.5 40.5q45 37 45 91v41zM178 612v102h93v-102h-93zM397 612v102h93v-102h-93z" />
    <glyph glyph-name="aring" unicode="&#xe5;" horiz-adv-x="657" 
d="M490 0v81q-47 -49 -103.5 -71.5t-130.5 -22.5q-101 0 -155 41t-54 117q0 83 71.5 123.5t224.5 44.5l145 4v18q0 64 -37.5 94.5t-116.5 30.5q-74 0 -115.5 -18t-55.5 -57l-86 11q31 137 261 137q122 0 181.5 -49t59.5 -150v-334h-89zM488 250l-144 -4q-104 -3 -152 -25
t-48 -68q0 -44 35 -67t101 -23q47 0 89.5 14.5t73.5 40.5q45 37 45 91v41zM456 690q0 -46 -33.5 -73.5t-88.5 -27.5t-88.5 27.5t-33.5 73.5t33 74t89 28t89 -28t33 -74zM397 690q0 52 -63 52t-63 -52q0 -25 16.5 -38t46.5 -13t46.5 13t16.5 38z" />
    <glyph glyph-name="ae" unicode="&#xe6;" horiz-adv-x="1088" 
d="M572 232q3 -80 55 -127t138 -47q137 0 171 87h90q-21 -80 -88 -120.5t-177 -40.5q-84 0 -145.5 30t-95.5 87q-21 -35 -63 -64q-40 -26 -88 -38t-113 -12q-101 0 -155 41t-54 117q0 83 71.5 123.5t224.5 44.5l139 4v21q0 62 -36 92t-112 30q-74 0 -115.5 -18t-55.5 -57
l-86 11q31 137 261 137q77 0 129 -24.5t75 -71.5q37 47 93.5 71.5t127.5 24.5q127 0 199 -68.5t72 -191.5v-41h-462zM482 250l-138 -4q-104 -3 -152 -25t-48 -68q0 -44 35 -67t101 -23q96 0 159 55q43 38 43 91v41zM942 303q-1 74 -48 115.5t-132 41.5q-76 0 -127 -43
t-60 -114h367z" />
    <glyph glyph-name="ccedilla" unicode="&#xe7;" horiz-adv-x="658" 
d="M611 176q-16 -93 -84 -142.5t-181 -49.5q-137 0 -214.5 72.5t-77.5 200.5q0 82 35.5 144t102 97t157.5 35q103 0 167.5 -44t84.5 -128l-93 -15q-31 110 -162 110q-91 0 -142 -52t-51 -145q0 -96 50 -147t145 -51q145 0 170 115h93zM230 -140q49 -10 83 -10q31 0 48 7.5
t17 21.5q0 16 -19 23t-66 7h-25l41 103l58 -12l-18 -47q107 -11 107 -80q0 -39 -34.5 -60t-98.5 -21q-65 0 -93 11v57z" />
    <glyph glyph-name="egrave" unicode="&#xe8;" horiz-adv-x="670" 
d="M148 232q2 -80 53.5 -127t138.5 -47q145 0 178 87h90q-42 -161 -272 -161q-132 0 -207 72t-75 198q0 81 34.5 144t99.5 99t151 36q131 0 204 -68.5t73 -191.5v-41h-468zM524 303q-1 75 -49 116t-137 41q-77 0 -128 -42t-60 -115h374zM324 591l-163 143h117l141 -143h-95z
" />
    <glyph glyph-name="eacute" unicode="&#xe9;" horiz-adv-x="670" 
d="M148 232q2 -80 53.5 -127t138.5 -47q145 0 178 87h90q-42 -161 -272 -161q-132 0 -207 72t-75 198q0 81 34.5 144t99.5 99t151 36q131 0 204 -68.5t73 -191.5v-41h-468zM524 303q-1 75 -49 116t-137 41q-77 0 -128 -42t-60 -115h374zM364 591h-95l141 143h117z" />
    <glyph glyph-name="ecircumflex" unicode="&#xea;" horiz-adv-x="670" 
d="M148 232q2 -80 53.5 -127t138.5 -47q145 0 178 87h90q-42 -161 -272 -161q-132 0 -207 72t-75 198q0 81 34.5 144t99.5 99t151 36q131 0 204 -68.5t73 -191.5v-41h-468zM524 303q-1 75 -49 116t-137 41q-77 0 -128 -42t-60 -115h374zM445 591l-101 88l-101 -88h-87
l142 143h92l142 -143h-87z" />
    <glyph glyph-name="edieresis" unicode="&#xeb;" horiz-adv-x="670" 
d="M148 232q2 -80 53.5 -127t138.5 -47q145 0 178 87h90q-42 -161 -272 -161q-132 0 -207 72t-75 198q0 81 34.5 144t99.5 99t151 36q131 0 204 -68.5t73 -191.5v-41h-468zM524 303q-1 75 -49 116t-137 41q-77 0 -128 -42t-60 -115h374zM188 612v102h93v-102h-93zM407 612
v102h93v-102h-93z" />
    <glyph glyph-name="igrave" unicode="&#xec;" horiz-adv-x="258" 
d="M82 0v517h94v-517h-94zM109 591l-163 143h117l141 -143h-95z" />
    <glyph glyph-name="iacute" unicode="&#xed;" horiz-adv-x="258" 
d="M82 0v517h94v-517h-94zM149 591h-95l141 143h117z" />
    <glyph glyph-name="icircumflex" unicode="&#xee;" horiz-adv-x="258" 
d="M82 0v517h94v-517h-94zM230 591l-101 88l-101 -88h-87l142 143h92l142 -143h-87z" />
    <glyph glyph-name="idieresis" unicode="&#xef;" horiz-adv-x="258" 
d="M82 0v517h94v-517h-94zM-27 612v102h93v-102h-93zM192 612v102h93v-102h-93z" />
    <glyph glyph-name="eth" unicode="&#xf0;" horiz-adv-x="707" 
d="M426 672q112 -54 169.5 -153.5t57.5 -240.5q0 -89 -35.5 -155t-103.5 -102.5t-162 -36.5q-89 0 -156 30t-104.5 87t-37.5 135q0 73 35.5 130.5t102 91t154.5 33.5q62 0 107 -15.5t89 -51.5q-37 132 -174 191l-94 -81l-44 45l70 58q-62 16 -149 22l10 73q65 -4 113 -12
t89 -21l78 67l44 -45zM554 253q0 73 -55 117t-147 44t-146 -47.5t-54 -128.5q0 -82 54 -129.5t147 -47.5q90 0 145.5 49t55.5 129v14z" />
    <glyph glyph-name="ntilde" unicode="&#xf1;" horiz-adv-x="696" 
d="M524 0v316q0 72 -34.5 104.5t-111.5 32.5q-41 0 -81.5 -15.5t-69.5 -43.5q-25 -23 -38 -51.5t-13 -59.5v-283h-94v517h93v-96q85 112 227 112q107 0 161.5 -50.5t54.5 -149.5v-333h-94zM568 721q0 -60 -31 -91.5t-90 -31.5q-25 0 -47.5 7.5t-55.5 26.5q-25 14 -41 20
t-32 6q-31 0 -45 -13t-14 -41h-69q0 60 31 91.5t90 31.5q25 0 47.5 -7.5t55.5 -26.5q25 -14 41 -20t32 -6q31 0 45 13t14 41h69z" />
    <glyph glyph-name="ograve" unicode="&#xf2;" horiz-adv-x="708" 
d="M654 260q0 -81 -36.5 -143.5t-105.5 -97.5t-161 -35q-89 0 -156 32t-104 94t-37 147q0 81 36.5 143.5t105.5 97.5t161 35q89 0 156 -32t104 -94t37 -147zM555 258q0 94 -52.5 146t-147.5 52q-96 0 -149 -51.5t-53 -145.5t52.5 -146t147.5 -52q96 0 149 51.5t53 145.5z
M334 591l-163 143h117l141 -143h-95z" />
    <glyph glyph-name="oacute" unicode="&#xf3;" horiz-adv-x="708" 
d="M654 260q0 -81 -36.5 -143.5t-105.5 -97.5t-161 -35q-89 0 -156 32t-104 94t-37 147q0 81 36.5 143.5t105.5 97.5t161 35q89 0 156 -32t104 -94t37 -147zM555 258q0 94 -52.5 146t-147.5 52q-96 0 -149 -51.5t-53 -145.5t52.5 -146t147.5 -52q96 0 149 51.5t53 145.5z
M374 591h-95l141 143h117z" />
    <glyph glyph-name="ocircumflex" unicode="&#xf4;" horiz-adv-x="708" 
d="M654 260q0 -81 -36.5 -143.5t-105.5 -97.5t-161 -35q-89 0 -156 32t-104 94t-37 147q0 81 36.5 143.5t105.5 97.5t161 35q89 0 156 -32t104 -94t37 -147zM555 258q0 94 -52.5 146t-147.5 52q-96 0 -149 -51.5t-53 -145.5t52.5 -146t147.5 -52q96 0 149 51.5t53 145.5z
M455 591l-101 88l-101 -88h-87l142 143h92l142 -143h-87z" />
    <glyph glyph-name="otilde" unicode="&#xf5;" horiz-adv-x="708" 
d="M654 260q0 -81 -36.5 -143.5t-105.5 -97.5t-161 -35q-89 0 -156 32t-104 94t-37 147q0 81 36.5 143.5t105.5 97.5t161 35q89 0 156 -32t104 -94t37 -147zM555 258q0 94 -52.5 146t-147.5 52q-96 0 -149 -51.5t-53 -145.5t52.5 -146t147.5 -52q96 0 149 51.5t53 145.5z
M567 721q0 -60 -31 -91.5t-90 -31.5q-25 0 -47.5 7.5t-55.5 26.5q-25 14 -41 20t-32 6q-31 0 -45 -13t-14 -41h-69q0 60 31 91.5t90 31.5q25 0 47.5 -7.5t55.5 -26.5q25 -14 41 -20t32 -6q31 0 45 13t14 41h69z" />
    <glyph glyph-name="odieresis" unicode="&#xf6;" horiz-adv-x="708" 
d="M654 260q0 -81 -36.5 -143.5t-105.5 -97.5t-161 -35q-89 0 -156 32t-104 94t-37 147q0 81 36.5 143.5t105.5 97.5t161 35q89 0 156 -32t104 -94t37 -147zM555 258q0 94 -52.5 146t-147.5 52q-96 0 -149 -51.5t-53 -145.5t52.5 -146t147.5 -52q96 0 149 51.5t53 145.5z
M198 612v102h93v-102h-93zM417 612v102h93v-102h-93z" />
    <glyph glyph-name="divide" unicode="&#xf7;" horiz-adv-x="700" 
d="M77 300v80h546v-80h-546zM300 104v109h100v-109h-100zM300 467v109h100v-109h-100z" />
    <glyph glyph-name="oslash" unicode="&#xf8;" horiz-adv-x="708" 
d="M81 -12l56 66q-40 36 -61.5 88t-21.5 115q0 81 36.5 143.5t105.5 97.5t161 35q87 0 155 -31l60 72l55 -45l-56 -66q40 -36 61.5 -88t21.5 -115q0 -81 -36.5 -143.5t-105.5 -97.5t-161 -35q-87 0 -155 31l-60 -72zM457 436q-46 20 -102 20q-96 0 -149 -51.5t-53 -145.5
q0 -85 42 -135zM251 81q46 -20 102 -20q96 0 149 51.5t53 145.5q0 86 -42 135z" />
    <glyph glyph-name="ugrave" unicode="&#xf9;" horiz-adv-x="685" 
d="M510 0v96q-44 -57 -99.5 -84.5t-125.5 -27.5q-100 0 -153.5 50.5t-53.5 145.5v337h94v-320q0 -68 33.5 -100.5t103.5 -32.5q83 0 149 58q25 23 38 51.5t13 59.5v284h94v-517h-93zM321 591l-163 143h117l141 -143h-95z" />
    <glyph glyph-name="uacute" unicode="&#xfa;" horiz-adv-x="685" 
d="M510 0v96q-44 -57 -99.5 -84.5t-125.5 -27.5q-100 0 -153.5 50.5t-53.5 145.5v337h94v-320q0 -68 33.5 -100.5t103.5 -32.5q83 0 149 58q25 23 38 51.5t13 59.5v284h94v-517h-93zM361 591h-95l141 143h117z" />
    <glyph glyph-name="ucircumflex" unicode="&#xfb;" horiz-adv-x="685" 
d="M510 0v96q-44 -57 -99.5 -84.5t-125.5 -27.5q-100 0 -153.5 50.5t-53.5 145.5v337h94v-320q0 -68 33.5 -100.5t103.5 -32.5q83 0 149 58q25 23 38 51.5t13 59.5v284h94v-517h-93zM442 591l-101 88l-101 -88h-87l142 143h92l142 -143h-87z" />
    <glyph glyph-name="udieresis" unicode="&#xfc;" horiz-adv-x="685" 
d="M510 0v96q-44 -57 -99.5 -84.5t-125.5 -27.5q-100 0 -153.5 50.5t-53.5 145.5v337h94v-320q0 -68 33.5 -100.5t103.5 -32.5q83 0 149 58q25 23 38 51.5t13 59.5v284h94v-517h-93zM185 612v102h93v-102h-93zM404 612v102h93v-102h-93z" />
    <glyph glyph-name="yacute" unicode="&#xfd;" horiz-adv-x="619" 
d="M270 13l-260 504h110l201 -406l183 406h105l-274 -575q-39 -82 -81.5 -114.5t-109.5 -32.5q-27 0 -48 4.5t-46 14.5l17 72q33 -12 66 -12q39 0 65.5 19.5t45.5 61.5zM334 591h-95l141 143h117z" />
    <glyph glyph-name="thorn" unicode="&#xfe;" horiz-adv-x="721" 
d="M82 -194v908h94v-290q34 51 95 80t133 29q77 0 136.5 -32.5t93 -94t33.5 -144.5q0 -80 -33 -143t-95 -99t-145 -36q-143 0 -218 100v-278h-94zM175 244q0 -76 52 -130q25 -26 61.5 -39.5t79.5 -13.5q98 0 149 51t51 149q0 92 -51 143.5t-142 51.5q-43 0 -82 -15.5
t-67 -43.5q-24 -24 -37.5 -56t-13.5 -65v-32z" />
    <glyph glyph-name="ydieresis" unicode="&#xff;" horiz-adv-x="619" 
d="M270 13l-260 504h110l201 -406l183 406h105l-274 -575q-39 -82 -81.5 -114.5t-109.5 -32.5q-27 0 -48 4.5t-46 14.5l17 72q33 -12 66 -12q39 0 65.5 19.5t45.5 61.5zM158 612v102h93v-102h-93zM377 612v102h93v-102h-93z" />
    <glyph glyph-name="Amacron" unicode="&#x100;" horiz-adv-x="826" 
d="M700 0l-94 197h-391l-93 -197h-106l346 714h102l346 -714h-110zM411 608l-158 -329h316zM232 798v74h356v-74h-356z" />
    <glyph glyph-name="amacron" unicode="&#x101;" horiz-adv-x="657" 
d="M490 0v81q-47 -49 -103.5 -71.5t-130.5 -22.5q-101 0 -155 41t-54 117q0 83 71.5 123.5t224.5 44.5l145 4v18q0 64 -37.5 94.5t-116.5 30.5q-74 0 -115.5 -18t-55.5 -57l-86 11q31 137 261 137q122 0 181.5 -49t59.5 -150v-334h-89zM488 250l-144 -4q-104 -3 -152 -25
t-48 -68q0 -44 35 -67t101 -23q47 0 89.5 14.5t73.5 40.5q45 37 45 91v41zM175 623v73h318v-73h-318z" />
    <glyph glyph-name="Abreve" unicode="&#x102;" horiz-adv-x="826" 
d="M700 0l-94 197h-391l-93 -197h-106l346 714h102l346 -714h-110zM411 608l-158 -329h316zM573 910q0 -67 -42 -103t-121 -36t-121 36t-42 103h73q0 -38 23.5 -59t66.5 -21t66.5 21t23.5 59h73z" />
    <glyph glyph-name="abreve" unicode="&#x103;" horiz-adv-x="657" 
d="M490 0v81q-47 -49 -103.5 -71.5t-130.5 -22.5q-101 0 -155 41t-54 117q0 83 71.5 123.5t224.5 44.5l145 4v18q0 64 -37.5 94.5t-116.5 30.5q-74 0 -115.5 -18t-55.5 -57l-86 11q31 137 261 137q122 0 181.5 -49t59.5 -150v-334h-89zM488 250l-144 -4q-104 -3 -152 -25
t-48 -68q0 -44 35 -67t101 -23q47 0 89.5 14.5t73.5 40.5q45 37 45 91v41zM497 730q0 -67 -42.5 -103.5t-120.5 -36.5t-120.5 36.5t-42.5 103.5h71q0 -39 24.5 -60t67.5 -21t67.5 21t24.5 60h71z" />
    <glyph glyph-name="Aogonek" unicode="&#x104;" horiz-adv-x="826" 
d="M700 0l-94 197h-391l-93 -197h-106l346 714h102l346 -714h-110zM411 608l-158 -329h316zM814 -182q-17 -4 -47 -4q-62 0 -93.5 21t-31.5 61q0 64 107 118l59 -14q-82 -46 -82 -88q0 -35 56 -35q16 0 32 3v-62z" />
    <glyph glyph-name="aogonek" unicode="&#x105;" horiz-adv-x="657" 
d="M490 0v81q-47 -49 -103.5 -71.5t-130.5 -22.5q-101 0 -155 41t-54 117q0 83 71.5 123.5t224.5 44.5l145 4v18q0 64 -37.5 94.5t-116.5 30.5q-74 0 -115.5 -18t-55.5 -57l-86 11q31 137 261 137q122 0 181.5 -49t59.5 -150v-334h-89zM488 250l-144 -4q-104 -3 -152 -25
t-48 -68q0 -44 35 -67t101 -23q47 0 89.5 14.5t73.5 40.5q45 37 45 91v41zM587 -176q-17 -4 -46 -4q-122 0 -122 80q0 30 26 57.5t79 55.5l55 -13q-79 -47 -79 -85q0 -17 13 -25t41 -8q14 0 33 3v-61z" />
    <glyph glyph-name="Cacute" unicode="&#x106;" horiz-adv-x="852" 
d="M798 235q-21 -123 -112 -188t-243 -65q-115 0 -201.5 44.5t-135 129.5t-48.5 201q0 109 46 194t133 133t203 48q142 0 228 -58.5t119 -176.5l-97 -15q-31 86 -89.5 124t-160.5 38q-83 0 -146 -34t-98 -99t-35 -154q0 -87 33 -151.5t97 -100t152 -35.5q110 0 171.5 40
t81.5 125h102zM462 773h-98l144 135h121z" />
    <glyph glyph-name="cacute" unicode="&#x107;" horiz-adv-x="658" 
d="M611 176q-16 -93 -84 -142.5t-181 -49.5q-137 0 -214.5 72.5t-77.5 200.5q0 82 35.5 144t102 97t157.5 35q103 0 167.5 -44t84.5 -128l-93 -15q-31 110 -162 110q-91 0 -142 -52t-51 -145q0 -96 50 -147t145 -51q145 0 170 115h93zM363 591h-95l141 143h117z" />
    <glyph glyph-name="Ccircumflex" unicode="&#x108;" horiz-adv-x="852" 
d="M798 235q-21 -123 -112 -188t-243 -65q-115 0 -201.5 44.5t-135 129.5t-48.5 201q0 109 46 194t133 133t203 48q142 0 228 -58.5t119 -176.5l-97 -15q-31 86 -89.5 124t-160.5 38q-83 0 -146 -34t-98 -99t-35 -154q0 -87 33 -151.5t97 -100t152 -35.5q110 0 171.5 40
t81.5 125h102zM536 773l-96 77l-96 -77h-91l141 135h92l141 -135h-91z" />
    <glyph glyph-name="ccircumflex" unicode="&#x109;" horiz-adv-x="658" 
d="M611 176q-16 -93 -84 -142.5t-181 -49.5q-137 0 -214.5 72.5t-77.5 200.5q0 82 35.5 144t102 97t157.5 35q103 0 167.5 -44t84.5 -128l-93 -15q-31 110 -162 110q-91 0 -142 -52t-51 -145q0 -96 50 -147t145 -51q145 0 170 115h93zM444 591l-101 88l-101 -88h-87l142 143
h92l142 -143h-87z" />
    <glyph glyph-name="Cdotaccent" unicode="&#x10a;" horiz-adv-x="852" 
d="M798 235q-21 -123 -112 -188t-243 -65q-115 0 -201.5 44.5t-135 129.5t-48.5 201q0 109 46 194t133 133t203 48q142 0 228 -58.5t119 -176.5l-97 -15q-31 86 -89.5 124t-160.5 38q-83 0 -146 -34t-98 -99t-35 -154q0 -87 33 -151.5t97 -100t152 -35.5q110 0 171.5 40
t81.5 125h102zM388 783v107h103v-107h-103z" />
    <glyph glyph-name="cdotaccent" unicode="&#x10b;" horiz-adv-x="658" 
d="M611 176q-16 -93 -84 -142.5t-181 -49.5q-137 0 -214.5 72.5t-77.5 200.5q0 82 35.5 144t102 97t157.5 35q103 0 167.5 -44t84.5 -128l-93 -15q-31 110 -162 110q-91 0 -142 -52t-51 -145q0 -96 50 -147t145 -51q145 0 170 115h93zM293 612v102h100v-102h-100z" />
    <glyph glyph-name="Ccaron" unicode="&#x10c;" horiz-adv-x="852" 
d="M798 235q-21 -123 -112 -188t-243 -65q-115 0 -201.5 44.5t-135 129.5t-48.5 201q0 109 46 194t133 133t203 48q142 0 228 -58.5t119 -176.5l-97 -15q-31 86 -89.5 124t-160.5 38q-83 0 -146 -34t-98 -99t-35 -154q0 -87 33 -151.5t97 -100t152 -35.5q110 0 171.5 40
t81.5 125h102zM486 773h-92l-141 135h91l96 -77l96 77h91z" />
    <glyph glyph-name="ccaron" unicode="&#x10d;" horiz-adv-x="658" 
d="M611 176q-16 -93 -84 -142.5t-181 -49.5q-137 0 -214.5 72.5t-77.5 200.5q0 82 35.5 144t102 97t157.5 35q103 0 167.5 -44t84.5 -128l-93 -15q-31 110 -162 110q-91 0 -142 -52t-51 -145q0 -96 50 -147t145 -51q145 0 170 115h93zM297 591l-142 143h87l101 -88l101 88
h87l-142 -143h-92z" />
    <glyph glyph-name="Dcaron" unicode="&#x10e;" horiz-adv-x="857" 
d="M96 0v714h302q194 0 297.5 -92.5t103.5 -264.5t-111 -264.5t-316 -92.5h-276zM376 87q158 0 239 68.5t81 201.5q0 270 -298 270h-203v-540h181zM477 773h-92l-141 135h91l96 -77l96 77h91z" />
    <glyph glyph-name="dcaron" unicode="&#x10f;" horiz-adv-x="820" 
d="M546 0v94q-34 -51 -95 -80.5t-134 -29.5q-77 0 -136.5 32.5t-93 94t-33.5 144.5q0 80 33 143t95 99t145 36q143 0 218 -100v281h94v-714h-93zM546 273q0 76 -52 130q-25 26 -61.5 39.5t-79.5 13.5q-97 0 -148.5 -51t-51.5 -149q0 -92 50.5 -143.5t142.5 -51.5
q43 0 82 15.5t67 43.5q24 24 37.5 56t13.5 65v32zM708 510l33 204h89l-52 -204h-70z" />
    <glyph glyph-name="Dcroat" unicode="&#x110;" horiz-adv-x="885" 
d="M124 0v328h-102v82h102v304h302q194 0 297.5 -92.5t103.5 -264.5t-111 -264.5t-316 -92.5h-276zM223 328v-241h181q158 0 239 68.5t81 201.5q0 270 -298 270h-203v-217h234v-82h-234z" />
    <glyph glyph-name="dcroat" unicode="&#x111;" horiz-adv-x="738" 
d="M546 0v89q-36 -50 -95.5 -77.5t-133.5 -27.5q-119 0 -191 72t-72 191q0 74 33.5 133.5t95.5 94.5t144 35q146 0 218 -97v162h-211v67h211v72h94v-72h87v-67h-87v-575h-93zM546 261q0 71 -52 123q-51 49 -141 49q-97 0 -148.5 -48t-51.5 -140q0 -88 50.5 -136t142.5 -48
q43 0 82.5 14.5t66.5 39.5q24 23 37.5 53.5t13.5 61.5v31z" />
    <glyph glyph-name="Emacron" unicode="&#x112;" horiz-adv-x="733" 
d="M96 0v714h568v-87h-469v-215h446v-87h-446v-238h490l-17 -87h-572zM202 798v74h356v-74h-356z" />
    <glyph glyph-name="emacron" unicode="&#x113;" horiz-adv-x="670" 
d="M148 232q2 -80 53.5 -127t138.5 -47q145 0 178 87h90q-42 -161 -272 -161q-132 0 -207 72t-75 198q0 81 34.5 144t99.5 99t151 36q131 0 204 -68.5t73 -191.5v-41h-468zM524 303q-1 75 -49 116t-137 41q-77 0 -128 -42t-60 -115h374zM185 623v73h318v-73h-318z" />
    <glyph glyph-name="Ebreve" unicode="&#x114;" horiz-adv-x="733" 
d="M96 0v714h568v-87h-469v-215h446v-87h-446v-238h490l-17 -87h-572zM543 910q0 -67 -42 -103t-121 -36t-121 36t-42 103h73q0 -38 23.5 -59t66.5 -21t66.5 21t23.5 59h73z" />
    <glyph glyph-name="ebreve" unicode="&#x115;" horiz-adv-x="670" 
d="M148 232q2 -80 53.5 -127t138.5 -47q145 0 178 87h90q-42 -161 -272 -161q-132 0 -207 72t-75 198q0 81 34.5 144t99.5 99t151 36q131 0 204 -68.5t73 -191.5v-41h-468zM524 303q-1 75 -49 116t-137 41q-77 0 -128 -42t-60 -115h374zM507 730q0 -67 -42.5 -103.5
t-120.5 -36.5t-120.5 36.5t-42.5 103.5h71q0 -39 24.5 -60t67.5 -21t67.5 21t24.5 60h71z" />
    <glyph glyph-name="Edotaccent" unicode="&#x116;" horiz-adv-x="733" 
d="M96 0v714h568v-87h-469v-215h446v-87h-446v-238h490l-17 -87h-572zM328 783v107h103v-107h-103z" />
    <glyph glyph-name="edotaccent" unicode="&#x117;" horiz-adv-x="670" 
d="M148 232q2 -80 53.5 -127t138.5 -47q145 0 178 87h90q-42 -161 -272 -161q-132 0 -207 72t-75 198q0 81 34.5 144t99.5 99t151 36q131 0 204 -68.5t73 -191.5v-41h-468zM524 303q-1 75 -49 116t-137 41q-77 0 -128 -42t-60 -115h374zM294 612v102h100v-102h-100z" />
    <glyph glyph-name="Eogonek" unicode="&#x118;" horiz-adv-x="733" 
d="M96 0v714h568v-87h-469v-215h446v-87h-446v-238h490l-17 -87h-572zM674 -182q-17 -4 -47 -4q-62 0 -93.5 21t-31.5 61q0 64 107 118l59 -14q-82 -46 -82 -88q0 -35 56 -35q16 0 32 3v-62z" />
    <glyph glyph-name="eogonek" unicode="&#x119;" horiz-adv-x="670" 
d="M148 232q2 -80 53.5 -127t138.5 -47q145 0 178 87h90q-42 -161 -272 -161q-132 0 -207 72t-75 198q0 81 34.5 144t99.5 99t151 36q131 0 204 -68.5t73 -191.5v-41h-468zM524 303q-1 75 -49 116t-137 41q-77 0 -128 -42t-60 -115h374zM475 -176q-17 -4 -46 -4
q-122 0 -122 80q0 61 114 116l49 -12q-39 -22 -60.5 -45t-21.5 -43q0 -18 12.5 -26t41.5 -8q14 0 33 3v-61z" />
    <glyph glyph-name="Ecaron" unicode="&#x11a;" horiz-adv-x="733" 
d="M96 0v714h568v-87h-469v-215h446v-87h-446v-238h490l-17 -87h-572zM426 773h-92l-141 135h91l96 -77l96 77h91z" />
    <glyph glyph-name="ecaron" unicode="&#x11b;" horiz-adv-x="670" 
d="M148 232q2 -80 53.5 -127t138.5 -47q145 0 178 87h90q-42 -161 -272 -161q-132 0 -207 72t-75 198q0 81 34.5 144t99.5 99t151 36q131 0 204 -68.5t73 -191.5v-41h-468zM524 303q-1 75 -49 116t-137 41q-77 0 -128 -42t-60 -115h374zM298 591l-142 143h87l101 -88l101 88
h87l-142 -143h-92z" />
    <glyph glyph-name="Gcircumflex" unicode="&#x11c;" horiz-adv-x="858" 
d="M701 284h-235v85h328v-288q-60 -46 -149.5 -72.5t-185.5 -26.5q-121 0 -211.5 44t-140 128t-49.5 200q0 112 47 197.5t135.5 133t209.5 47.5q125 0 209 -52.5t118 -152.5l-98 -17q-27 68 -84.5 101t-147.5 33q-134 0 -210 -76.5t-76 -212.5q0 -135 79 -210t221 -75
q144 0 240 52v162zM546 773l-96 77l-96 -77h-91l141 135h92l141 -135h-91z" />
    <glyph glyph-name="gcircumflex" unicode="&#x11d;" horiz-adv-x="703" 
d="M545 113q-37 -50 -95 -76.5t-133 -26.5q-76 0 -135.5 31.5t-93.5 91.5t-34 139q0 73 33.5 132t96 94t143.5 35q75 0 128 -24t93 -76v84h91v-426q0 -155 -66.5 -225.5t-214.5 -70.5q-130 0 -198 38.5t-81 118.5h93q15 -44 58 -63.5t127 -19.5q97 0 142.5 44t45.5 138v62z
M546 283q0 71 -53 124q-49 49 -140 49q-95 0 -147.5 -48t-52.5 -135q0 -86 52 -136t141 -50q46 0 85 14t64 40q51 51 51 120v22zM467 591l-101 88l-101 -88h-87l142 143h92l142 -143h-87z" />
    <glyph glyph-name="Gbreve" unicode="&#x11e;" horiz-adv-x="858" 
d="M701 284h-235v85h328v-288q-60 -46 -149.5 -72.5t-185.5 -26.5q-121 0 -211.5 44t-140 128t-49.5 200q0 112 47 197.5t135.5 133t209.5 47.5q125 0 209 -52.5t118 -152.5l-98 -17q-27 68 -84.5 101t-147.5 33q-134 0 -210 -76.5t-76 -212.5q0 -135 79 -210t221 -75
q144 0 240 52v162zM613 910q0 -67 -42 -103t-121 -36t-121 36t-42 103h73q0 -38 23.5 -59t66.5 -21t66.5 21t23.5 59h73z" />
    <glyph glyph-name="gbreve" unicode="&#x11f;" horiz-adv-x="703" 
d="M545 113q-37 -50 -95 -76.5t-133 -26.5q-76 0 -135.5 31.5t-93.5 91.5t-34 139q0 73 33.5 132t96 94t143.5 35q75 0 128 -24t93 -76v84h91v-426q0 -155 -66.5 -225.5t-214.5 -70.5q-130 0 -198 38.5t-81 118.5h93q15 -44 58 -63.5t127 -19.5q97 0 142.5 44t45.5 138v62z
M546 283q0 71 -53 124q-49 49 -140 49q-95 0 -147.5 -48t-52.5 -135q0 -86 52 -136t141 -50q46 0 85 14t64 40q51 51 51 120v22zM529 730q0 -67 -42.5 -103.5t-120.5 -36.5t-120.5 36.5t-42.5 103.5h71q0 -39 24.5 -60t67.5 -21t67.5 21t24.5 60h71z" />
    <glyph glyph-name="Gdotaccent" unicode="&#x120;" horiz-adv-x="858" 
d="M701 284h-235v85h328v-288q-60 -46 -149.5 -72.5t-185.5 -26.5q-121 0 -211.5 44t-140 128t-49.5 200q0 112 47 197.5t135.5 133t209.5 47.5q125 0 209 -52.5t118 -152.5l-98 -17q-27 68 -84.5 101t-147.5 33q-134 0 -210 -76.5t-76 -212.5q0 -135 79 -210t221 -75
q144 0 240 52v162zM398 783v107h103v-107h-103z" />
    <glyph glyph-name="gdotaccent" unicode="&#x121;" horiz-adv-x="703" 
d="M545 113q-37 -50 -95 -76.5t-133 -26.5q-76 0 -135.5 31.5t-93.5 91.5t-34 139q0 73 33.5 132t96 94t143.5 35q75 0 128 -24t93 -76v84h91v-426q0 -155 -66.5 -225.5t-214.5 -70.5q-130 0 -198 38.5t-81 118.5h93q15 -44 58 -63.5t127 -19.5q97 0 142.5 44t45.5 138v62z
M546 283q0 71 -53 124q-49 49 -140 49q-95 0 -147.5 -48t-52.5 -135q0 -86 52 -136t141 -50q46 0 85 14t64 40q51 51 51 120v22zM316 612v102h100v-102h-100z" />
    <glyph glyph-name="uni0122" unicode="&#x122;" horiz-adv-x="858" 
d="M701 284h-235v85h328v-288q-60 -46 -149.5 -72.5t-185.5 -26.5q-121 0 -211.5 44t-140 128t-49.5 200q0 112 47 197.5t135.5 133t209.5 47.5q125 0 209 -52.5t118 -152.5l-98 -17q-27 68 -84.5 101t-147.5 33q-134 0 -210 -76.5t-76 -212.5q0 -135 79 -210t221 -75
q144 0 240 52v162zM325 -218l93 152h104l-114 -152h-83z" />
    <glyph glyph-name="uni0123" unicode="&#x123;" horiz-adv-x="703" 
d="M545 113q-37 -50 -95 -76.5t-133 -26.5q-76 0 -135.5 31.5t-93.5 91.5t-34 139q0 73 33.5 132t96 94t143.5 35q75 0 128 -24t93 -76v84h91v-426q0 -155 -66.5 -225.5t-214.5 -70.5q-130 0 -198 38.5t-81 118.5h93q15 -44 58 -63.5t127 -19.5q97 0 142.5 44t45.5 138v62z
M546 283q0 71 -53 124q-49 49 -140 49q-95 0 -147.5 -48t-52.5 -135q0 -86 52 -136t141 -50q46 0 85 14t64 40q51 51 51 120v22zM310 591l107 143h82l-88 -143h-101z" />
    <glyph glyph-name="Hcircumflex" unicode="&#x124;" horiz-adv-x="858" 
d="M663 0v323h-468v-323h-99v714h99v-298h468v298h99v-714h-99zM525 773l-96 77l-96 -77h-91l141 135h92l141 -135h-91z" />
    <glyph glyph-name="hcircumflex" unicode="&#x125;" horiz-adv-x="696" 
d="M524 0v316q0 72 -34.5 104.5t-111.5 32.5q-41 0 -81.5 -15.5t-69.5 -43.5q-25 -23 -38 -51.5t-13 -59.5v-283h-94v714h94v-292q86 111 226 111q107 0 161.5 -50.5t54.5 -149.5v-333h-94zM368 773l-96 77l-96 -77h-91l141 135h92l141 -135h-91z" />
    <glyph glyph-name="Hbar" unicode="&#x126;" horiz-adv-x="914" 
d="M691 0v315h-468v-315h-99v519h-102v80h102v115h99v-115h468v115h99v-115h102v-80h-102v-519h-99zM691 519h-468v-111h468v111z" />
    <glyph glyph-name="hbar" unicode="&#x127;" horiz-adv-x="713" 
d="M540 0v293q0 72 -34.5 104.5t-111.5 32.5q-41 0 -81.5 -15.5t-69.5 -43.5q-25 -23 -38 -51.5t-13 -59.5v-260h-94v575h-86v67h86v72h94v-72h212v-67h-212v-176q86 111 226 111q107 0 161.5 -50.5t54.5 -149.5v-310h-94z" />
    <glyph glyph-name="Itilde" unicode="&#x128;" horiz-adv-x="291" 
d="M96 0v714h99v-714h-99zM361 895q0 -60 -31.5 -91t-91.5 -31q-45 0 -94 29q-30 18 -47.5 24.5t-34.5 6.5q-31 0 -44 -13t-13 -42h-73q0 60 31.5 91t91.5 31q45 0 94 -29q30 -18 47.5 -24.5t34.5 -6.5q31 0 44 13t13 42h73z" />
    <glyph glyph-name="itilde" unicode="&#x129;" horiz-adv-x="258" 
d="M82 0v517h94v-517h-94zM342 721q0 -60 -31 -91.5t-90 -31.5q-25 0 -47.5 7.5t-55.5 26.5q-25 14 -41 20t-32 6q-31 0 -45 -13t-14 -41h-69q0 60 31 91.5t90 31.5q25 0 47.5 -7.5t55.5 -26.5q25 -14 41 -20t32 -6q31 0 45 13t14 41h69z" />
    <glyph glyph-name="Imacron" unicode="&#x12a;" horiz-adv-x="291" 
d="M96 0v714h99v-714h-99zM-32 798v74h356v-74h-356z" />
    <glyph glyph-name="imacron" unicode="&#x12b;" horiz-adv-x="258" 
d="M82 0v517h94v-517h-94zM-30 623v73h318v-73h-318z" />
    <glyph glyph-name="Ibreve" unicode="&#x12c;" horiz-adv-x="291" 
d="M96 0v714h99v-714h-99zM309 910q0 -67 -42 -103t-121 -36t-121 36t-42 103h73q0 -38 23.5 -59t66.5 -21t66.5 21t23.5 59h73z" />
    <glyph glyph-name="ibreve" unicode="&#x12d;" horiz-adv-x="258" 
d="M82 0v517h94v-517h-94zM292 730q0 -67 -42.5 -103.5t-120.5 -36.5t-120.5 36.5t-42.5 103.5h71q0 -39 24.5 -60t67.5 -21t67.5 21t24.5 60h71z" />
    <glyph glyph-name="Iogonek" unicode="&#x12e;" horiz-adv-x="291" 
d="M96 0v714h99v-714h-99zM201 -182q-17 -4 -47 -4q-62 0 -93.5 21t-31.5 61q0 64 107 118l59 -14q-82 -46 -82 -88q0 -35 56 -35q16 0 32 3v-62z" />
    <glyph glyph-name="iogonek" unicode="&#x12f;" horiz-adv-x="258" 
d="M82 0v517h94v-517h-94zM79 612v102h100v-102h-100zM184 -176q-17 -4 -46 -4q-122 0 -122 80q0 30 26 57.5t79 55.5l55 -13q-79 -47 -79 -85q0 -17 13 -25t41 -8q14 0 33 3v-61z" />
    <glyph glyph-name="Idotaccent" unicode="&#x130;" horiz-adv-x="291" 
d="M96 0v714h99v-714h-99zM94 783v107h103v-107h-103z" />
    <glyph glyph-name="dotlessi" unicode="&#x131;" horiz-adv-x="258" 
d="M82 0v517h94v-517h-94z" />
    <glyph glyph-name="IJ" unicode="&#x132;" horiz-adv-x="1002" 
d="M96 0v714h99v-714h-99zM815 714h99v-459q0 -135 -74 -204t-219 -69q-275 0 -304 233h101q14 -75 62.5 -110t138.5 -35q101 0 148.5 47t47.5 146v451z" />
    <glyph glyph-name="ij" unicode="&#x133;" horiz-adv-x="516" 
d="M82 0v517h94v-517h-94zM79 612v102h100v-102h-100zM340 517h94v-542q0 -92 -39 -136t-120 -44q-56 0 -108 18l17 71q42 -12 80 -12q40 0 58 19t18 62v564zM337 612v102h100v-102h-100z" />
    <glyph glyph-name="Jcircumflex" unicode="&#x134;" horiz-adv-x="711" 
d="M524 714h99v-459q0 -135 -74 -204t-219 -69q-275 0 -304 233h101q14 -75 62.5 -110t138.5 -35q101 0 148.5 47t47.5 146v451zM670 773l-96 77l-96 -77h-91l141 135h92l141 -135h-91z" />
    <glyph glyph-name="jcircumflex" unicode="&#x135;" horiz-adv-x="258" 
d="M82 517h94v-542q0 -92 -39 -136t-120 -44q-56 0 -108 18l17 71q42 -12 80 -12q40 0 58 19t18 62v564zM230 591l-101 88l-101 -88h-87l142 143h92l142 -143h-87z" />
    <glyph glyph-name="uni0136" unicode="&#x136;" horiz-adv-x="797" 
d="M658 0l-309 386l-154 -124v-262h-99v714h99v-352l426 352h126l-324 -271l356 -443h-121zM293 -218l93 152h104l-114 -152h-83z" />
    <glyph glyph-name="uni0137" unicode="&#x137;" horiz-adv-x="634" 
d="M519 0l-216 299l-127 -93v-206h-94v714h94v-414l297 217h130l-230 -168l257 -349h-111zM219 -212l90 146h101l-109 -146h-82z" />
    <glyph glyph-name="kgreenlandic" unicode="&#x138;" horiz-adv-x="634" 
d="M518 0l-215 282l-127 -101v-181h-94v517h94v-243l303 243h124l-232 -184l259 -333h-112z" />
    <glyph glyph-name="Lacute" unicode="&#x139;" horiz-adv-x="689" 
d="M96 0v714h99v-627h468l-17 -87h-550zM168 773h-98l144 135h121z" />
    <glyph glyph-name="lacute" unicode="&#x13a;" horiz-adv-x="258" 
d="M82 0v714h94v-714h-94zM151 773h-98l144 135h121z" />
    <glyph glyph-name="uni013B" unicode="&#x13b;" horiz-adv-x="689" 
d="M96 0v714h99v-627h468l-17 -87h-550zM238 -218l93 152h104l-114 -152h-83z" />
    <glyph glyph-name="uni013C" unicode="&#x13c;" horiz-adv-x="258" 
d="M82 0v714h94v-714h-94zM-10 -212l90 146h101l-109 -146h-82z" />
    <glyph glyph-name="Lcaron" unicode="&#x13d;" horiz-adv-x="689" 
d="M96 0v714h99v-627h468l-17 -87h-550zM413 510l33 204h89l-52 -204h-70z" />
    <glyph glyph-name="lcaron" unicode="&#x13e;" horiz-adv-x="357" 
d="M82 0v714h94v-714h-94zM245 510l33 204h89l-52 -204h-70z" />
    <glyph glyph-name="Ldot" unicode="&#x13f;" horiz-adv-x="689" 
d="M96 0v714h99v-627h468l-17 -87h-550zM436 338v119h106v-119h-106z" />
    <glyph glyph-name="ldot" unicode="&#x140;" horiz-adv-x="368" 
d="M82 0v714h94v-714h-94zM260 314v119h106v-119h-106z" />
    <glyph glyph-name="Lslash" unicode="&#x141;" horiz-adv-x="717" 
d="M124 0v248l-102 -59v88l102 59v378h99v-325l259 149v-88l-259 -149v-214h468l-17 -87h-550z" />
    <glyph glyph-name="lslash" unicode="&#x142;" horiz-adv-x="354" 
d="M130 0v326l-110 -65v78l110 65v310h94v-257l110 65v-78l-110 -65v-379h-94z" />
    <glyph glyph-name="Nacute" unicode="&#x143;" horiz-adv-x="860" 
d="M668 0l-475 574v-574h-97v714h96l475 -574v574h97v-714h-96zM452 773h-98l144 135h121z" />
    <glyph glyph-name="nacute" unicode="&#x144;" horiz-adv-x="696" 
d="M524 0v316q0 72 -34.5 104.5t-111.5 32.5q-41 0 -81.5 -15.5t-69.5 -43.5q-25 -23 -38 -51.5t-13 -59.5v-283h-94v517h93v-96q85 112 227 112q107 0 161.5 -50.5t54.5 -149.5v-333h-94zM375 591h-95l141 143h117z" />
    <glyph glyph-name="uni0145" unicode="&#x145;" horiz-adv-x="860" 
d="M668 0l-475 574v-574h-97v714h96l475 -574v574h97v-714h-96zM296 -218l93 152h104l-114 -152h-83z" />
    <glyph glyph-name="uni0146" unicode="&#x146;" horiz-adv-x="696" 
d="M524 0v316q0 72 -34.5 104.5t-111.5 32.5q-41 0 -81.5 -15.5t-69.5 -43.5q-25 -23 -38 -51.5t-13 -59.5v-283h-94v517h93v-96q85 112 227 112q107 0 161.5 -50.5t54.5 -149.5v-333h-94zM211 -212l90 146h101l-109 -146h-82z" />
    <glyph glyph-name="Ncaron" unicode="&#x147;" horiz-adv-x="860" 
d="M668 0l-475 574v-574h-97v714h96l475 -574v574h97v-714h-96zM476 773h-92l-141 135h91l96 -77l96 77h91z" />
    <glyph glyph-name="ncaron" unicode="&#x148;" horiz-adv-x="696" 
d="M524 0v316q0 72 -34.5 104.5t-111.5 32.5q-41 0 -81.5 -15.5t-69.5 -43.5q-25 -23 -38 -51.5t-13 -59.5v-283h-94v517h93v-96q85 112 227 112q107 0 161.5 -50.5t54.5 -149.5v-333h-94zM309 591l-142 143h87l101 -88l101 88h87l-142 -143h-92z" />
    <glyph glyph-name="napostrophe" unicode="&#x149;" horiz-adv-x="795" 
d="M623 0v316q0 72 -34.5 104.5t-111.5 32.5q-41 0 -81.5 -15.5t-69.5 -43.5q-25 -23 -38 -51.5t-13 -59.5v-283h-94v517h93v-96q85 112 227 112q107 0 161.5 -50.5t54.5 -149.5v-333h-94zM24 498l37 216h106l-62 -216h-81z" />
    <glyph glyph-name="Eng" unicode="&#x14a;" horiz-adv-x="860" 
d="M193 574v-574h-97v714h96l475 -574v574h97v-686q0 -114 -70.5 -173.5t-205.5 -59.5q-109 0 -177 26l25 81q60 -22 149 -22q82 0 128.5 30.5t53.5 90.5z" />
    <glyph glyph-name="eng" unicode="&#x14b;" horiz-adv-x="696" 
d="M524 316q0 72 -34.5 104.5t-111.5 32.5q-41 0 -81.5 -15.5t-69.5 -43.5q-25 -23 -38 -51.5t-13 -59.5v-283h-94v517h93v-96q85 112 227 112q107 0 161.5 -50.5t54.5 -149.5v-358q0 -92 -39 -136t-120 -44q-55 0 -108 18l17 71q42 -12 80 -12q40 0 58 19t18 62v363z" />
    <glyph glyph-name="Omacron" unicode="&#x14c;" horiz-adv-x="914" 
d="M856 357q0 -111 -48 -195.5t-138.5 -132t-212.5 -47.5q-118 0 -208 44.5t-140.5 129.5t-50.5 201q0 111 48 195.5t138.5 132t212.5 47.5q118 0 208 -44.5t140.5 -129.5t50.5 -201zM753 357q0 136 -78 211.5t-218 75.5q-139 0 -217.5 -76t-78.5 -211q0 -136 78 -211.5
t218 -75.5q139 0 217.5 76t78.5 211zM279 798v74h356v-74h-356z" />
    <glyph glyph-name="omacron" unicode="&#x14d;" horiz-adv-x="708" 
d="M654 260q0 -81 -36.5 -143.5t-105.5 -97.5t-161 -35q-89 0 -156 32t-104 94t-37 147q0 81 36.5 143.5t105.5 97.5t161 35q89 0 156 -32t104 -94t37 -147zM555 258q0 94 -52.5 146t-147.5 52q-96 0 -149 -51.5t-53 -145.5t52.5 -146t147.5 -52q96 0 149 51.5t53 145.5z
M195 623v73h318v-73h-318z" />
    <glyph glyph-name="Obreve" unicode="&#x14e;" horiz-adv-x="914" 
d="M856 357q0 -111 -48 -195.5t-138.5 -132t-212.5 -47.5q-118 0 -208 44.5t-140.5 129.5t-50.5 201q0 111 48 195.5t138.5 132t212.5 47.5q118 0 208 -44.5t140.5 -129.5t50.5 -201zM753 357q0 136 -78 211.5t-218 75.5q-139 0 -217.5 -76t-78.5 -211q0 -136 78 -211.5
t218 -75.5q139 0 217.5 76t78.5 211zM620 910q0 -67 -42 -103t-121 -36t-121 36t-42 103h73q0 -38 23.5 -59t66.5 -21t66.5 21t23.5 59h73z" />
    <glyph glyph-name="obreve" unicode="&#x14f;" horiz-adv-x="708" 
d="M654 260q0 -81 -36.5 -143.5t-105.5 -97.5t-161 -35q-89 0 -156 32t-104 94t-37 147q0 81 36.5 143.5t105.5 97.5t161 35q89 0 156 -32t104 -94t37 -147zM555 258q0 94 -52.5 146t-147.5 52q-96 0 -149 -51.5t-53 -145.5t52.5 -146t147.5 -52q96 0 149 51.5t53 145.5z
M517 730q0 -67 -42.5 -103.5t-120.5 -36.5t-120.5 36.5t-42.5 103.5h71q0 -39 24.5 -60t67.5 -21t67.5 21t24.5 60h71z" />
    <glyph glyph-name="Ohungarumlaut" unicode="&#x150;" horiz-adv-x="914" 
d="M856 357q0 -111 -48 -195.5t-138.5 -132t-212.5 -47.5q-118 0 -208 44.5t-140.5 129.5t-50.5 201q0 111 48 195.5t138.5 132t212.5 47.5q118 0 208 -44.5t140.5 -129.5t50.5 -201zM753 357q0 136 -78 211.5t-218 75.5q-139 0 -217.5 -76t-78.5 -211q0 -136 78 -211.5
t218 -75.5q139 0 217.5 76t78.5 211zM381 773h-90l133 135h115zM595 773h-90l133 135h115z" />
    <glyph glyph-name="ohungarumlaut" unicode="&#x151;" horiz-adv-x="708" 
d="M654 260q0 -81 -36.5 -143.5t-105.5 -97.5t-161 -35q-89 0 -156 32t-104 94t-37 147q0 81 36.5 143.5t105.5 97.5t161 35q89 0 156 -32t104 -94t37 -147zM555 258q0 94 -52.5 146t-147.5 52q-96 0 -149 -51.5t-53 -145.5t52.5 -146t147.5 -52q96 0 149 51.5t53 145.5z
M201 591l124 143h108l-143 -143h-89zM403 591l124 143h108l-143 -143h-89z" />
    <glyph glyph-name="OE" unicode="&#x152;" horiz-adv-x="1332" 
d="M726 0v121q-91 -139 -290 -139q-112 0 -197 45t-133 130t-48 200q0 110 45.5 194.5t131 132.5t201.5 48q98 0 171.5 -35t118.5 -103v120h537v-87h-443v-215h420v-87h-420v-238h464l-17 -87h-541zM446 70q84 0 147 33t98 95.5t35 148.5v20q0 83 -33.5 145.5t-96.5 97
t-150 34.5q-134 0 -209.5 -76t-75.5 -211q0 -136 75 -211.5t210 -75.5z" />
    <glyph glyph-name="oe" unicode="&#x153;" horiz-adv-x="1157" 
d="M641 232q3 -80 55 -127t138 -47q137 0 171 87h90q-21 -80 -88 -120.5t-177 -40.5q-84 0 -146 30t-96 88q-37 -57 -98 -87.5t-139 -30.5q-89 0 -156 32t-104 94t-37 147q0 81 36.5 143.5t105.5 97.5t161 35q79 0 140 -31t96 -89q36 58 98 89t141 31q127 0 199 -68.5
t72 -191.5v-41h-462zM353 61q94 0 145.5 52t51.5 145q0 94 -51.5 146t-143.5 52q-96 0 -149 -51.5t-53 -145.5t52.5 -146t147.5 -52zM1011 303q-1 74 -48 115.5t-132 41.5q-76 0 -127 -43t-60 -114h367z" />
    <glyph glyph-name="Racute" unicode="&#x154;" horiz-adv-x="762" 
d="M629 0l-165 289q-11 -1 -47 -1h-224v-288h-97v714h333q276 0 276 -214q0 -146 -141 -191l179 -309h-114zM420 375q182 0 182 127q0 67 -43 96t-137 29h-229v-252h227zM422 773h-98l144 135h121z" />
    <glyph glyph-name="racute" unicode="&#x155;" horiz-adv-x="448" 
d="M82 0v517h93v-97q38 52 87.5 79t106.5 27q22 0 54 -5l-11 -82q-28 5 -51 5q-42 0 -74 -12t-59 -37q-52 -48 -52 -112v-283h-94zM284 591h-95l141 143h117z" />
    <glyph glyph-name="Rcommaaccent" unicode="&#x156;" horiz-adv-x="762" 
d="M629 0l-165 289q-11 -1 -47 -1h-224v-288h-97v714h333q276 0 276 -214q0 -146 -141 -191l179 -309h-114zM420 375q182 0 182 127q0 67 -43 96t-137 29h-229v-252h227zM270 -218l93 152h104l-114 -152h-83z" />
    <glyph glyph-name="rcommaaccent" unicode="&#x157;" horiz-adv-x="448" 
d="M82 0v517h93v-97q38 52 87.5 79t106.5 27q22 0 54 -5l-11 -82q-28 5 -51 5q-42 0 -74 -12t-59 -37q-52 -48 -52 -112v-283h-94zM-10 -212l90 146h101l-109 -146h-82z" />
    <glyph glyph-name="Rcaron" unicode="&#x158;" horiz-adv-x="762" 
d="M629 0l-165 289q-11 -1 -47 -1h-224v-288h-97v714h333q276 0 276 -214q0 -146 -141 -191l179 -309h-114zM420 375q182 0 182 127q0 67 -43 96t-137 29h-229v-252h227zM446 773h-92l-141 135h91l96 -77l96 77h91z" />
    <glyph glyph-name="rcaron" unicode="&#x159;" horiz-adv-x="448" 
d="M82 0v517h93v-97q38 52 87.5 79t106.5 27q22 0 54 -5l-11 -82q-28 5 -51 5q-42 0 -74 -12t-59 -37q-52 -48 -52 -112v-283h-94zM218 591l-142 143h87l101 -88l101 88h87l-142 -143h-92z" />
    <glyph glyph-name="Sacute" unicode="&#x15a;" horiz-adv-x="781" 
d="M611 529q-25 62 -76.5 89t-144.5 27q-106 0 -163.5 -28t-57.5 -80q0 -35 17.5 -57.5t55 -36.5t100.5 -23l138 -20q124 -19 183.5 -70.5t59.5 -140.5q0 -98 -84 -152.5t-234 -54.5q-166 0 -254 56t-101 170h102q14 -71 76 -105t177 -34q104 0 160 31.5t56 89.5
q0 49 -38 77t-124 41l-124 18q-100 15 -157.5 41t-83 66.5t-25.5 100.5q0 93 85 145.5t236 52.5q93 0 155.5 -19.5t101.5 -60.5t59 -106zM412 773h-98l144 135h121z" />
    <glyph glyph-name="sacute" unicode="&#x15b;" horiz-adv-x="629" 
d="M477 381q-15 40 -56.5 59.5t-113.5 19.5t-114 -20t-42 -54t29.5 -51t110.5 -29l66 -10q88 -13 134.5 -31.5t66 -47.5t19.5 -75q0 -158 -256 -158q-123 0 -191 41.5t-83 125.5h89q29 -93 183 -93q81 0 125.5 21t44.5 60q0 34 -32 51t-119 30l-61 9q-84 13 -129.5 32
t-64.5 48.5t-19 74.5q0 70 64.5 109.5t178.5 39.5q112 0 172.5 -33t83.5 -108zM324 591h-95l141 143h117z" />
    <glyph glyph-name="Scircumflex" unicode="&#x15c;" horiz-adv-x="781" 
d="M611 529q-25 62 -76.5 89t-144.5 27q-106 0 -163.5 -28t-57.5 -80q0 -35 17.5 -57.5t55 -36.5t100.5 -23l138 -20q124 -19 183.5 -70.5t59.5 -140.5q0 -98 -84 -152.5t-234 -54.5q-166 0 -254 56t-101 170h102q14 -71 76 -105t177 -34q104 0 160 31.5t56 89.5
q0 49 -38 77t-124 41l-124 18q-100 15 -157.5 41t-83 66.5t-25.5 100.5q0 93 85 145.5t236 52.5q93 0 155.5 -19.5t101.5 -60.5t59 -106zM486 773l-96 77l-96 -77h-91l141 135h92l141 -135h-91z" />
    <glyph glyph-name="scircumflex" unicode="&#x15d;" horiz-adv-x="629" 
d="M477 381q-15 40 -56.5 59.5t-113.5 19.5t-114 -20t-42 -54t29.5 -51t110.5 -29l66 -10q88 -13 134.5 -31.5t66 -47.5t19.5 -75q0 -158 -256 -158q-123 0 -191 41.5t-83 125.5h89q29 -93 183 -93q81 0 125.5 21t44.5 60q0 34 -32 51t-119 30l-61 9q-84 13 -129.5 32
t-64.5 48.5t-19 74.5q0 70 64.5 109.5t178.5 39.5q112 0 172.5 -33t83.5 -108zM405 591l-101 88l-101 -88h-87l142 143h92l142 -143h-87z" />
    <glyph glyph-name="Scedilla" unicode="&#x15e;" horiz-adv-x="781" 
d="M611 529q-25 62 -76.5 89t-144.5 27q-106 0 -163.5 -28t-57.5 -80q0 -35 17.5 -57.5t55 -36.5t100.5 -23l138 -20q124 -19 183.5 -70.5t59.5 -140.5q0 -98 -84 -152.5t-234 -54.5q-166 0 -254 56t-101 170h102q14 -71 76 -105t177 -34q104 0 160 31.5t56 89.5
q0 49 -38 77t-124 41l-124 18q-100 15 -157.5 41t-83 66.5t-25.5 100.5q0 93 85 145.5t236 52.5q93 0 155.5 -19.5t101.5 -60.5t59 -106zM276 -152q50 -10 86 -10q32 0 49.5 8.5t17.5 24.5q0 18 -20 25t-70 7h-24l44 110l60 -13l-19 -51q110 -11 110 -85q0 -41 -35.5 -62.5
t-102.5 -21.5q-63 0 -96 11v57z" />
    <glyph glyph-name="scedilla" unicode="&#x15f;" horiz-adv-x="629" 
d="M477 381q-15 40 -56.5 59.5t-113.5 19.5t-114 -20t-42 -54t29.5 -51t110.5 -29l66 -10q88 -13 134.5 -31.5t66 -47.5t19.5 -75q0 -158 -256 -158q-123 0 -191 41.5t-83 125.5h89q29 -93 183 -93q81 0 125.5 21t44.5 60q0 34 -32 51t-119 30l-61 9q-84 13 -129.5 32
t-64.5 48.5t-19 74.5q0 70 64.5 109.5t178.5 39.5q112 0 172.5 -33t83.5 -108zM206 -140q49 -10 83 -10q31 0 48 7.5t17 21.5q0 16 -19 23t-66 7h-25l41 103l58 -12l-18 -47q107 -11 107 -80q0 -39 -34.5 -60t-98.5 -21q-65 0 -93 11v57z" />
    <glyph glyph-name="Scaron" unicode="&#x160;" horiz-adv-x="781" 
d="M611 529q-25 62 -76.5 89t-144.5 27q-106 0 -163.5 -28t-57.5 -80q0 -35 17.5 -57.5t55 -36.5t100.5 -23l138 -20q124 -19 183.5 -70.5t59.5 -140.5q0 -98 -84 -152.5t-234 -54.5q-166 0 -254 56t-101 170h102q14 -71 76 -105t177 -34q104 0 160 31.5t56 89.5
q0 49 -38 77t-124 41l-124 18q-100 15 -157.5 41t-83 66.5t-25.5 100.5q0 93 85 145.5t236 52.5q93 0 155.5 -19.5t101.5 -60.5t59 -106zM436 773h-92l-141 135h91l96 -77l96 77h91z" />
    <glyph glyph-name="scaron" unicode="&#x161;" horiz-adv-x="629" 
d="M477 381q-15 40 -56.5 59.5t-113.5 19.5t-114 -20t-42 -54t29.5 -51t110.5 -29l66 -10q88 -13 134.5 -31.5t66 -47.5t19.5 -75q0 -158 -256 -158q-123 0 -191 41.5t-83 125.5h89q29 -93 183 -93q81 0 125.5 21t44.5 60q0 34 -32 51t-119 30l-61 9q-84 13 -129.5 32
t-64.5 48.5t-19 74.5q0 70 64.5 109.5t178.5 39.5q112 0 172.5 -33t83.5 -108zM258 591l-142 143h87l101 -88l101 88h87l-142 -143h-92z" />
    <glyph glyph-name="uni0162" unicode="&#x162;" horiz-adv-x="719" 
d="M310 0v627h-296v87h691v-87h-296v-627h-99zM243 -152q50 -10 86 -10q32 0 49.5 8.5t17.5 24.5q0 18 -20 25t-70 7h-24l44 110l60 -13l-19 -51q110 -11 110 -85q0 -41 -35.5 -62.5t-102.5 -21.5q-63 0 -96 11v57z" />
    <glyph glyph-name="uni0163" unicode="&#x163;" horiz-adv-x="438" 
d="M417 9q-60 -20 -128 -20q-85 0 -125 41t-40 130v283h-101v74h101v141h94v-141h184v-74h-184v-291q0 -86 87 -86q48 0 97 16zM160 -140q49 -10 83 -10q31 0 48 7.5t17 21.5q0 16 -19 23t-66 7h-25l41 103l58 -12l-18 -47q107 -11 107 -80q0 -39 -34.5 -60t-98.5 -21
q-65 0 -93 11v57z" />
    <glyph glyph-name="Tcaron" unicode="&#x164;" horiz-adv-x="719" 
d="M310 0v627h-296v87h691v-87h-296v-627h-99zM406 773h-92l-141 135h91l96 -77l96 77h91z" />
    <glyph glyph-name="tcaron" unicode="&#x165;" horiz-adv-x="438" 
d="M417 9q-60 -20 -128 -20q-85 0 -125 41t-40 130v283h-101v74h101v141h94v-141h184v-74h-184v-291q0 -86 87 -86q48 0 97 16zM296 574l24 159h85l-42 -159h-67z" />
    <glyph glyph-name="Tbar" unicode="&#x166;" horiz-adv-x="719" 
d="M310 0v308h-191v82h191v237h-296v87h691v-87h-296v-237h191v-82h-191v-308h-99z" />
    <glyph glyph-name="tbar" unicode="&#x167;" horiz-adv-x="470" 
d="M433 9q-60 -20 -128 -20q-85 0 -125 41t-40 130v76h-101v74h101v133h-101v74h101v141h94v-141h184v-74h-184v-133h184v-74h-184v-84q0 -86 87 -86q48 0 97 16z" />
    <glyph glyph-name="Utilde" unicode="&#x168;" horiz-adv-x="836" 
d="M649 714h99v-427q0 -305 -330 -305t-330 305v427h99v-430q0 -109 56.5 -161.5t174.5 -52.5t174.5 52.5t56.5 161.5v430zM633 895q0 -60 -31.5 -91t-91.5 -31q-45 0 -94 29q-30 18 -47.5 24.5t-34.5 6.5q-31 0 -44 -13t-13 -42h-73q0 60 31.5 91t91.5 31q45 0 94 -29
q30 -18 47.5 -24.5t34.5 -6.5q31 0 44 13t13 42h73z" />
    <glyph glyph-name="utilde" unicode="&#x169;" horiz-adv-x="685" 
d="M510 0v96q-44 -57 -99.5 -84.5t-125.5 -27.5q-100 0 -153.5 50.5t-53.5 145.5v337h94v-320q0 -68 33.5 -100.5t103.5 -32.5q83 0 149 58q25 23 38 51.5t13 59.5v284h94v-517h-93zM554 721q0 -60 -31 -91.5t-90 -31.5q-25 0 -47.5 7.5t-55.5 26.5q-25 14 -41 20t-32 6
q-31 0 -45 -13t-14 -41h-69q0 60 31 91.5t90 31.5q25 0 47.5 -7.5t55.5 -26.5q25 -14 41 -20t32 -6q31 0 45 13t14 41h69z" />
    <glyph glyph-name="Umacron" unicode="&#x16a;" horiz-adv-x="836" 
d="M649 714h99v-427q0 -305 -330 -305t-330 305v427h99v-430q0 -109 56.5 -161.5t174.5 -52.5t174.5 52.5t56.5 161.5v430zM240 798v74h356v-74h-356z" />
    <glyph glyph-name="umacron" unicode="&#x16b;" horiz-adv-x="685" 
d="M510 0v96q-44 -57 -99.5 -84.5t-125.5 -27.5q-100 0 -153.5 50.5t-53.5 145.5v337h94v-320q0 -68 33.5 -100.5t103.5 -32.5q83 0 149 58q25 23 38 51.5t13 59.5v284h94v-517h-93zM182 623v73h318v-73h-318z" />
    <glyph glyph-name="Ubreve" unicode="&#x16c;" horiz-adv-x="836" 
d="M649 714h99v-427q0 -305 -330 -305t-330 305v427h99v-430q0 -109 56.5 -161.5t174.5 -52.5t174.5 52.5t56.5 161.5v430zM581 910q0 -67 -42 -103t-121 -36t-121 36t-42 103h73q0 -38 23.5 -59t66.5 -21t66.5 21t23.5 59h73z" />
    <glyph glyph-name="ubreve" unicode="&#x16d;" horiz-adv-x="685" 
d="M510 0v96q-44 -57 -99.5 -84.5t-125.5 -27.5q-100 0 -153.5 50.5t-53.5 145.5v337h94v-320q0 -68 33.5 -100.5t103.5 -32.5q83 0 149 58q25 23 38 51.5t13 59.5v284h94v-517h-93zM504 730q0 -67 -42.5 -103.5t-120.5 -36.5t-120.5 36.5t-42.5 103.5h71q0 -39 24.5 -60
t67.5 -21t67.5 21t24.5 60h71z" />
    <glyph glyph-name="Uring" unicode="&#x16e;" horiz-adv-x="836" 
d="M649 714h99v-427q0 -305 -330 -305t-330 305v427h99v-430q0 -109 56.5 -161.5t174.5 -52.5t174.5 52.5t56.5 161.5v430zM542 842q0 -46 -34.5 -74.5t-89.5 -28.5t-89.5 28.5t-34.5 74.5q0 47 34.5 75.5t89.5 28.5t89.5 -28.5t34.5 -75.5zM480 842q0 54 -62 54t-62 -54
q0 -53 62 -53t62 53z" />
    <glyph glyph-name="uring" unicode="&#x16f;" horiz-adv-x="685" 
d="M510 0v96q-44 -57 -99.5 -84.5t-125.5 -27.5q-100 0 -153.5 50.5t-53.5 145.5v337h94v-320q0 -68 33.5 -100.5t103.5 -32.5q83 0 149 58q25 23 38 51.5t13 59.5v284h94v-517h-93zM463 690q0 -46 -33.5 -73.5t-88.5 -27.5t-88.5 27.5t-33.5 73.5t33 74t89 28t89 -28
t33 -74zM404 690q0 52 -63 52t-63 -52q0 -25 16.5 -38t46.5 -13t46.5 13t16.5 38z" />
    <glyph glyph-name="Uhungarumlaut" unicode="&#x170;" horiz-adv-x="836" 
d="M649 714h99v-427q0 -305 -330 -305t-330 305v427h99v-430q0 -109 56.5 -161.5t174.5 -52.5t174.5 52.5t56.5 161.5v430zM342 773h-90l133 135h115zM556 773h-90l133 135h115z" />
    <glyph glyph-name="uhungarumlaut" unicode="&#x171;" horiz-adv-x="685" 
d="M510 0v96q-44 -57 -99.5 -84.5t-125.5 -27.5q-100 0 -153.5 50.5t-53.5 145.5v337h94v-320q0 -68 33.5 -100.5t103.5 -32.5q83 0 149 58q25 23 38 51.5t13 59.5v284h94v-517h-93zM188 591l124 143h108l-143 -143h-89zM390 591l124 143h108l-143 -143h-89z" />
    <glyph glyph-name="Uogonek" unicode="&#x172;" horiz-adv-x="836" 
d="M649 714h99v-427q0 -305 -330 -305t-330 305v427h99v-430q0 -109 56.5 -161.5t174.5 -52.5t174.5 52.5t56.5 161.5v430zM561 -182q-17 -4 -47 -4q-62 0 -93.5 21t-31.5 61q0 64 112 117l54 -13q-82 -46 -82 -88q0 -35 56 -35q16 0 32 3v-62z" />
    <glyph glyph-name="uogonek" unicode="&#x173;" horiz-adv-x="685" 
d="M510 0v96q-44 -57 -99.5 -84.5t-125.5 -27.5q-100 0 -153.5 50.5t-53.5 145.5v337h94v-320q0 -68 33.5 -100.5t103.5 -32.5q83 0 149 58q25 23 38 51.5t13 59.5v284h94v-517h-93zM611 -176q-17 -4 -46 -4q-122 0 -122 80q0 30 26 57.5t79 55.5l55 -13q-79 -47 -79 -85
q0 -17 13 -25t41 -8q14 0 33 3v-61z" />
    <glyph glyph-name="Wcircumflex" unicode="&#x174;" horiz-adv-x="1141" 
d="M766 0l-197 588l-198 -588h-106l-245 714h113l188 -590l198 586h106l199 -588l188 592h109l-245 -714h-110zM668 773l-96 77l-96 -77h-91l141 135h92l141 -135h-91z" />
    <glyph glyph-name="wcircumflex" unicode="&#x175;" horiz-adv-x="901" 
d="M603 0l-154 409l-152 -409h-98l-187 517h102l138 -411l154 408h94l154 -407l138 410h97l-187 -517h-99zM553 591l-101 88l-101 -88h-87l142 143h92l142 -143h-87z" />
    <glyph glyph-name="Ycircumflex" unicode="&#x176;" horiz-adv-x="745" 
d="M323 0v300l-307 414h119l240 -329l240 329h114l-307 -414v-300h-99zM471 773l-96 77l-96 -77h-91l141 135h92l141 -135h-91z" />
    <glyph glyph-name="ycircumflex" unicode="&#x177;" horiz-adv-x="619" 
d="M270 13l-260 504h110l201 -406l183 406h105l-274 -575q-39 -82 -81.5 -114.5t-109.5 -32.5q-27 0 -48 4.5t-46 14.5l17 72q33 -12 66 -12q39 0 65.5 19.5t45.5 61.5zM415 591l-101 88l-101 -88h-87l142 143h92l142 -143h-87z" />
    <glyph glyph-name="Ydieresis" unicode="&#x178;" horiz-adv-x="745" 
d="M323 0v300l-307 414h119l240 -329l240 329h114l-307 -414v-300h-99zM213 784v105h98v-105h-98zM439 784v105h98v-105h-98z" />
    <glyph glyph-name="Zacute" unicode="&#x179;" horiz-adv-x="699" 
d="M28 0v78l509 549h-500v87h627v-78l-509 -549h523l-17 -87h-633zM373 773h-98l144 135h121z" />
    <glyph glyph-name="zacute" unicode="&#x17a;" horiz-adv-x="584" 
d="M34 0v70l370 371h-362v76h487v-70l-370 -371h392l-13 -76h-504zM306 591h-95l141 143h117z" />
    <glyph glyph-name="Zdotaccent" unicode="&#x17b;" horiz-adv-x="699" 
d="M28 0v78l509 549h-500v87h627v-78l-509 -549h523l-17 -87h-633zM299 783v107h103v-107h-103z" />
    <glyph glyph-name="zdotaccent" unicode="&#x17c;" horiz-adv-x="584" 
d="M34 0v70l370 371h-362v76h487v-70l-370 -371h392l-13 -76h-504zM236 612v102h100v-102h-100z" />
    <glyph glyph-name="Zcaron" unicode="&#x17d;" horiz-adv-x="699" 
d="M28 0v78l509 549h-500v87h627v-78l-509 -549h523l-17 -87h-633zM397 773h-92l-141 135h91l96 -77l96 77h91z" />
    <glyph glyph-name="zcaron" unicode="&#x17e;" horiz-adv-x="584" 
d="M34 0v70l370 371h-362v76h487v-70l-370 -371h392l-13 -76h-504zM240 591l-142 143h87l101 -88l101 88h87l-142 -143h-92z" />
    <glyph glyph-name="longs" unicode="&#x17f;" horiz-adv-x="258" 
d="M82 0v561q0 76 50.5 118.5t140.5 42.5q56 0 102 -13l-16 -72q-31 8 -70 8q-113 0 -113 -84v-561h-94z" />
    <glyph glyph-name="florin" unicode="&#x192;" horiz-adv-x="412" 
d="M124 443h-101v74h101v44q0 76 50.5 118.5t140.5 42.5q56 0 102 -13l-16 -72q-31 8 -70 8q-113 0 -113 -84v-44h176v-74h-176v-468q0 -92 -39 -136t-120 -44q-55 0 -108 18l17 71q42 -12 80 -12q40 0 58 19t18 62v490z" />
    <glyph glyph-name="uni0218" unicode="&#x218;" horiz-adv-x="781" 
d="M611 529q-25 62 -76.5 89t-144.5 27q-106 0 -163.5 -28t-57.5 -80q0 -35 17.5 -57.5t55 -36.5t100.5 -23l138 -20q124 -19 183.5 -70.5t59.5 -140.5q0 -98 -84 -152.5t-234 -54.5q-166 0 -254 56t-101 170h102q14 -71 76 -105t177 -34q104 0 160 31.5t56 89.5
q0 49 -38 77t-124 41l-124 18q-100 15 -157.5 41t-83 66.5t-25.5 100.5q0 93 85 145.5t236 52.5q93 0 155.5 -19.5t101.5 -60.5t59 -106zM259 -218l93 152h104l-114 -152h-83z" />
    <glyph glyph-name="uni0219" unicode="&#x219;" horiz-adv-x="629" 
d="M477 381q-15 40 -56.5 59.5t-113.5 19.5t-114 -20t-42 -54t29.5 -51t110.5 -29l66 -10q88 -13 134.5 -31.5t66 -47.5t19.5 -75q0 -158 -256 -158q-123 0 -191 41.5t-83 125.5h89q29 -93 183 -93q81 0 125.5 21t44.5 60q0 34 -32 51t-119 30l-61 9q-84 13 -129.5 32
t-64.5 48.5t-19 74.5q0 70 64.5 109.5t178.5 39.5q112 0 172.5 -33t83.5 -108zM179 -212l90 146h101l-109 -146h-82z" />
    <glyph glyph-name="uni021A" unicode="&#x21a;" horiz-adv-x="719" 
d="M310 0v627h-296v87h691v-87h-296v-627h-99zM226 -218l93 152h104l-114 -152h-83z" />
    <glyph glyph-name="uni021B" unicode="&#x21b;" horiz-adv-x="438" 
d="M417 9q-60 -20 -128 -20q-85 0 -125 41t-40 130v283h-101v74h101v141h94v-141h184v-74h-184v-291q0 -86 87 -86q48 0 97 16zM133 -212l90 146h101l-109 -146h-82z" />
    <glyph glyph-name="uni0237" unicode="&#x237;" horiz-adv-x="258" 
d="M82 517h94v-542q0 -92 -39 -136t-120 -44q-56 0 -108 18l17 71q42 -12 80 -12q40 0 58 19t18 62v564z" />
    <glyph glyph-name="uni02BC" unicode="&#x2bc;" horiz-adv-x="696" 
d="M277 498l37 216h106l-62 -216h-81z" />
    <glyph glyph-name="circumflex" unicode="&#x2c6;" horiz-adv-x="696" 
d="M449 591l-101 88l-101 -88h-87l142 143h92l142 -143h-87z" />
    <glyph glyph-name="caron" unicode="&#x2c7;" horiz-adv-x="696" 
d="M302 591l-142 143h87l101 -88l101 88h87l-142 -143h-92z" />
    <glyph glyph-name="uni02C9" unicode="&#x2c9;" horiz-adv-x="696" 
d="M189 623v73h318v-73h-318z" />
    <glyph glyph-name="uni02CB" unicode="&#x2cb;" horiz-adv-x="696" 
d="M382 591l-163 143h117l141 -143h-95z" />
    <glyph glyph-name="breve" unicode="&#x2d8;" horiz-adv-x="696" 
d="M511 730q0 -67 -42.5 -103.5t-120.5 -36.5t-120.5 36.5t-42.5 103.5h71q0 -39 24.5 -60t67.5 -21t67.5 21t24.5 60h71z" />
    <glyph glyph-name="dotaccent" unicode="&#x2d9;" horiz-adv-x="696" 
d="M298 612v102h100v-102h-100z" />
    <glyph glyph-name="ring" unicode="&#x2da;" horiz-adv-x="696" 
d="M470 690q0 -46 -33.5 -73.5t-88.5 -27.5t-88.5 27.5t-33.5 73.5t33 74t89 28t89 -28t33 -74zM411 690q0 52 -63 52t-63 -52q0 -25 16.5 -38t46.5 -13t46.5 13t16.5 38z" />
    <glyph glyph-name="ogonek" unicode="&#x2db;" horiz-adv-x="696" 
d="M432 -176q-17 -4 -46 -4q-122 0 -122 80q0 30 26 57.5t79 55.5l55 -13q-79 -47 -79 -85q0 -17 13 -25t41 -8q14 0 33 3v-61z" />
    <glyph glyph-name="tilde" unicode="&#x2dc;" horiz-adv-x="696" 
d="M561 721q0 -60 -31 -91.5t-90 -31.5q-25 0 -47.5 7.5t-55.5 26.5q-25 14 -41 20t-32 6q-31 0 -45 -13t-14 -41h-69q0 60 31 91.5t90 31.5q25 0 47.5 -7.5t55.5 -26.5q25 -14 41 -20t32 -6q31 0 45 13t14 41h69z" />
    <glyph glyph-name="hungarumlaut" unicode="&#x2dd;" horiz-adv-x="696" 
d="M131 591l124 143h108l-143 -143h-89zM333 591l124 143h108l-143 -143h-89z" />
    <glyph glyph-name="gravecomb" unicode="&#x300;" horiz-adv-x="0" 
d="M-20 591l-163 143h117l141 -143h-95z" />
    <glyph glyph-name="acutecomb" unicode="&#x301;" horiz-adv-x="0" 
d="M20 591h-95l141 143h117z" />
    <glyph glyph-name="uni0302" unicode="&#x302;" horiz-adv-x="0" 
d="M101 591l-101 88l-101 -88h-87l142 143h92l142 -143h-87z" />
    <glyph glyph-name="tildecomb" unicode="&#x303;" horiz-adv-x="0" 
d="M213 721q0 -60 -31 -91.5t-90 -31.5q-25 0 -47.5 7.5t-55.5 26.5q-25 14 -41 20t-32 6q-31 0 -45 -13t-14 -41h-69q0 60 31 91.5t90 31.5q25 0 47.5 -7.5t55.5 -26.5q25 -14 41 -20t32 -6q31 0 45 13t14 41h69z" />
    <glyph glyph-name="uni0304" unicode="&#x304;" horiz-adv-x="0" 
d="M-159 623v73h318v-73h-318z" />
    <glyph glyph-name="uni0306" unicode="&#x306;" horiz-adv-x="0" 
d="M163 730q0 -67 -42.5 -103.5t-120.5 -36.5t-120.5 36.5t-42.5 103.5h71q0 -39 24.5 -60t67.5 -21t67.5 21t24.5 60h71z" />
    <glyph glyph-name="uni0307" unicode="&#x307;" horiz-adv-x="0" 
d="M-50 612v102h100v-102h-100z" />
    <glyph glyph-name="uni0308" unicode="&#x308;" horiz-adv-x="0" 
d="M-156 612v102h93v-102h-93zM63 612v102h93v-102h-93z" />
    <glyph glyph-name="uni030A" unicode="&#x30a;" horiz-adv-x="0" 
d="M122 690q0 -46 -33.5 -73.5t-88.5 -27.5t-88.5 27.5t-33.5 73.5t33 74t89 28t89 -28t33 -74zM63 690q0 52 -63 52t-63 -52q0 -25 16.5 -38t46.5 -13t46.5 13t16.5 38z" />
    <glyph glyph-name="uni030B" unicode="&#x30b;" horiz-adv-x="0" 
d="M-153 591l124 143h108l-143 -143h-89zM49 591l124 143h108l-143 -143h-89z" />
    <glyph glyph-name="uni030C" unicode="&#x30c;" horiz-adv-x="0" 
d="M-46 591l-142 143h87l101 -88l101 88h87l-142 -143h-92z" />
    <glyph glyph-name="uni0312" unicode="&#x312;" horiz-adv-x="0" 
d="M-56 591l107 143h82l-88 -143h-101z" />
    <glyph glyph-name="uni0315" unicode="&#x315;" horiz-adv-x="0" 
d="M-57 510l33 204h89l-52 -204h-70z" />
    <glyph glyph-name="uni0326" unicode="&#x326;" horiz-adv-x="0" 
d="M-139 -212l90 146h101l-109 -146h-82z" />
    <glyph glyph-name="uni0327" unicode="&#x327;" horiz-adv-x="0" 
d="M-112 -140q49 -10 83 -10q31 0 48 7.5t17 21.5q0 16 -19 23t-66 7h-25l41 103l58 -12l-18 -47q107 -11 107 -80q0 -39 -34.5 -60t-98.5 -21q-65 0 -93 11v57z" />
    <glyph glyph-name="uni0328" unicode="&#x328;" horiz-adv-x="0" 
d="M55 -176q-17 -4 -46 -4q-122 0 -122 80q0 30 26 57.5t79 55.5l55 -13q-79 -47 -79 -85q0 -17 13 -25t41 -8q14 0 33 3v-61z" />
    <glyph glyph-name="uni0394" unicode="&#x394;" horiz-adv-x="818" 
d="M16 0l342 714h102l342 -714h-786zM407 608l-245 -526h491z" />
    <glyph glyph-name="uni03A9" unicode="&#x3a9;" horiz-adv-x="902" 
d="M539 0v73q95 51 139.5 124t44.5 179q0 129 -71 198.5t-201 69.5t-201 -69.5t-71 -198.5q0 -106 44.5 -179t139.5 -124v-73h-324v87h193q-157 117 -157 292q0 104 45.5 183.5t131 124.5t199.5 45q110 0 195 -42.5t133 -123t48 -187.5q0 -175 -157 -292h193l-16 -87h-308z
" />
    <glyph glyph-name="uni03BC" unicode="&#x3bc;" horiz-adv-x="689" 
d="M514 0v96q-45 -58 -97.5 -84.5t-121.5 -26.5q-84 0 -119 38v-217h-94v711h94v-320q0 -68 33.5 -100t103.5 -32q84 0 149 57q25 23 38 51.5t13 59.5v284h94v-517h-93z" />
    <glyph glyph-name="pi" unicode="&#x3c0;" horiz-adv-x="725" 
d="M696 0q-36 -11 -79 -11q-70 0 -104 36t-34 109v307h-248v-441h-94v441h-119v76h680v-76h-125v-304q0 -39 15 -55t52 -16q18 0 45 5z" />
    <glyph glyph-name="Wgrave" unicode="&#x1e80;" horiz-adv-x="1141" 
d="M766 0l-197 588l-198 -588h-106l-245 714h113l188 -590l198 586h106l199 -588l188 592h109l-245 -714h-110zM550 773l-167 135h121l144 -135h-98z" />
    <glyph glyph-name="wgrave" unicode="&#x1e81;" horiz-adv-x="901" 
d="M603 0l-154 409l-152 -409h-98l-187 517h102l138 -411l154 408h94l154 -407l138 410h97l-187 -517h-99zM432 591l-163 143h117l141 -143h-95z" />
    <glyph glyph-name="Wacute" unicode="&#x1e82;" horiz-adv-x="1141" 
d="M766 0l-197 588l-198 -588h-106l-245 714h113l188 -590l198 586h106l199 -588l188 592h109l-245 -714h-110zM594 773h-98l144 135h121z" />
    <glyph glyph-name="wacute" unicode="&#x1e83;" horiz-adv-x="901" 
d="M603 0l-154 409l-152 -409h-98l-187 517h102l138 -411l154 408h94l154 -407l138 410h97l-187 -517h-99zM472 591h-95l141 143h117z" />
    <glyph glyph-name="Wdieresis" unicode="&#x1e84;" horiz-adv-x="1141" 
d="M766 0l-197 588l-198 -588h-106l-245 714h113l188 -590l198 586h106l199 -588l188 592h109l-245 -714h-110zM410 784v105h98v-105h-98zM636 784v105h98v-105h-98z" />
    <glyph glyph-name="wdieresis" unicode="&#x1e85;" horiz-adv-x="901" 
d="M603 0l-154 409l-152 -409h-98l-187 517h102l138 -411l154 408h94l154 -407l138 410h97l-187 -517h-99zM296 612v102h93v-102h-93zM515 612v102h93v-102h-93z" />
    <glyph glyph-name="uni1E9E" unicode="&#x1e9e;" horiz-adv-x="916" 
d="M571 300q-74 16 -115.5 36t-59.5 48t-18 68q0 37 16.5 64.5t55 54t107.5 60.5h-163q-97 0 -150 -51.5t-53 -147.5v-432h-99v433q0 133 79 207t219 74h317v-80l-25 -12q-113 -55 -158 -90.5t-45 -70.5q0 -28 29.5 -45.5t102.5 -31.5l42 -8q124 -24 177.5 -70.5
t53.5 -128.5q0 -94 -71.5 -144.5t-203.5 -50.5t-200 48t-81 149h105q11 -59 52.5 -85t123.5 -26q172 0 172 109q0 34 -16 53.5t-53.5 33.5t-107.5 29z" />
    <glyph glyph-name="Ygrave" unicode="&#x1ef2;" horiz-adv-x="745" 
d="M323 0v300l-307 414h119l240 -329l240 329h114l-307 -414v-300h-99zM353 773l-167 135h121l144 -135h-98z" />
    <glyph glyph-name="ygrave" unicode="&#x1ef3;" horiz-adv-x="619" 
d="M270 13l-260 504h110l201 -406l183 406h105l-274 -575q-39 -82 -81.5 -114.5t-109.5 -32.5q-27 0 -48 4.5t-46 14.5l17 72q33 -12 66 -12q39 0 65.5 19.5t45.5 61.5zM294 591l-163 143h117l141 -143h-95z" />
    <glyph glyph-name="uni2000" unicode="&#x2000;" horiz-adv-x="610" 
 />
    <glyph glyph-name="uni2001" unicode="&#x2001;" horiz-adv-x="1220" 
 />
    <glyph glyph-name="uni2002" unicode="&#x2002;" horiz-adv-x="610" 
 />
    <glyph glyph-name="uni2003" unicode="&#x2003;" horiz-adv-x="1220" 
 />
    <glyph glyph-name="uni2004" unicode="&#x2004;" horiz-adv-x="407" 
 />
    <glyph glyph-name="uni2005" unicode="&#x2005;" horiz-adv-x="305" 
 />
    <glyph glyph-name="uni2006" unicode="&#x2006;" horiz-adv-x="203" 
 />
    <glyph glyph-name="uni2007" unicode="&#x2007;" horiz-adv-x="700" 
 />
    <glyph glyph-name="uni2008" unicode="&#x2008;" horiz-adv-x="266" 
 />
    <glyph glyph-name="uni2009" unicode="&#x2009;" horiz-adv-x="244" 
 />
    <glyph glyph-name="uni200A" unicode="&#x200a;" horiz-adv-x="50" 
 />
    <glyph glyph-name="uni200B" unicode="&#x200b;" horiz-adv-x="0" 
 />
    <glyph glyph-name="uni2010" unicode="&#x2010;" horiz-adv-x="468" 
d="M52 248v90h364v-90h-364z" />
    <glyph glyph-name="uni2012" unicode="&#x2012;" horiz-adv-x="700" 
d="M45 304v86h610v-86h-610z" />
    <glyph glyph-name="endash" unicode="&#x2013;" horiz-adv-x="610" 
d="M0 250v86h610v-86h-610z" />
    <glyph glyph-name="emdash" unicode="&#x2014;" horiz-adv-x="1220" 
d="M0 250v86h1220v-86h-1220z" />
    <glyph glyph-name="uni2015" unicode="&#x2015;" horiz-adv-x="1220" 
d="M0 250v86h1220v-86h-1220z" />
    <glyph glyph-name="quoteleft" unicode="&#x2018;" horiz-adv-x="217" 
d="M44 498l63 216h74l-38 -216h-99z" />
    <glyph glyph-name="quoteright" unicode="&#x2019;" horiz-adv-x="217" 
d="M36 498l38 216h99l-63 -216h-74z" />
    <glyph glyph-name="quotesinglbase" unicode="&#x201a;" horiz-adv-x="217" 
d="M36 -96l38 216h99l-63 -216h-74z" />
    <glyph glyph-name="quotedblleft" unicode="&#x201c;" horiz-adv-x="379" 
d="M44 498l63 216h74l-38 -216h-99zM206 498l63 216h74l-38 -216h-99z" />
    <glyph glyph-name="quotedblright" unicode="&#x201d;" horiz-adv-x="379" 
d="M36 498l38 216h99l-63 -216h-74zM198 498l38 216h99l-63 -216h-74z" />
    <glyph glyph-name="quotedblbase" unicode="&#x201e;" horiz-adv-x="379" 
d="M36 -96l38 216h99l-63 -216h-74zM198 -96l38 216h99l-63 -216h-74z" />
    <glyph glyph-name="dagger" unicode="&#x2020;" horiz-adv-x="560" 
d="M233 -87v530h-217v82h217v189h94v-189h217v-82h-217v-530h-94z" />
    <glyph glyph-name="daggerdbl" unicode="&#x2021;" horiz-adv-x="560" 
d="M327 102v-189h-94v189h-217v82h217v259h-217v82h217v189h94v-189h217v-82h-217v-259h217v-82h-217z" />
    <glyph glyph-name="bullet" unicode="&#x2022;" horiz-adv-x="396" 
d="M352 293q0 -64 -42 -102.5t-112 -38.5t-112 38.5t-42 102.5t42 102.5t112 38.5t112 -38.5t42 -102.5z" />
    <glyph glyph-name="ellipsis" unicode="&#x2026;" horiz-adv-x="1220" 
d="M151 0v119h106v-119h-106zM557 0v119h106v-119h-106zM963 0v119h106v-119h-106z" />
    <glyph glyph-name="perthousand" unicode="&#x2030;" horiz-adv-x="1560" 
d="M286 0l427 691h92l-427 -691h-92zM845 -13q-92 0 -145.5 58t-53.5 157q0 98 54 156.5t145 58.5q92 0 145.5 -58t53.5 -157q0 -98 -54 -156.5t-145 -58.5zM845 52q58 0 87.5 38t29.5 112q0 150 -117 150q-58 0 -87.5 -38t-29.5 -112q0 -150 117 -150zM1314 -13
q-92 0 -145.5 58t-53.5 157q0 98 54 156.5t145 58.5q92 0 145.5 -58t53.5 -157q0 -98 -54 -156.5t-145 -58.5zM1314 52q58 0 87.5 38t29.5 112q0 150 -117 150q-58 0 -87.5 -38t-29.5 -112q0 -150 117 -150zM246 274q-92 0 -145.5 58t-53.5 157q0 98 54 156.5t145 58.5
q92 0 145.5 -58t53.5 -157q0 -98 -54 -156.5t-145 -58.5zM246 339q58 0 87.5 38t29.5 112q0 150 -117 150q-58 0 -87.5 -38t-29.5 -112q0 -150 117 -150z" />
    <glyph glyph-name="minute" unicode="&#x2032;" horiz-adv-x="247" 
d="M49 458l50 256h99l-73 -256h-76z" />
    <glyph glyph-name="second" unicode="&#x2033;" horiz-adv-x="432" 
d="M49 458l50 256h99l-73 -256h-76zM234 458l50 256h99l-73 -256h-76z" />
    <glyph glyph-name="guilsinglleft" unicode="&#x2039;" horiz-adv-x="351" 
d="M208 33l-170 223l170 223h99l-161 -222l163 -224h-101z" />
    <glyph glyph-name="guilsinglright" unicode="&#x203a;" horiz-adv-x="351" 
d="M44 33l161 222l-163 224h101l170 -223l-170 -223h-99z" />
    <glyph glyph-name="fraction" unicode="&#x2044;" horiz-adv-x="99" 
d="M-210 0l427 691h92l-427 -691h-92z" />
    <glyph glyph-name="uni2070" unicode="&#x2070;" 
d="M246 393q-92 0 -145.5 58t-53.5 157q0 98 54 156.5t145 58.5q92 0 145.5 -58t53.5 -157q0 -98 -54 -156.5t-145 -58.5zM246 458q58 0 87.5 38t29.5 112q0 150 -117 150q-58 0 -87.5 -38t-29.5 -112q0 -150 117 -150z" />
    <glyph glyph-name="uni2074" unicode="&#x2074;" 
d="M310 406v93h-256v51l254 260h72v-251h77l-11 -60h-66v-93h-70zM310 732l-173 -173h173v173z" />
    <glyph glyph-name="uni2075" unicode="&#x2075;" 
d="M172 747l-11 -110q15 13 44 20.5t65 7.5q77 0 120 -34.5t43 -95.5q0 -67 -45.5 -104.5t-127.5 -37.5q-77 0 -124 31.5t-56 89.5h70q9 -31 34.5 -45t74.5 -14q47 0 72.5 20.5t25.5 58.5q0 36 -25 54.5t-73 18.5q-70 0 -107 -29h-60l24 232h286v-63h-230z" />
    <glyph glyph-name="uni2076" unicode="&#x2076;" 
d="M359 707q-11 28 -34.5 41t-64.5 13q-116 0 -125 -141q45 45 134 45q80 0 122.5 -34.5t42.5 -97.5q0 -64 -49.5 -102t-134.5 -38q-91 0 -139.5 48.5t-48.5 139.5q0 115 52 178.5t147 63.5q70 0 109.5 -25.5t56.5 -80.5zM359 531q0 77 -102 77q-56 0 -86 -19t-30 -53
q0 -38 29 -59.5t80 -21.5q52 0 80.5 20t28.5 56z" />
    <glyph glyph-name="uni2077" unicode="&#x2077;" 
d="M155 406q82 211 178 340h-271v64h357v-55q-124 -169 -181 -349h-83z" />
    <glyph glyph-name="uni2078" unicode="&#x2078;" 
d="M347 617q86 -27 86 -101q0 -60 -48 -91.5t-139 -31.5q-93 0 -140 31t-47 92q0 35 22.5 61.5t63.5 39.5q-68 27 -68 89q0 55 45 86t125 31t124 -30.5t44 -86.5q0 -30 -17.5 -53t-50.5 -36zM342 705q0 29 -25.5 44.5t-71.5 15.5t-70.5 -16t-24.5 -45q0 -32 23 -47t72 -15
q50 0 73.5 15.5t23.5 47.5zM357 517q0 67 -112 67q-110 0 -110 -67q0 -32 28 -49t82 -17q55 0 83.5 17t28.5 49z" />
    <glyph glyph-name="uni2079" unicode="&#x2079;" 
d="M139 507q9 -28 33.5 -40t70.5 -12q61 0 90.5 34.5t29.5 106.5q-45 -45 -134 -45q-80 0 -122.5 34.5t-42.5 97.5q0 64 50 102t134 38q90 0 139 -50.5t49 -142.5q0 -237 -193 -237q-77 0 -118.5 27t-55.5 87h70zM356 680q0 38 -29 59.5t-79 21.5q-51 0 -79.5 -20t-28.5 -56
q0 -77 101 -77q55 0 85 19t30 53z" />
    <glyph glyph-name="uni2080" unicode="&#x2080;" 
d="M246 -135q-92 0 -145.5 58t-53.5 157q0 98 54 156.5t145 58.5q92 0 145.5 -58t53.5 -157q0 -98 -54 -156.5t-145 -58.5zM246 -70q58 0 87.5 38t29.5 112q0 150 -117 150q-58 0 -87.5 -38t-29.5 -112q0 -150 117 -150z" />
    <glyph glyph-name="uni2081" unicode="&#x2081;" 
d="M256 -122v320l-126 -72l-31 56l168 100h69v-404h-80z" />
    <glyph glyph-name="uni2082" unicode="&#x2082;" 
d="M69 -122v58q48 31 140 97q66 48 89.5 68t31 33.5t7.5 31.5q0 32 -22.5 49t-64.5 17q-48 0 -74.5 -17.5t-37.5 -57.5l-71 11q16 62 64 94.5t123 32.5q74 0 119 -33t45 -87q0 -32 -13.5 -54.5t-46 -50t-100.5 -75.5q-47 -33 -82 -54h251l-12 -63h-346z" />
    <glyph glyph-name="uni2083" unicode="&#x2083;" 
d="M197 55v63h61q40 0 61.5 15.5t21.5 44.5q0 55 -92 55q-45 0 -69.5 -15t-36.5 -49l-70 11q12 53 59.5 84t116.5 31q79 0 123.5 -29t44.5 -81q0 -32 -18.5 -54t-57.5 -38q87 -25 87 -98q0 -62 -46 -96t-131 -34q-80 0 -129.5 37t-52.5 99h70q9 -40 34.5 -57t75.5 -17
t76.5 17t26.5 50q0 32 -22.5 46.5t-71.5 14.5h-61z" />
    <glyph glyph-name="uni2084" unicode="&#x2084;" 
d="M310 -122v93h-256v51l254 260h72v-251h77l-11 -60h-66v-93h-70zM310 204l-173 -173h173v173z" />
    <glyph glyph-name="uni2085" unicode="&#x2085;" 
d="M172 219l-11 -110q15 13 44 20.5t65 7.5q77 0 120 -34.5t43 -95.5q0 -67 -45.5 -104.5t-127.5 -37.5q-77 0 -124 31.5t-56 89.5h70q9 -31 34.5 -45t74.5 -14q47 0 72.5 20.5t25.5 58.5q0 36 -25 54.5t-73 18.5q-70 0 -107 -29h-60l24 232h286v-63h-230z" />
    <glyph glyph-name="uni2086" unicode="&#x2086;" 
d="M359 179q-11 28 -34.5 41t-64.5 13q-116 0 -125 -141q45 45 134 45q80 0 122.5 -34.5t42.5 -97.5q0 -64 -49.5 -102t-134.5 -38q-91 0 -139.5 48.5t-48.5 139.5q0 115 52 178.5t147 63.5q70 0 109.5 -25.5t56.5 -80.5zM359 3q0 77 -102 77q-56 0 -86 -19t-30 -53
q0 -38 29 -59.5t80 -21.5q52 0 80.5 20t28.5 56z" />
    <glyph glyph-name="uni2087" unicode="&#x2087;" 
d="M155 -122q82 211 178 340h-271v64h357v-55q-124 -169 -181 -349h-83z" />
    <glyph glyph-name="uni2088" unicode="&#x2088;" 
d="M347 89q86 -27 86 -101q0 -60 -48 -91.5t-139 -31.5q-93 0 -140 31t-47 92q0 35 22.5 61.5t63.5 39.5q-68 27 -68 89q0 55 45 86t125 31t124 -30.5t44 -86.5q0 -30 -17.5 -53t-50.5 -36zM342 177q0 29 -25.5 44.5t-71.5 15.5t-70.5 -16t-24.5 -45q0 -32 23 -47t72 -15
q50 0 73.5 15.5t23.5 47.5zM357 -11q0 67 -112 67q-110 0 -110 -67q0 -32 28 -49t82 -17q55 0 83.5 17t28.5 49z" />
    <glyph glyph-name="uni2089" unicode="&#x2089;" 
d="M139 -21q9 -28 33.5 -40t70.5 -12q61 0 90.5 34.5t29.5 106.5q-45 -45 -134 -45q-80 0 -122.5 34.5t-42.5 97.5q0 64 50 102t134 38q90 0 139 -50.5t49 -142.5q0 -237 -193 -237q-77 0 -118.5 27t-55.5 87h70zM356 152q0 38 -29 59.5t-79 21.5q-51 0 -79.5 -20t-28.5 -56
q0 -77 101 -77q55 0 85 19t30 53z" />
    <glyph glyph-name="Euro" unicode="&#x20ac;" horiz-adv-x="700" 
d="M690 199q-15 -108 -85 -162.5t-193 -54.5q-127 0 -203.5 63t-96.5 184h-92l17 71h67q-2 22 -2 43q0 18 3 45h-85l17 71h78q23 120 101.5 185.5t197.5 65.5q112 0 175 -45t89 -144l-85 -14q-21 66 -63 94t-119 28q-81 0 -133 -43.5t-70 -126.5h303l-17 -71h-296
q-3 -27 -3 -45q0 -21 2 -43h281l-17 -71h-256q36 -166 208 -166q86 0 130 32t57 104h90z" />
    <glyph glyph-name="uni20B9" unicode="&#x20b9;" horiz-adv-x="700" 
d="M481 0l-386 274v72h174q99 0 147.5 23t58.5 76h-380v74h379q-21 98 -181 98h-198v74h580l-11 -74h-155q24 -18 38 -42t19 -56h83l-11 -74h-71q-22 -171 -287 -171h-43l386 -274h-142z" />
    <glyph glyph-name="uni20BA" unicode="&#x20ba;" horiz-adv-x="700" 
d="M653 309q-6 -97 -53.5 -166.5t-130 -106t-191.5 -36.5h-122v277l-84 -26l-20 63l104 32v78l-84 -26l-20 63l104 32v198h97v-170l221 68l20 -63l-241 -74v-78l221 68l20 -63l-241 -74v-220h15q129 0 204 57.5t86 166.5h95z" />
    <glyph glyph-name="afii61289" unicode="&#x2113;" horiz-adv-x="456" 
d="M429 48q-63 -66 -155 -66q-72 0 -113 38t-41 105v74l-64 -49l-33 44l97 80v256q0 91 41.5 143.5t112.5 52.5q64 0 98 -36.5t34 -106.5q0 -79 -49 -160.5t-151 -169.5v-113q0 -43 22.5 -65.5t63.5 -22.5q52 0 98 40zM206 338q62 58 97 122t35 120q0 81 -63 81
q-33 0 -51 -32t-18 -90v-201z" />
    <glyph glyph-name="trademark" unicode="&#x2122;" horiz-adv-x="1074" 
d="M175 314v339h-162v61h397v-61h-162v-339h-73zM920 314v299l-158 -299h-57l-157 300v-300h-68v400h83l172 -322l171 322h82v-400h-68z" />
    <glyph glyph-name="uni2126" unicode="&#x2126;" horiz-adv-x="902" 
d="M539 0v73q95 51 139.5 124t44.5 179q0 129 -71 198.5t-201 69.5t-201 -69.5t-71 -198.5q0 -106 44.5 -179t139.5 -124v-73h-324v87h193q-157 117 -157 292q0 104 45.5 183.5t131 124.5t199.5 45q110 0 195 -42.5t133 -123t48 -187.5q0 -175 -157 -292h193l-16 -87h-308z
" />
    <glyph glyph-name="estimated" unicode="&#x212e;" horiz-adv-x="911" 
d="M775 129q-54 -66 -139 -103t-182 -37q-107 0 -198.5 46.5t-148.5 130t-57 186.5q0 95 51.5 178t145 135t207.5 52q106 0 198.5 -46.5t150.5 -131t58 -187.5v-10h-657q-5 0 -5 -4v-199q0 -13 9 -22q49 -53 112.5 -80.5t135.5 -27.5q75 0 142 31t119 89h58zM711 568
q0 14 -9 24q-50 50 -113.5 76.5t-132.5 26.5q-68 0 -131.5 -27.5t-115.5 -79.5q-10 -7 -10 -24v-195q0 -7 5 -7h503q4 0 4 7v199z" />
    <glyph glyph-name="oneseventh" unicode="&#x2150;" horiz-adv-x="1091" 
d="M247 0l427 691h92l-427 -691h-92zM754 0q82 211 178 340h-271v64h357v-55q-124 -169 -181 -349h-83zM256 287v320l-126 -72l-31 56l168 100h69v-404h-80z" />
    <glyph glyph-name="oneninth" unicode="&#x2151;" horiz-adv-x="1091" 
d="M264 0l427 691h92l-427 -691h-92zM738 101q9 -28 33.5 -40t70.5 -12q61 0 90.5 34.5t29.5 106.5q-45 -45 -134 -45q-80 0 -122.5 34.5t-42.5 97.5q0 64 50 102t134 38q90 0 139 -50.5t49 -142.5q0 -237 -193 -237q-77 0 -118.5 27t-55.5 87h70zM955 274q0 38 -29 59.5
t-79 21.5q-51 0 -79.5 -20t-28.5 -56q0 -77 101 -77q55 0 85 19t30 53zM256 287v320l-126 -72l-31 56l168 100h69v-404h-80z" />
    <glyph glyph-name="onethird" unicode="&#x2153;" horiz-adv-x="1091" 
d="M274 0l427 691h92l-427 -691h-92zM796 177v63h61q40 0 61.5 15.5t21.5 44.5q0 55 -92 55q-45 0 -69.5 -15t-36.5 -49l-70 11q12 53 59.5 84t116.5 31q79 0 123.5 -29t44.5 -81q0 -32 -18.5 -54t-57.5 -38q87 -25 87 -98q0 -62 -46 -96t-131 -34q-80 0 -129.5 37t-52.5 99
h70q9 -40 34.5 -57t75.5 -17t76.5 17t26.5 50q0 32 -22.5 46.5t-71.5 14.5h-61zM256 287v320l-126 -72l-31 56l168 100h69v-404h-80z" />
    <glyph glyph-name="twothirds" unicode="&#x2154;" horiz-adv-x="1091" 
d="M304 0l427 691h92l-427 -691h-92zM796 177v63h61q40 0 61.5 15.5t21.5 44.5q0 55 -92 55q-45 0 -69.5 -15t-36.5 -49l-70 11q12 53 59.5 84t116.5 31q79 0 123.5 -29t44.5 -81q0 -32 -18.5 -54t-57.5 -38q87 -25 87 -98q0 -62 -46 -96t-131 -34q-80 0 -129.5 37t-52.5 99
h70q9 -40 34.5 -57t75.5 -17t76.5 17t26.5 50q0 32 -22.5 46.5t-71.5 14.5h-61zM69 287v58q48 31 140 97q66 48 89.5 68t31 33.5t7.5 31.5q0 32 -22.5 49t-64.5 17q-48 0 -74.5 -17.5t-37.5 -57.5l-71 11q16 62 64 94.5t123 32.5q74 0 119 -33t45 -87q0 -32 -13.5 -54.5
t-46 -50t-100.5 -75.5q-47 -33 -82 -54h251l-12 -63h-346z" />
    <glyph glyph-name="onefifth" unicode="&#x2155;" horiz-adv-x="1091" 
d="M268 0l427 691h92l-427 -691h-92zM771 341l-11 -110q15 13 44 20.5t65 7.5q77 0 120 -34.5t43 -95.5q0 -67 -45.5 -104.5t-127.5 -37.5q-77 0 -124 31.5t-56 89.5h70q9 -31 34.5 -45t74.5 -14q47 0 72.5 20.5t25.5 58.5q0 36 -25 54.5t-73 18.5q-70 0 -107 -29h-60
l24 232h286v-63h-230zM256 287v320l-126 -72l-31 56l168 100h69v-404h-80z" />
    <glyph glyph-name="twofifths" unicode="&#x2156;" horiz-adv-x="1091" 
d="M312 0l427 691h92l-427 -691h-92zM771 341l-11 -110q15 13 44 20.5t65 7.5q77 0 120 -34.5t43 -95.5q0 -67 -45.5 -104.5t-127.5 -37.5q-77 0 -124 31.5t-56 89.5h70q9 -31 34.5 -45t74.5 -14q47 0 72.5 20.5t25.5 58.5q0 36 -25 54.5t-73 18.5q-70 0 -107 -29h-60
l24 232h286v-63h-230zM69 287v58q48 31 140 97q66 48 89.5 68t31 33.5t7.5 31.5q0 32 -22.5 49t-64.5 17q-48 0 -74.5 -17.5t-37.5 -57.5l-71 11q16 62 64 94.5t123 32.5q74 0 119 -33t45 -87q0 -32 -13.5 -54.5t-46 -50t-100.5 -75.5q-47 -33 -82 -54h251l-12 -63h-346z
" />
    <glyph glyph-name="threefifths" unicode="&#x2157;" horiz-adv-x="1091" 
d="M295 0l427 691h92l-427 -691h-92zM771 341l-11 -110q15 13 44 20.5t65 7.5q77 0 120 -34.5t43 -95.5q0 -67 -45.5 -104.5t-127.5 -37.5q-77 0 -124 31.5t-56 89.5h70q9 -31 34.5 -45t74.5 -14q47 0 72.5 20.5t25.5 58.5q0 36 -25 54.5t-73 18.5q-70 0 -107 -29h-60
l24 232h286v-63h-230zM197 464v63h61q40 0 61.5 15.5t21.5 44.5q0 55 -92 55q-45 0 -69.5 -15t-36.5 -49l-70 11q12 53 59.5 84t116.5 31q79 0 123.5 -29t44.5 -81q0 -32 -18.5 -54t-57.5 -38q87 -25 87 -98q0 -62 -46 -96t-131 -34q-80 0 -129.5 37t-52.5 99h70
q9 -40 34.5 -57t75.5 -17t76.5 17t26.5 50q0 32 -22.5 46.5t-71.5 14.5h-61z" />
    <glyph glyph-name="fourfifths" unicode="&#x2158;" horiz-adv-x="1091" 
d="M299 0l427 691h92l-427 -691h-92zM771 341l-11 -110q15 13 44 20.5t65 7.5q77 0 120 -34.5t43 -95.5q0 -67 -45.5 -104.5t-127.5 -37.5q-77 0 -124 31.5t-56 89.5h70q9 -31 34.5 -45t74.5 -14q47 0 72.5 20.5t25.5 58.5q0 36 -25 54.5t-73 18.5q-70 0 -107 -29h-60
l24 232h286v-63h-230zM310 287v93h-256v51l254 260h72v-251h77l-11 -60h-66v-93h-70zM310 613l-173 -173h173v173z" />
    <glyph glyph-name="onesixth" unicode="&#x2159;" horiz-adv-x="1091" 
d="M265 0l427 691h92l-427 -691h-92zM958 301q-11 28 -34.5 41t-64.5 13q-116 0 -125 -141q45 45 134 45q80 0 122.5 -34.5t42.5 -97.5q0 -64 -49.5 -102t-134.5 -38q-91 0 -139.5 48.5t-48.5 139.5q0 115 52 178.5t147 63.5q70 0 109.5 -25.5t56.5 -80.5zM958 125
q0 77 -102 77q-56 0 -86 -19t-30 -53q0 -38 29 -59.5t80 -21.5q52 0 80.5 20t28.5 56zM256 287v320l-126 -72l-31 56l168 100h69v-404h-80z" />
    <glyph glyph-name="fivesixths" unicode="&#x215a;" horiz-adv-x="1091" 
d="M297 0l427 691h92l-427 -691h-92zM958 301q-11 28 -34.5 41t-64.5 13q-116 0 -125 -141q45 45 134 45q80 0 122.5 -34.5t42.5 -97.5q0 -64 -49.5 -102t-134.5 -38q-91 0 -139.5 48.5t-48.5 139.5q0 115 52 178.5t147 63.5q70 0 109.5 -25.5t56.5 -80.5zM958 125
q0 77 -102 77q-56 0 -86 -19t-30 -53q0 -38 29 -59.5t80 -21.5q52 0 80.5 20t28.5 56zM172 628l-11 -110q15 13 44 20.5t65 7.5q77 0 120 -34.5t43 -95.5q0 -67 -45.5 -104.5t-127.5 -37.5q-77 0 -124 31.5t-56 89.5h70q9 -31 34.5 -45t74.5 -14q47 0 72.5 20.5t25.5 58.5
q0 36 -25 54.5t-73 18.5q-70 0 -107 -29h-60l24 232h286v-63h-230z" />
    <glyph glyph-name="oneeighth" unicode="&#x215b;" horiz-adv-x="1091" 
d="M266 0l427 691h92l-427 -691h-92zM946 211q86 -27 86 -101q0 -60 -48 -91.5t-139 -31.5q-93 0 -140 31t-47 92q0 35 22.5 61.5t63.5 39.5q-68 27 -68 89q0 55 45 86t125 31t124 -30.5t44 -86.5q0 -30 -17.5 -53t-50.5 -36zM941 299q0 29 -25.5 44.5t-71.5 15.5t-70.5 -16
t-24.5 -45q0 -32 23 -47t72 -15q50 0 73.5 15.5t23.5 47.5zM956 111q0 67 -112 67q-110 0 -110 -67q0 -32 28 -49t82 -17q55 0 83.5 17t28.5 49zM256 287v320l-126 -72l-31 56l168 100h69v-404h-80z" />
    <glyph glyph-name="threeeighths" unicode="&#x215c;" horiz-adv-x="1091" 
d="M294 0l427 691h92l-427 -691h-92zM946 211q86 -27 86 -101q0 -60 -48 -91.5t-139 -31.5q-93 0 -140 31t-47 92q0 35 22.5 61.5t63.5 39.5q-68 27 -68 89q0 55 45 86t125 31t124 -30.5t44 -86.5q0 -30 -17.5 -53t-50.5 -36zM941 299q0 29 -25.5 44.5t-71.5 15.5t-70.5 -16
t-24.5 -45q0 -32 23 -47t72 -15q50 0 73.5 15.5t23.5 47.5zM956 111q0 67 -112 67q-110 0 -110 -67q0 -32 28 -49t82 -17q55 0 83.5 17t28.5 49zM197 464v63h61q40 0 61.5 15.5t21.5 44.5q0 55 -92 55q-45 0 -69.5 -15t-36.5 -49l-70 11q12 53 59.5 84t116.5 31
q79 0 123.5 -29t44.5 -81q0 -32 -18.5 -54t-57.5 -38q87 -25 87 -98q0 -62 -46 -96t-131 -34q-80 0 -129.5 37t-52.5 99h70q9 -40 34.5 -57t75.5 -17t76.5 17t26.5 50q0 32 -22.5 46.5t-71.5 14.5h-61z" />
    <glyph glyph-name="fiveeighths" unicode="&#x215d;" horiz-adv-x="1091" 
d="M291 0l427 691h92l-427 -691h-92zM946 211q86 -27 86 -101q0 -60 -48 -91.5t-139 -31.5q-93 0 -140 31t-47 92q0 35 22.5 61.5t63.5 39.5q-68 27 -68 89q0 55 45 86t125 31t124 -30.5t44 -86.5q0 -30 -17.5 -53t-50.5 -36zM941 299q0 29 -25.5 44.5t-71.5 15.5t-70.5 -16
t-24.5 -45q0 -32 23 -47t72 -15q50 0 73.5 15.5t23.5 47.5zM956 111q0 67 -112 67q-110 0 -110 -67q0 -32 28 -49t82 -17q55 0 83.5 17t28.5 49zM172 628l-11 -110q15 13 44 20.5t65 7.5q77 0 120 -34.5t43 -95.5q0 -67 -45.5 -104.5t-127.5 -37.5q-77 0 -124 31.5t-56 89.5
h70q9 -31 34.5 -45t74.5 -14q47 0 72.5 20.5t25.5 58.5q0 36 -25 54.5t-73 18.5q-70 0 -107 -29h-60l24 232h286v-63h-230z" />
    <glyph glyph-name="seveneighths" unicode="&#x215e;" horiz-adv-x="1091" 
d="M246 0l427 691h92l-427 -691h-92zM946 211q86 -27 86 -101q0 -60 -48 -91.5t-139 -31.5q-93 0 -140 31t-47 92q0 35 22.5 61.5t63.5 39.5q-68 27 -68 89q0 55 45 86t125 31t124 -30.5t44 -86.5q0 -30 -17.5 -53t-50.5 -36zM941 299q0 29 -25.5 44.5t-71.5 15.5t-70.5 -16
t-24.5 -45q0 -32 23 -47t72 -15q50 0 73.5 15.5t23.5 47.5zM956 111q0 67 -112 67q-110 0 -110 -67q0 -32 28 -49t82 -17q55 0 83.5 17t28.5 49zM155 287q82 211 178 340h-271v64h357v-55q-124 -169 -181 -349h-83z" />
    <glyph glyph-name="partialdiff" unicode="&#x2202;" horiz-adv-x="674" 
d="M115 548q26 82 87 122t162 40q129 0 195 -77.5t66 -228.5q0 -97 -20.5 -175.5t-59.5 -132.5q-82 -114 -256 -114q-114 0 -184 58.5t-70 153.5q0 72 35.5 128.5t101.5 88t154 31.5q75 0 130.5 -26t77.5 -71q4 32 4 61q0 227 -178 227q-68 0 -105.5 -22t-59.5 -77zM502 235
q0 61 -48 97t-131 36q-92 0 -145 -46t-53 -125q0 -63 47 -100.5t126 -37.5q89 0 146.5 49.5t57.5 126.5z" />
    <glyph glyph-name="uni2206" unicode="&#x2206;" horiz-adv-x="818" 
d="M16 0l342 714h102l342 -714h-786zM407 608l-245 -526h491z" />
    <glyph glyph-name="product" unicode="&#x220f;" horiz-adv-x="836" 
d="M641 0v627h-446v-627h-99v714h644v-714h-99z" />
    <glyph glyph-name="summation" unicode="&#x2211;" horiz-adv-x="688" 
d="M29 -102v76l280 335l-280 329v76h634v-87h-507l266 -316l-272 -326h529l-17 -87h-633z" />
    <glyph glyph-name="minus" unicode="&#x2212;" horiz-adv-x="700" 
d="M92 299v82h516v-82h-516z" />
    <glyph glyph-name="uni2215" unicode="&#x2215;" horiz-adv-x="99" 
d="M-210 0l427 691h92l-427 -691h-92z" />
    <glyph glyph-name="uni2219" unicode="&#x2219;" horiz-adv-x="266" 
d="M80 280v119h106v-119h-106z" />
    <glyph glyph-name="radical" unicode="&#x221a;" horiz-adv-x="698" 
d="M293 0l-152 307h-105v82h171l137 -291l264 633h105l-319 -731h-101z" />
    <glyph glyph-name="infinity" unicode="&#x221e;" horiz-adv-x="728" 
d="M364 274q-52 -103 -169 -103q-76 0 -119.5 46.5t-43.5 128.5t43.5 128.5t119.5 46.5q117 0 169 -103q52 103 169 103q76 0 119.5 -46.5t43.5 -128.5t-43.5 -128.5t-119.5 -46.5q-117 0 -169 103zM326 346q-15 50 -46.5 76.5t-77.5 26.5q-43 0 -67 -27.5t-24 -75.5
t24 -75.5t67 -27.5q46 0 77.5 26.5t46.5 76.5zM402 346q15 -50 46.5 -76.5t77.5 -26.5q43 0 67 27.5t24 75.5t-24 75.5t-67 27.5q-46 0 -77.5 -26.5t-46.5 -76.5z" />
    <glyph glyph-name="integral" unicode="&#x222b;" horiz-adv-x="373" 
d="M44 -34q32 -9 65 -9q76 0 76 67q0 26 -7 64l-74 424q-6 35 -6 65q0 69 41 107t116 38q52 0 90 -13l-16 -73q-31 9 -65 9q-76 0 -76 -67q0 -25 7 -64l74 -424q6 -35 6 -65q0 -69 -41 -107t-116 -38q-52 0 -90 13z" />
    <glyph glyph-name="approxequal" unicode="&#x2248;" horiz-adv-x="700" 
d="M658 286q0 -89 -43 -135t-125 -46q-38 0 -75 14t-83 46q-43 30 -69.5 41t-54.5 11q-40 0 -61 -25t-21 -73h-84q0 89 42.5 135t125.5 46q38 0 75 -14t83 -46q43 -30 69.5 -41t54.5 -11q40 0 61 25t21 73h84zM658 529q0 -89 -43 -135t-125 -46q-38 0 -75 14t-83 46
q-43 30 -69.5 41t-54.5 11q-40 0 -61 -25t-21 -73h-84q0 89 42.5 135t125.5 46q38 0 75 -14t83 -46q43 -30 69.5 -41t54.5 -11q40 0 61 25t21 73h84z" />
    <glyph glyph-name="notequal" unicode="&#x2260;" horiz-adv-x="700" 
d="M288 187l-70 -103h-86l70 103h-110v82h166l98 142h-264v82h320l70 103h86l-70 -103h110v-82h-166l-98 -142h264v-82h-320z" />
    <glyph glyph-name="lessequal" unicode="&#x2264;" horiz-adv-x="700" 
d="M84 336v72l516 214v-88l-408 -161l408 -161v-90zM84 0v82h516v-82h-516z" />
    <glyph glyph-name="greaterequal" unicode="&#x2265;" horiz-adv-x="700" 
d="M100 122v88l408 161l-408 161v90l516 -214v-72zM100 0v82h516v-82h-516z" />
    <glyph glyph-name="lozenge" unicode="&#x25ca;" horiz-adv-x="700" 
d="M310 0l-266 357l266 357h80l266 -357l-266 -357h-80zM555 357l-205 272l-205 -272l205 -272z" />
    <glyph glyph-name="twosevenths" unicode="&#xf507;" horiz-adv-x="1091" 
d="M277 0l427 691h92l-427 -691h-92zM754 0q82 211 178 340h-271v64h357v-55q-124 -169 -181 -349h-83zM69 287v58q48 31 140 97q66 48 89.5 68t31 33.5t7.5 31.5q0 32 -22.5 49t-64.5 17q-48 0 -74.5 -17.5t-37.5 -57.5l-71 11q16 62 64 94.5t123 32.5q74 0 119 -33t45 -87
q0 -32 -13.5 -54.5t-46 -50t-100.5 -75.5q-47 -33 -82 -54h251l-12 -63h-346z" />
    <glyph glyph-name="threesevenths" unicode="&#xf508;" horiz-adv-x="1091" 
d="M268 0l427 691h92l-427 -691h-92zM754 0q82 211 178 340h-271v64h357v-55q-124 -169 -181 -349h-83zM197 464v63h61q40 0 61.5 15.5t21.5 44.5q0 55 -92 55q-45 0 -69.5 -15t-36.5 -49l-70 11q12 53 59.5 84t116.5 31q79 0 123.5 -29t44.5 -81q0 -32 -18.5 -54t-57.5 -38
q87 -25 87 -98q0 -62 -46 -96t-131 -34q-80 0 -129.5 37t-52.5 99h70q9 -40 34.5 -57t75.5 -17t76.5 17t26.5 50q0 32 -22.5 46.5t-71.5 14.5h-61z" />
    <glyph glyph-name="foursevenths" unicode="&#xf509;" horiz-adv-x="1091" 
d="M267 0l427 691h92l-427 -691h-92zM754 0q82 211 178 340h-271v64h357v-55q-124 -169 -181 -349h-83zM310 287v93h-256v51l254 260h72v-251h77l-11 -60h-66v-93h-70zM310 613l-173 -173h173v173z" />
    <glyph glyph-name="fivesevenths" unicode="&#xf50a;" horiz-adv-x="1091" 
d="M262 0l427 691h92l-427 -691h-92zM754 0q82 211 178 340h-271v64h357v-55q-124 -169 -181 -349h-83zM172 628l-11 -110q15 13 44 20.5t65 7.5q77 0 120 -34.5t43 -95.5q0 -67 -45.5 -104.5t-127.5 -37.5q-77 0 -124 31.5t-56 89.5h70q9 -31 34.5 -45t74.5 -14
q47 0 72.5 20.5t25.5 58.5q0 36 -25 54.5t-73 18.5q-70 0 -107 -29h-60l24 232h286v-63h-230z" />
    <glyph glyph-name="sixsevenths" unicode="&#xf50b;" horiz-adv-x="1091" 
d="M268 0l427 691h92l-427 -691h-92zM754 0q82 211 178 340h-271v64h357v-55q-124 -169 -181 -349h-83zM359 588q-11 28 -34.5 41t-64.5 13q-116 0 -125 -141q45 45 134 45q80 0 122.5 -34.5t42.5 -97.5q0 -64 -49.5 -102t-134.5 -38q-91 0 -139.5 48.5t-48.5 139.5
q0 115 52 178.5t147 63.5q70 0 109.5 -25.5t56.5 -80.5zM359 412q0 77 -102 77q-56 0 -86 -19t-30 -53q0 -38 29 -59.5t80 -21.5q52 0 80.5 20t28.5 56z" />
    <glyph glyph-name="twoninths" unicode="&#xf50d;" horiz-adv-x="1091" 
d="M305 0l427 691h92l-427 -691h-92zM738 101q9 -28 33.5 -40t70.5 -12q61 0 90.5 34.5t29.5 106.5q-45 -45 -134 -45q-80 0 -122.5 34.5t-42.5 97.5q0 64 50 102t134 38q90 0 139 -50.5t49 -142.5q0 -237 -193 -237q-77 0 -118.5 27t-55.5 87h70zM955 274q0 38 -29 59.5
t-79 21.5q-51 0 -79.5 -20t-28.5 -56q0 -77 101 -77q55 0 85 19t30 53zM69 287v58q48 31 140 97q66 48 89.5 68t31 33.5t7.5 31.5q0 32 -22.5 49t-64.5 17q-48 0 -74.5 -17.5t-37.5 -57.5l-71 11q16 62 64 94.5t123 32.5q74 0 119 -33t45 -87q0 -32 -13.5 -54.5t-46 -50
t-100.5 -75.5q-47 -33 -82 -54h251l-12 -63h-346z" />
    <glyph glyph-name="fourninths" unicode="&#xf50e;" horiz-adv-x="1091" 
d="M290 0l427 691h92l-427 -691h-92zM738 101q9 -28 33.5 -40t70.5 -12q61 0 90.5 34.5t29.5 106.5q-45 -45 -134 -45q-80 0 -122.5 34.5t-42.5 97.5q0 64 50 102t134 38q90 0 139 -50.5t49 -142.5q0 -237 -193 -237q-77 0 -118.5 27t-55.5 87h70zM955 274q0 38 -29 59.5
t-79 21.5q-51 0 -79.5 -20t-28.5 -56q0 -77 101 -77q55 0 85 19t30 53zM310 287v93h-256v51l254 260h72v-251h77l-11 -60h-66v-93h-70zM310 613l-173 -173h173v173z" />
    <glyph glyph-name="fiveninths" unicode="&#xf50f;" horiz-adv-x="1091" 
d="M287 0l427 691h92l-427 -691h-92zM738 101q9 -28 33.5 -40t70.5 -12q61 0 90.5 34.5t29.5 106.5q-45 -45 -134 -45q-80 0 -122.5 34.5t-42.5 97.5q0 64 50 102t134 38q90 0 139 -50.5t49 -142.5q0 -237 -193 -237q-77 0 -118.5 27t-55.5 87h70zM955 274q0 38 -29 59.5
t-79 21.5q-51 0 -79.5 -20t-28.5 -56q0 -77 101 -77q55 0 85 19t30 53zM172 628l-11 -110q15 13 44 20.5t65 7.5q77 0 120 -34.5t43 -95.5q0 -67 -45.5 -104.5t-127.5 -37.5q-77 0 -124 31.5t-56 89.5h70q9 -31 34.5 -45t74.5 -14q47 0 72.5 20.5t25.5 58.5q0 36 -25 54.5
t-73 18.5q-70 0 -107 -29h-60l24 232h286v-63h-230z" />
    <glyph glyph-name="sevenninths" unicode="&#xf510;" horiz-adv-x="1091" 
d="M241 0l427 691h92l-427 -691h-92zM738 101q9 -28 33.5 -40t70.5 -12q61 0 90.5 34.5t29.5 106.5q-45 -45 -134 -45q-80 0 -122.5 34.5t-42.5 97.5q0 64 50 102t134 38q90 0 139 -50.5t49 -142.5q0 -237 -193 -237q-77 0 -118.5 27t-55.5 87h70zM955 274q0 38 -29 59.5
t-79 21.5q-51 0 -79.5 -20t-28.5 -56q0 -77 101 -77q55 0 85 19t30 53zM155 287q82 211 178 340h-271v64h357v-55q-124 -169 -181 -349h-83z" />
    <glyph glyph-name="eightninths" unicode="&#xf511;" horiz-adv-x="1091" 
d="M290 0l427 691h92l-427 -691h-92zM738 101q9 -28 33.5 -40t70.5 -12q61 0 90.5 34.5t29.5 106.5q-45 -45 -134 -45q-80 0 -122.5 34.5t-42.5 97.5q0 64 50 102t134 38q90 0 139 -50.5t49 -142.5q0 -237 -193 -237q-77 0 -118.5 27t-55.5 87h70zM955 274q0 38 -29 59.5
t-79 21.5q-51 0 -79.5 -20t-28.5 -56q0 -77 101 -77q55 0 85 19t30 53zM347 498q86 -27 86 -101q0 -60 -48 -91.5t-139 -31.5q-93 0 -140 31t-47 92q0 35 22.5 61.5t63.5 39.5q-68 27 -68 89q0 55 45 86t125 31t124 -30.5t44 -86.5q0 -30 -17.5 -53t-50.5 -36zM342 586
q0 29 -25.5 44.5t-71.5 15.5t-70.5 -16t-24.5 -45q0 -32 23 -47t72 -15q50 0 73.5 15.5t23.5 47.5zM357 398q0 67 -112 67q-110 0 -110 -67q0 -32 28 -49t82 -17q55 0 83.5 17t28.5 49z" />
    <glyph glyph-name="zero.numr" unicode="&#xf80a;" 
d="M246 274q-92 0 -145.5 58t-53.5 157q0 98 54 156.5t145 58.5q92 0 145.5 -58t53.5 -157q0 -98 -54 -156.5t-145 -58.5zM246 339q58 0 87.5 38t29.5 112q0 150 -117 150q-58 0 -87.5 -38t-29.5 -112q0 -150 117 -150z" />
    <glyph glyph-name="one.numr" unicode="&#xf80b;" 
d="M256 287v320l-126 -72l-31 56l168 100h69v-404h-80z" />
    <glyph glyph-name="two.numr" unicode="&#xf80c;" 
d="M69 287v58q48 31 140 97q66 48 89.5 68t31 33.5t7.5 31.5q0 32 -22.5 49t-64.5 17q-48 0 -74.5 -17.5t-37.5 -57.5l-71 11q16 62 64 94.5t123 32.5q74 0 119 -33t45 -87q0 -32 -13.5 -54.5t-46 -50t-100.5 -75.5q-47 -33 -82 -54h251l-12 -63h-346z" />
    <glyph glyph-name="three.numr" unicode="&#xf80d;" 
d="M197 464v63h61q40 0 61.5 15.5t21.5 44.5q0 55 -92 55q-45 0 -69.5 -15t-36.5 -49l-70 11q12 53 59.5 84t116.5 31q79 0 123.5 -29t44.5 -81q0 -32 -18.5 -54t-57.5 -38q87 -25 87 -98q0 -62 -46 -96t-131 -34q-80 0 -129.5 37t-52.5 99h70q9 -40 34.5 -57t75.5 -17
t76.5 17t26.5 50q0 32 -22.5 46.5t-71.5 14.5h-61z" />
    <glyph glyph-name="four.numr" unicode="&#xf80e;" 
d="M310 287v93h-256v51l254 260h72v-251h77l-11 -60h-66v-93h-70zM310 613l-173 -173h173v173z" />
    <glyph glyph-name="five.numr" unicode="&#xf80f;" 
d="M172 628l-11 -110q15 13 44 20.5t65 7.5q77 0 120 -34.5t43 -95.5q0 -67 -45.5 -104.5t-127.5 -37.5q-77 0 -124 31.5t-56 89.5h70q9 -31 34.5 -45t74.5 -14q47 0 72.5 20.5t25.5 58.5q0 36 -25 54.5t-73 18.5q-70 0 -107 -29h-60l24 232h286v-63h-230z" />
    <glyph glyph-name="six.numr" unicode="&#xf810;" 
d="M359 588q-11 28 -34.5 41t-64.5 13q-116 0 -125 -141q45 45 134 45q80 0 122.5 -34.5t42.5 -97.5q0 -64 -49.5 -102t-134.5 -38q-91 0 -139.5 48.5t-48.5 139.5q0 115 52 178.5t147 63.5q70 0 109.5 -25.5t56.5 -80.5zM359 412q0 77 -102 77q-56 0 -86 -19t-30 -53
q0 -38 29 -59.5t80 -21.5q52 0 80.5 20t28.5 56z" />
    <glyph glyph-name="seven.numr" unicode="&#xf811;" 
d="M155 287q82 211 178 340h-271v64h357v-55q-124 -169 -181 -349h-83z" />
    <glyph glyph-name="eight.numr" unicode="&#xf812;" 
d="M347 498q86 -27 86 -101q0 -60 -48 -91.5t-139 -31.5q-93 0 -140 31t-47 92q0 35 22.5 61.5t63.5 39.5q-68 27 -68 89q0 55 45 86t125 31t124 -30.5t44 -86.5q0 -30 -17.5 -53t-50.5 -36zM342 586q0 29 -25.5 44.5t-71.5 15.5t-70.5 -16t-24.5 -45q0 -32 23 -47t72 -15
q50 0 73.5 15.5t23.5 47.5zM357 398q0 67 -112 67q-110 0 -110 -67q0 -32 28 -49t82 -17q55 0 83.5 17t28.5 49z" />
    <glyph glyph-name="nine.numr" unicode="&#xf813;" 
d="M139 388q9 -28 33.5 -40t70.5 -12q61 0 90.5 34.5t29.5 106.5q-45 -45 -134 -45q-80 0 -122.5 34.5t-42.5 97.5q0 64 50 102t134 38q90 0 139 -50.5t49 -142.5q0 -237 -193 -237q-77 0 -118.5 27t-55.5 87h70zM356 561q0 38 -29 59.5t-79 21.5q-51 0 -79.5 -20t-28.5 -56
q0 -77 101 -77q55 0 85 19t30 53z" />
    <glyph glyph-name="zero.dnom" unicode="&#xf814;" 
d="M246 -13q-92 0 -145.5 58t-53.5 157q0 98 54 156.5t145 58.5q92 0 145.5 -58t53.5 -157q0 -98 -54 -156.5t-145 -58.5zM246 52q58 0 87.5 38t29.5 112q0 150 -117 150q-58 0 -87.5 -38t-29.5 -112q0 -150 117 -150z" />
    <glyph glyph-name="one.dnom" unicode="&#xf815;" 
d="M256 0v320l-126 -72l-31 56l168 100h69v-404h-80z" />
    <glyph glyph-name="two.dnom" unicode="&#xf816;" 
d="M69 0v58q48 31 140 97q66 48 89.5 68t31 33.5t7.5 31.5q0 32 -22.5 49t-64.5 17q-48 0 -74.5 -17.5t-37.5 -57.5l-71 11q16 62 64 94.5t123 32.5q74 0 119 -33t45 -87q0 -32 -13.5 -54.5t-46 -50t-100.5 -75.5q-47 -33 -82 -54h251l-12 -63h-346z" />
    <glyph glyph-name="three.dnom" unicode="&#xf817;" 
d="M197 177v63h61q40 0 61.5 15.5t21.5 44.5q0 55 -92 55q-45 0 -69.5 -15t-36.5 -49l-70 11q12 53 59.5 84t116.5 31q79 0 123.5 -29t44.5 -81q0 -32 -18.5 -54t-57.5 -38q87 -25 87 -98q0 -62 -46 -96t-131 -34q-80 0 -129.5 37t-52.5 99h70q9 -40 34.5 -57t75.5 -17
t76.5 17t26.5 50q0 32 -22.5 46.5t-71.5 14.5h-61z" />
    <glyph glyph-name="four.dnom" unicode="&#xf818;" 
d="M310 0v93h-256v51l254 260h72v-251h77l-11 -60h-66v-93h-70zM310 326l-173 -173h173v173z" />
    <glyph glyph-name="five.dnom" unicode="&#xf819;" 
d="M172 341l-11 -110q15 13 44 20.5t65 7.5q77 0 120 -34.5t43 -95.5q0 -67 -45.5 -104.5t-127.5 -37.5q-77 0 -124 31.5t-56 89.5h70q9 -31 34.5 -45t74.5 -14q47 0 72.5 20.5t25.5 58.5q0 36 -25 54.5t-73 18.5q-70 0 -107 -29h-60l24 232h286v-63h-230z" />
    <glyph glyph-name="six.dnom" unicode="&#xf81a;" 
d="M359 301q-11 28 -34.5 41t-64.5 13q-116 0 -125 -141q45 45 134 45q80 0 122.5 -34.5t42.5 -97.5q0 -64 -49.5 -102t-134.5 -38q-91 0 -139.5 48.5t-48.5 139.5q0 115 52 178.5t147 63.5q70 0 109.5 -25.5t56.5 -80.5zM359 125q0 77 -102 77q-56 0 -86 -19t-30 -53
q0 -38 29 -59.5t80 -21.5q52 0 80.5 20t28.5 56z" />
    <glyph glyph-name="seven.dnom" unicode="&#xf81b;" 
d="M155 0q82 211 178 340h-271v64h357v-55q-124 -169 -181 -349h-83z" />
    <glyph glyph-name="eight.dnom" unicode="&#xf81c;" 
d="M347 211q86 -27 86 -101q0 -60 -48 -91.5t-139 -31.5q-93 0 -140 31t-47 92q0 35 22.5 61.5t63.5 39.5q-68 27 -68 89q0 55 45 86t125 31t124 -30.5t44 -86.5q0 -30 -17.5 -53t-50.5 -36zM342 299q0 29 -25.5 44.5t-71.5 15.5t-70.5 -16t-24.5 -45q0 -32 23 -47t72 -15
q50 0 73.5 15.5t23.5 47.5zM357 111q0 67 -112 67q-110 0 -110 -67q0 -32 28 -49t82 -17q55 0 83.5 17t28.5 49z" />
    <glyph glyph-name="nine.dnom" unicode="&#xf81d;" 
d="M139 101q9 -28 33.5 -40t70.5 -12q61 0 90.5 34.5t29.5 106.5q-45 -45 -134 -45q-80 0 -122.5 34.5t-42.5 97.5q0 64 50 102t134 38q90 0 139 -50.5t49 -142.5q0 -237 -193 -237q-77 0 -118.5 27t-55.5 87h70zM356 274q0 38 -29 59.5t-79 21.5q-51 0 -79.5 -20t-28.5 -56
q0 -77 101 -77q55 0 85 19t30 53z" />
    <glyph glyph-name="fi" unicode="&#xfb01;" horiz-adv-x="670" 
d="M124 0v443h-101v74h101v44q0 76 50.5 118.5t140.5 42.5q56 0 102 -13l-16 -72q-31 8 -70 8q-113 0 -113 -84v-44h176v-74h-176v-443h-94zM494 0v517h94v-517h-94zM491 612v102h100v-102h-100z" />
    <glyph glyph-name="fl" unicode="&#xfb02;" horiz-adv-x="670" 
d="M124 0v443h-101v74h101v44q0 76 50.5 118.5t140.5 42.5q56 0 102 -13l-16 -72q-31 8 -70 8q-113 0 -113 -84v-44h176v-74h-176v-443h-94zM494 0v714h94v-714h-94z" />
    <glyph glyph-name="uniFEFF" unicode="&#xfeff;" horiz-adv-x="0" 
 />
    <glyph glyph-name="zero.pnum" horiz-adv-x="722" 
d="M361 -18q-149 0 -225 91.5t-76 271.5q0 178 77 271.5t224 93.5q149 0 225 -91.5t76 -271.5q0 -178 -77 -271.5t-224 -93.5zM361 67q102 0 152 69.5t50 210.5q0 278 -202 278q-102 0 -152 -69.5t-50 -210.5q0 -278 202 -278z" />
    <glyph glyph-name="one.pnum" horiz-adv-x="496" 
d="M264 0v584l-187 -112l-42 72l239 147h87v-691h-97z" />
    <glyph glyph-name="two.pnum" horiz-adv-x="655" 
d="M49 0v77q132 96 256 190q86 65 123 100.5t50 63.5t13 64q0 63 -43 96.5t-124 33.5q-75 0 -117.5 -28t-63.5 -92l-90 14q23 95 92.5 143t182.5 48q125 0 193.5 -54t68.5 -151q0 -57 -20 -99.5t-65.5 -86.5t-129.5 -105q-67 -49 -183 -129h411l-16 -85h-538z" />
    <glyph glyph-name="three.pnum" horiz-adv-x="675" 
d="M246 317v85h103q73 0 114.5 31t41.5 87q0 53 -43.5 80t-127.5 27q-52 0 -87.5 -11.5t-58.5 -36.5t-38 -65l-91 14q20 90 90.5 136t188.5 46q120 0 190.5 -48.5t70.5 -130.5q0 -58 -30.5 -97t-95.5 -66q145 -48 145 -170q0 -102 -73.5 -159t-205.5 -57q-133 0 -208 54.5
t-80 154.5h95q11 -67 55.5 -96.5t135.5 -29.5t138.5 33t47.5 97q0 122 -176 122h-101z" />
    <glyph glyph-name="four.pnum" horiz-adv-x="682" 
d="M453 0v169h-423v70l420 452h91v-445h120l-14 -77h-106v-169h-88zM453 583l-313 -337h313v337z" />
    <glyph glyph-name="five.pnum" horiz-adv-x="666" 
d="M200 606l-19 -205q44 25 82.5 34t101.5 9q119 0 186 -59t67 -163q0 -114 -71 -177t-199 -63q-252 0 -279 195h95q16 -61 57 -86.5t125 -25.5q88 0 132.5 39.5t44.5 116.5q0 147 -178 147q-59 0 -99.5 -13t-75.5 -44h-82l32 380h448v-85h-368z" />
    <glyph glyph-name="six.pnum" horiz-adv-x="686" 
d="M523 538q-21 46 -58.5 68t-95.5 22q-98 0 -150 -65.5t-59 -196.5l-1 -11q69 90 212 90q125 0 193 -59t68 -167q0 -69 -34 -122.5t-97.5 -84t-148.5 -30.5q-138 0 -212.5 82.5t-74.5 236.5q0 199 78.5 304t226.5 105q97 0 158 -39.5t81 -116.5zM537 217q0 75 -46 113.5
t-136 38.5q-83 0 -133.5 -39.5t-50.5 -103.5q0 -72 50.5 -117t130.5 -45q84 0 134.5 41.5t50.5 111.5z" />
    <glyph glyph-name="seven.pnum" horiz-adv-x="613" 
d="M177 0q58 169 131.5 316t170.5 290h-456v85h563v-76q-197 -285 -308 -615h-101z" />
    <glyph glyph-name="eight.pnum" horiz-adv-x="706" 
d="M506 356q70 -18 110 -63t40 -106q0 -99 -78 -152t-225 -53q-148 0 -225.5 51t-77.5 149q0 63 40 109t111 65q-59 20 -91.5 62t-32.5 99q0 89 74.5 141t202.5 52q130 0 202.5 -51t72.5 -142q0 -57 -32.5 -99.5t-90.5 -61.5zM561 188q0 124 -207 124q-106 0 -157.5 -31
t-51.5 -94q0 -61 54 -93t155 -32q100 0 153.5 32.5t53.5 93.5zM537 513q0 54 -49.5 85.5t-134.5 31.5t-134.5 -31.5t-49.5 -86.5q0 -120 184 -120t184 121z" />
    <glyph glyph-name="nine.pnum" horiz-adv-x="689" 
d="M530 336q-66 -90 -210 -90q-125 0 -193 58.5t-68 167.5q0 69 34 123t97.5 84.5t148.5 30.5q141 0 214 -86.5t73 -253.5q0 -190 -73.5 -289t-214.5 -99q-239 0 -262 170h94q14 -46 54 -67t114 -21q91 0 137.5 63t54.5 199v10zM519 466q0 72 -50 117t-130 45
q-84 0 -134.5 -42t-50.5 -112q0 -75 46 -113.5t136 -38.5q82 0 132.5 39.5t50.5 104.5z" />
    <glyph glyph-name="hyphen.case" horiz-adv-x="468" 
d="M52 315v90h364v-90h-364z" />
    <glyph glyph-name="endash.case" horiz-adv-x="610" 
d="M0 317v86h610v-86h-610z" />
    <glyph glyph-name="emdash.case" horiz-adv-x="1220" 
d="M0 317v86h1220v-86h-1220z" />
    <glyph glyph-name="parenleft.case" horiz-adv-x="311" 
d="M200 -72q-142 178 -142 429t142 429h89q-70 -102 -101 -202.5t-31 -226.5q0 -125 31 -226t101 -203h-89z" />
    <glyph glyph-name="parenright.case" horiz-adv-x="311" 
d="M22 -72q70 102 101 202.5t31 226.5t-31 226.5t-101 202.5h89q142 -178 142 -429t-142 -429h-89z" />
    <glyph glyph-name="slash.case" horiz-adv-x="393" 
d="M8 -9l281 734h96l-281 -734h-96z" />
    <glyph glyph-name="backslash.case" horiz-adv-x="393" 
d="M385 -9h-96l-281 734h96z" />
    <glyph glyph-name="bracketleft.case" horiz-adv-x="355" 
d="M96 -72v858h237v-80h-141v-698h141v-80h-237z" />
    <glyph glyph-name="bracketright.case" horiz-adv-x="355" 
d="M259 -72h-237v80h141v698h-141v80h237v-858z" />
    <glyph glyph-name="braceleft.case" horiz-adv-x="357" 
d="M259 -72q-73 0 -109 31t-36 94v192q0 73 -82 73h-8v78h8q82 0 82 73v192q0 63 36 94t109 31h82v-80h-66q-65 0 -65 -51v-201q0 -42 -19.5 -65.5t-60.5 -31.5q41 -8 60.5 -31.5t19.5 -65.5v-201q0 -51 65 -51h66v-80h-82z" />
    <glyph glyph-name="braceright.case" horiz-adv-x="357" 
d="M243 53q0 -63 -36 -94t-109 -31h-82v80h66q65 0 65 51v201q0 42 19.5 65.5t60.5 31.5q-41 8 -60.5 31.5t-19.5 65.5v201q0 51 -65 51h-66v80h82q73 0 109 -31t36 -94v-192q0 -73 82 -73h8v-78h-8q-82 0 -82 -73v-192z" />
    <glyph glyph-name="bullet.case" horiz-adv-x="396" 
d="M352 357q0 -64 -42 -102.5t-112 -38.5t-112 38.5t-42 102.5t42 102.5t112 38.5t112 -38.5t42 -102.5z" />
    <glyph glyph-name="guilsinglleft.case" horiz-adv-x="351" 
d="M208 133l-170 223l170 223h99l-161 -222l163 -224h-101z" />
    <glyph glyph-name="guilsinglright.case" horiz-adv-x="351" 
d="M44 133l161 222l-163 224h101l170 -223l-170 -223h-99z" />
    <glyph glyph-name="guillemotleft.case" horiz-adv-x="584" 
d="M208 133l-170 223l170 223h99l-161 -222l163 -224h-101zM441 133l-170 223l170 223h99l-161 -222l163 -224h-101z" />
    <glyph glyph-name="guillemotright.case" horiz-adv-x="584" 
d="M277 133l161 222l-163 224h101l170 -223l-170 -223h-99zM44 133l161 222l-163 224h101l170 -223l-170 -223h-99z" />
    <glyph glyph-name="at.case" horiz-adv-x="1127" 
d="M936 72q-60 -79 -164 -119t-247 -40q-144 0 -249 46.5t-161.5 136t-56.5 214.5q0 136 67.5 247t192.5 177t284 66q139 0 244.5 -45t164 -130.5t58.5 -202.5q0 -87 -30 -156t-86 -109t-128 -40q-62 0 -95.5 22t-41.5 69q-31 -44 -80 -67.5t-108 -23.5q-91 0 -143.5 52.5
t-52.5 141.5q0 76 32.5 138t92 99t135.5 37q60 0 101.5 -21.5t60.5 -61.5l13 72h85l-56 -309q-4 -23 -4 -33q0 -26 16 -38t51 -12q45 0 80.5 28.5t56.5 82t21 122.5q0 95 -46.5 165.5t-134.5 109.5t-210 39q-127 0 -230 -50.5t-163.5 -144.5t-60.5 -216q0 -161 102.5 -247.5
t292.5 -86.5q98 0 164.5 20.5t122.5 67.5h110zM697 367q4 25 4 46q0 44 -36 71.5t-92 27.5q-79 0 -128.5 -54t-49.5 -141q0 -62 31 -94.5t90 -32.5q69 0 115.5 36t57.5 97z" />
    <glyph glyph-name="periodcentered.case" horiz-adv-x="266" 
d="M80 296v119h106v-119h-106z" />
    <glyph glyph-name="questiondown.case" horiz-adv-x="630" 
d="M594 175q-22 -92 -93 -139.5t-188 -47.5q-119 0 -186 48.5t-67 134.5q0 57 25.5 98t92.5 92q64 49 83 74t19 60v14h93v-13q0 -50 -25 -87t-94 -89q-57 -43 -76 -70t-19 -65q0 -56 40.5 -86.5t114.5 -30.5q82 0 127 28t65 92zM274 595v119h106v-119h-106z" />
    <glyph glyph-name="exclamdown.case" horiz-adv-x="266" 
d="M84 0l3 509h92l3 -509h-98zM80 595v119h106v-119h-106z" />
    <glyph glyph-name="periodcentered.loclCAT" horiz-adv-x="266" 
d="M80 314v119h106v-119h-106z" />
    <glyph glyph-name="periodcentered.loclCAT.cap" horiz-adv-x="266" 
d="M80 338v119h106v-119h-106z" />
    <glyph glyph-name="i.locl" horiz-adv-x="258" 
d="M82 0v517h94v-517h-94zM79 612v102h100v-102h-100z" />
    <glyph glyph-name="Eng.locl" horiz-adv-x="860" 
d="M665 470q0 93 -46.5 135t-150.5 42q-55 0 -109 -20.5t-95 -55.5q-69 -60 -69 -144v-427h-99v714h98v-118q108 136 291 136q139 0 209 -60t70 -178v-466q0 -114 -70.5 -173.5t-205.5 -59.5q-109 0 -177 26l25 81q60 -22 149 -22q88 0 134 36.5t46 107.5v446z" />
    <glyph glyph-name="uni0327.cap" horiz-adv-x="0" 
d="M-117 -152q50 -10 86 -10q32 0 49.5 8.5t17.5 24.5q0 18 -20 25t-70 7h-24l44 110l60 -13l-19 -51q110 -11 110 -85q0 -41 -35.5 -62.5t-102.5 -21.5q-63 0 -96 11v57z" />
    <glyph glyph-name="uni0326.cap" horiz-adv-x="0" 
d="M-134 -218l93 152h104l-114 -152h-83z" />
    <glyph glyph-name="uni0328.cap" horiz-adv-x="0" 
d="M55 -182q-17 -4 -47 -4q-62 0 -93.5 21t-31.5 61q0 64 107 118l59 -14q-82 -46 -82 -88q0 -35 56 -35q16 0 32 3v-62z" />
    <glyph glyph-name="uni0328.round" horiz-adv-x="0" 
d="M55 -176q-17 -4 -46 -4q-122 0 -122 80q0 61 114 116l49 -12q-39 -22 -60.5 -45t-21.5 -43q0 -18 12.5 -26t41.5 -8q14 0 33 3v-61z" />
    <glyph glyph-name="uni0328.round.cap" horiz-adv-x="0" 
d="M55 -182q-17 -4 -47 -4q-62 0 -93.5 21t-31.5 61q0 64 112 117l54 -13q-82 -46 -82 -88q0 -35 56 -35q16 0 32 3v-62z" />
    <glyph glyph-name="iogonek.dotless" horiz-adv-x="258" 
d="M82 0v517h94v-517h-94zM184 -176q-17 -4 -46 -4q-122 0 -122 80q0 30 26 57.5t79 55.5l55 -13q-79 -47 -79 -85q0 -17 13 -25t41 -8q14 0 33 3v-61z" />
    <glyph glyph-name="acutecomb.cap" horiz-adv-x="0" 
d="M22 773h-98l144 135h121z" />
    <glyph glyph-name="uni030B.cap" horiz-adv-x="0" 
d="M-76 773h-90l133 135h115zM138 773h-90l133 135h115z" />
    <glyph glyph-name="gravecomb.cap" horiz-adv-x="0" 
d="M-22 773l-167 135h121l144 -135h-98z" />
    <glyph glyph-name="uni0302.cap" horiz-adv-x="0" 
d="M96 773l-96 77l-96 -77h-91l141 135h92l141 -135h-91z" />
    <glyph glyph-name="tildecomb.cap" horiz-adv-x="0" 
d="M215 895q0 -60 -31.5 -91t-91.5 -31q-45 0 -94 29q-30 18 -47.5 24.5t-34.5 6.5q-31 0 -44 -13t-13 -42h-73q0 60 31.5 91t91.5 31q45 0 94 -29q30 -18 47.5 -24.5t34.5 -6.5q31 0 44 13t13 42h73z" />
    <glyph glyph-name="uni030C.cap" horiz-adv-x="0" 
d="M46 773h-92l-141 135h91l96 -77l96 77h91z" />
    <glyph glyph-name="uni0315.short" horiz-adv-x="0" 
d="M-43 574l24 159h85l-42 -159h-67z" />
    <glyph glyph-name="uni0304.cap" horiz-adv-x="0" 
d="M-178 798v74h356v-74h-356z" />
    <glyph glyph-name="uni0308.cap" horiz-adv-x="0" 
d="M-162 784v105h98v-105h-98zM64 784v105h98v-105h-98z" />
    <glyph glyph-name="uni0306.cap" horiz-adv-x="0" 
d="M163 910q0 -67 -42 -103t-121 -36t-121 36t-42 103h73q0 -38 23.5 -59t66.5 -21t66.5 21t23.5 59h73z" />
    <glyph glyph-name="uni0307.cap" horiz-adv-x="0" 
d="M-52 783v107h103v-107h-103z" />
    <glyph glyph-name="uni030A.cap" horiz-adv-x="0" 
d="M124 842q0 -46 -34.5 -74.5t-89.5 -28.5t-89.5 28.5t-34.5 74.5q0 47 34.5 75.5t89.5 28.5t89.5 -28.5t34.5 -75.5zM62 842q0 54 -62 54t-62 -54q0 -53 62 -53t62 53z" />
    </font>
</defs>
</svg>
